<?xml version="1.0" encoding="utf-8"?>
<!-- Generator: Adobe Illustrator 16.0.0, SVG Export Plug-In . SVG Version: 6.00 Build 0)  -->
<!DOCTYPE svg PUBLIC "-//W3C//DTD SVG 1.1//EN" "http://www.w3.org/Graphics/SVG/1.1/DTD/svg11.dtd">
<svg version="1.1" id="图层_1" xmlns="http://www.w3.org/2000/svg" xmlns:xlink="http://www.w3.org/1999/xlink" x="0px" y="0px"
	 width="283.465px" height="283.464px" viewBox="0 0 283.465 283.464" enable-background="new 0 0 283.465 283.464"
	 xml:space="preserve">
<g>
	<defs>
		<rect id="SVGID_1_" x="0" width="283.465" height="283.464"/>
	</defs>
	<clipPath id="SVGID_2_">
		<use xlink:href="#SVGID_1_"  overflow="visible"/>
	</clipPath>
	<ellipse id="bg" clip-path="url(#SVGID_2_)" fill="#FFFFFF" cx="142.28" cy="142.512" rx="138.018" ry="137.835"/>
	<g clip-path="url(#SVGID_2_)">
		
			<ellipse id="outer" fill="none" stroke="#40478D" stroke-width="2.4" stroke-miterlimit="10" cx="142.28" cy="142.511" rx="138.018" ry="137.836"/>
		<path id="thick" fill="#40478D" d="M233.97,143.649c0,51.347-41.011,92.97-91.603,92.97c-50.59,0-91.602-41.623-91.602-92.97
			s41.012-92.971,91.602-92.971C192.959,50.678,233.97,92.302,233.97,143.649z M142.047,9.327
			C68.676,9.327,9.199,68.919,9.199,142.433c0,73.509,59.478,133.104,132.848,133.104c73.369,0,132.849-59.595,132.849-133.104
			C274.896,68.919,215.416,9.327,142.047,9.327z"/>
		<circle fill="#40478D" cx="142.047" cy="142.829" r="5.851"/>
		<path fill="#40478D" d="M161.586,154.722c-17.403,37.745-44.226,74.991-59.082,68.433c-14.367-6.342,0.83-57.484,15.699-89.021
			c16.368-34.715,45.262-76.961,60.172-71.083C193.404,68.976,179.721,115.386,161.586,154.722z M176.373,66.813
			c-10.293-4.314-40.443,38.598-54.576,68.461c-11.309,23.899-30.333,78.311-17.646,84.313
			c12.091,5.719,39.429-34.035,54.541-66.468C175.229,117.629,187.791,71.599,176.373,66.813z"/>
		<path fill="#40478D" d="M162.823,132.2c25.233,36.983,41.282,74.598,28.235,84.265c-13.706,10.154-49.748-31.826-68.11-57.507
			c-17.165-24.006-42.655-77.6-29.995-87.397C106.151,61.346,134.34,90.454,162.823,132.2z M95.255,74.262
			c-10.741,7.386,14.451,61.016,30.512,82.187c16.845,22.205,51.424,64.61,63.068,56.776c11.097-7.468-9.266-49.425-28.869-79.358
			C135.094,95.888,104.803,67.696,95.255,74.262z"/>
		<path fill="#40478D" d="M142.625,127.374l3.029-12.357c0,0-31.544,2.821-50,7.904c-24.694,6.802-30.672,12.357-33.885,14.829
			c-1.952,1.501-5.657,4.705-5.657,10.437c0,6.689,4.689,10.049,7.516,11.602c6.842,3.759,13.644,5.964,21.732,7.025
			c10.815,1.421,20.215,1.695,25.653,1.838c9.273,0.246,25.179-0.265,25.179-0.265l0.148-3.492c0,0,2.37-0.081-25.857,0.184
			c-6.495,0.061-21.595-1.201-25.082-1.817c-8.538-1.513-11.724-2.451-18.178-5.924c-1.928-1.036-4.891-4.387-4.657-7.852
			c0.163-2.423,2.468-4.867,5.474-6.363c9.722-4.842,18.566-6.766,29.249-8.825C130.458,127.904,142.625,127.374,142.625,127.374z"
			/>
		<polygon fill="#40478D" points="158.315,114.394 142.776,175.819 154.88,175.819 170.011,114.394 		"/>
		<path fill="#40478D" d="M165.834,127.599c0,0,17.049,0.061,36.029,1.715c17.252,1.504,18.907,6.771,19.118,8.089
			c1.33,8.281-17.788,15.479-22.304,16.748c-30.832,8.67-41.632,8.741-41.632,8.741v4.136c0,0,15.831-1.298,29.213-4.462
			c13.813-3.268,24.274-7.807,29.085-10.785c3.677-2.276,13.07-7.36,13.071-16.829c0.001-7.358-7.771-13.734-19.917-16.245
			c-25.87-5.347-38.487-4.313-38.487-4.313L165.834,127.599z"/>
	</g>
	<g clip-path="url(#SVGID_2_)">
		<path fill="#FFFFFF" d="M39.813,82.584l1.072-0.562l1.072-0.562l1.124-0.715l0.612-0.918l-0.409-1.276l-1.378-0.919L40.63,76.56
			l-0.766-0.563l-1.123-0.918l-0.715-0.918l-1.174-0.868l-0.306-2.094v-2.297l0.357-1.48l1.787-0.511h1.787l1.532,0.766
			c0,0,1.583,1.328,1.736,1.43c0.153,0.103,1.072,0.918,1.072,0.918l1.072-0.153l1.429-2.247l1.225-1.837l1.276-2.195l1.174-0.715
			l1.429,0.255l1.226,1.378l0.408,1.736l-0.306,1.378l-0.409,1.481l-0.408,1.429l0.102,1.378l1.174,0.459l1.48-0.459h1.379
			l0.816,0.868l-0.612,1.481l-0.97,1.275l-0.715,1.43l0.358,1.583l1.225,1.583l1.327,2.144l2.195,2.604l1.736,1.838l1.276,1.429
			l-0.255,0.715l-0.97,0.255h-1.378l-1.122-0.287l-1.584-0.376l-1.94-1.072l-1.328-0.996l-1.276-0.893l-1.276-0.613l-0.97-0.306
			l-0.766,0.919l-0.817,1.174l-0.51,1.531l-1.685,0.459l-1.531,0.459l-1.736-0.204l-1.048-0.018l-0.892-0.698l-1.226-1.43
			l-1.174-1.327l-0.511-1.787L39.813,82.584z M47.471,71.761l-0.408,1.149l0.306,0.791l0.918,0.817l1.251,0.306l1.251-0.51v-0.97
			v-1.583l-0.664-0.766h-0.97h-0.868L47.471,71.761z M45.991,80.95l-0.817,0.766v1.072l1.174,0.817l0.97,0.562l1.225-0.256v-0.868
			v-1.276l-0.459-0.663l-1.021-0.511L45.991,80.95z"/>
		<path fill="#FFFFFF" d="M75.168,39.321l1.612-2.102l2.173-2.313l2.452-2.313l2.523-1.542h2.803l2.383,1.612l3.014,3.925
			l2.943,4.275l2.313,3.924l0.841,2.313v4.835h-1.752l-2.172-0.63l-1.402-0.21l-1.191,1.612l-1.752,0.07l-0.561,0.84l-1.542,0.42
			v1.822l-3.714,0.49l-1.542,1.542h-1.682l-0.771-1.331l-1.262-1.542l-1.331-2.383l-0.351-3.224L76.5,47.731l-1.823-3.294
			l-0.35-2.802L75.168,39.321z M94.37,47.538l-0.42-1.278l-0.35-1.192l-1.332-0.595l-1.401,1.016l-0.071,1.682h-0.701l-0.701,1.682
			l0.351,1.752h0.701l1.611-1.471l1.893-0.281L94.37,47.538z M85.61,52.426l-0.701-0.35l-0.771-1.472l-0.21-1.051l-0.841-1.192
			l-0.07-1.402l-0.07-1.331l-1.332-0.281l-2.243,0.491v1.401l0.42,0.298v1.244l1.191,1.472l0.911,1.401l1.542,2.102h2.172V52.426z
			 M81.616,41.283l0.49-1.892l0.841-0.561l1.401,0.351l0.141,1.55l0.28,1.323l0.736,0.35l0.771,1.052v1.891v2.19h0.946l0.631-1.839
			l0.21-1.682l-0.14-1.191l0.07-0.981l1.122-0.35h1.612l0.42-0.911l-1.191-1.752l-0.911-1.682l-1.191-1.612l-0.701-1.191
			l-2.103-0.42l-1.332,1.121l-1.226,0.912h-1.507l-0.701,1.822l-0.42,1.822l0.841,1.892L81.616,41.283z"/>
		<path fill="#FFFFFF" d="M135.612,16.019v0.898v1.025l-0.384,0.769l-0.47,0.47l-0.727,0.129l-0.708-0.129l-0.874,0.214
			l-0.641,0.384l-0.684,0.641l-0.513,0.855l-0.171,0.812l0.556,0.812l1.111,0.557l0.641-0.214l0.575-0.171l0.536-0.341l0.898-0.172
			l0.94,0.342l0.042,0.983l-0.171,1.282l-0.512,1.068l-0.641,0.513h-0.898l-0.599,0.341l-0.727,0.727l-0.47,0.599l0.299,0.854
			l0.684,0.427l0.617,0.385l0.536-0.385l0.556-0.599l1.068-0.363l0.897,0.492l0.641,0.512l0.256,1.025l0.214,0.77l0.769,0.385
			l1.495,0.085l0.728-0.128l0.128-0.641l0.17-0.855l-0.256-0.342l-0.599-0.084l-0.855,0.213l-0.727-0.513l-0.384-0.919
			c0,0-0.427-0.919-0.427-1.047c0-0.128,0.128-1.196,0.128-1.196l0.042-1.197l0.214-0.854l-0.085-1.154l-0.727-0.555l-0.299-0.855
			l0.213-0.897l1.069-0.598h1.324l1.197,0.042l0.726-0.214l0.085-0.982l0.459-1.454l0.476-0.641l0.861-0.641h1.368l0.854,0.471
			l0.342,0.811l0.128,1.24l-0.042,1.154l0.042,1.324l-0.214,1.667l0.299,0.684l0.898,0.983l0.813,0.854l0.17,1.069
			c0,0,0.086,1.111,0,1.367s0,1.325,0,1.325l-0.256,1.154l-0.343,1.24l-0.684,1.025l-0.64,1.112l-0.514,1.196l-0.555,1.496
			l-0.215,1.325l-0.214,2.137l-0.599,1.497v1.41h-0.811l-0.69-1.155l-0.476-0.982l-0.672-0.813l-0.684-0.684l-0.556-0.77
			l-0.171-0.855l-0.299-1.282l-0.257-0.727v-0.897l-0.47-0.598v-0.342l-0.599,0.085l-1.24,0.128l-0.854-0.214l-0.598-0.555
			l-0.727-0.256l-0.129,0.812l-0.213,1.453l-0.085,1.325l-0.086,1.197l-0.342,1.197l-0.769,0.299l-0.47-0.257h-0.897h-1.068h-1.325
			h-1.368h-1.003l-0.962-0.641l-0.342-1.282l0.256-1.453l0.727-1.539l0.684-1.11l0.385-1.24l-0.128-1.239l-0.427-1.154l0.512-0.385
			l0.471-0.982l0.127-1.496l-0.085-1.282l-0.342-0.577c0,0-1.026,0.278-1.155,0.278c-0.128,0-0.897,0.812-0.897,0.812l-1.154,0.983
			l-0.897,1.324l-0.898,1.496l-0.512,1.239l0.939,0.77l1.197-0.171l0.812-0.897l1.111-0.512l-0.085,1.324l-0.812,0.855l-1.197,1.282
			l-1.496,0.983l-1.837,0.556h-1.667l-0.598-0.642v-1.324l0.47-1.154l1.025-1.625l0.77-1.068l1.026-1.752l0.812-0.94l1.068-1.325
			l0.599-1.325l0.854-1.196l1.325-1.753l1.709-2.863l2.051-2.992l1.924-0.684l2.905,0.47L135.612,16.019z M141.681,24.652
			l-1.026-0.342h-0.983l-0.684,0.684l0.342,1.026l0.813,0.385h1.453l0.288-1.154L141.681,24.652z"/>
		<polygon fill="#FFFFFF" points="178.776,28.285 177.365,28.733 176.168,28.285 175.869,27.002 176.254,25.977 177.023,25.977 
			177.621,25.592 177.793,25.123 178.562,24.908 179.501,24.908 180.186,25.421 180.186,26.276 180.186,27.002 179.587,27.174 
			179.117,27.601 		"/>
		<path fill="#FFFFFF" d="M186.298,23.968l1.153,0.557l1.111,0.384l1.281,0.428l1.667,0.385l1.068,0.213l0.471,0.599v0.94
			l-0.214,0.983l-0.557,0.278l-0.981,0.406l-1.24-0.086l-0.939-0.32h-1.326h-0.769l-0.77-0.32l-0.684,0.683l-0.256,0.856
			l-0.043,0.769l0.897,0.47l1.153-0.299l1.112-0.086l0.982,0.385l0.77,0.727l0.299,1.453l0.171,1.197l-0.3,1.111l-0.684,1.111
			h-0.939l-0.728,0.512l-0.854,0.727l-0.429,0.94l-0.256,0.855l-0.343,0.897l-1.109,0.514l-0.086,0.726l1.794,0.171h1.539
			l1.41,0.128l0.983,0.086l0.428,0.684l0.214,0.854l-0.214,0.983l-0.855,0.47l-1.282,0.128l-0.981-0.128l-1.069-0.213l-0.771-0.427
			l-1.195-0.043l-0.813,0.684c0,0-0.299,0.812-0.299,0.983s-0.129,1.026-0.129,1.026s-0.426,0.94-0.47,1.111
			c-0.042,0.171-1.111,1.026-1.111,1.026l-1.195,0.684l-1.368,0.385l-1.026-0.342l-0.811-0.812l-1.112-0.94l-0.727-0.983
			l-0.427-0.897l0.427-1.026l-0.342-0.94l-0.728-0.384h-1.195l-0.598-0.214l-0.77-0.983l-0.299-1.069l0.341-1.24l0.813-0.427
			l1.153,0.256l0.47,0.598h1.367h1.453l2.181,0.385h1.197l0.341-0.427l0.172-0.769c0,0,0.256-1.368,0.256-1.539
			s-0.085-0.769-0.085-0.769l0.17-1.025l0.685-0.897l1.452-0.385l1.112-0.385l0.982-0.47l0.685-0.556l0.47-0.897l-0.215-0.854
			l-0.684-0.514l-1.153,0.043l-1.112-0.214l-1.153,0.342l-1.11,0.897l-1.111,1.154l-0.92,1.154l-0.662,1.325l-0.813,1.368
			l-0.939,0.94h-1.41l-1.025-0.727l-0.728-0.94l-0.512-1.453l0.214-1.752l0.512-1.111l0.47-1.282h1.282l1.453-0.214l1.282-0.684
			l1.197-0.812l1.838-0.984l0.897-0.555l0.854-1.41l0.384-0.939l-0.341-0.685l-0.556-0.812v-1.154l0.94-0.513l1.752,0.256
			L186.298,23.968z M180.484,43.926l-1.495,0.257l-0.471,0.854l0.557,0.94l0.811,0.727h0.855l0.513-0.94l-0.256-1.026l-0.514-0.555
			V43.926z"/>
		<path fill="#FFFFFF" d="M230.708,56.839l1.799-0.257l1.734,0.257l1.541-0.257c0,0,0.321-1.67,0-1.734
			c-0.322-0.064-1.093-1.092-1.093-1.092l-1.373-0.642h-1.195l-1.156,0.963l-0.257,1.285V56.839z"/>
		<polygon fill="#FFFFFF" points="237.58,60.051 237.066,61.978 235.926,63.583 234.883,64.996 232.699,64.996 231.286,64.354 
			230.708,63.455 230.708,62.106 232.121,62.106 232.635,61.399 232.956,60.051 232.635,59.216 231.736,59.216 230.708,58.895 
			231.736,58.509 233.855,58.509 235.653,58.509 236.938,59.023 		"/>
		<polygon fill="#FFFFFF" points="217.35,49.968 219.598,50.551 220.817,50.551 220.817,51.188 220.561,52.023 220.047,52.472 
			219.34,52.472 219.405,53.564 219.084,54.334 218.056,54.334 217.028,53.115 216.321,52.472 215.103,52.536 213.496,53.757 
			211.505,55.555 210.284,56.583 209.707,57.803 209.321,58.766 207.974,59.729 206.944,60.565 206.944,62.106 207.203,64.996 
			207.974,65.959 209.514,65.445 210.478,64.226 211.055,63.133 212.726,63.006 213.881,62.042 214.396,59.922 214.717,58.509 
			215.615,57.353 216.836,56.133 218.249,56.198 218.313,57.225 218.634,58.766 219.791,58.509 220.817,57.964 221.717,57.964 
			221.396,58.831 221.717,60.436 222.68,60.886 223.258,60.95 223.258,61.464 223.258,62.62 222.102,63.133 220.946,63.327 
			220.239,63.583 220.368,64.418 220.432,65.51 221.331,65.574 221.524,66.281 221.139,66.988 219.791,66.988 217.863,66.988 
			216.386,66.988 216.065,68.271 216.321,69.235 217.092,69.877 217.863,69.877 219.212,69.877 219.276,70.327 218.313,71.547 
			217.478,72.446 217.799,74.373 217.991,75.593 219.276,76.877 220.689,77.328 222.102,77.328 223.258,78.355 224.672,79.447 
			226.213,79.896 227.625,79.896 228.589,78.805 228.268,77.263 228.139,75.593 228.203,73.795 228.203,72.575 227.047,72.575 
			226.405,73.603 225.57,74.629 224.35,75.336 222.744,75.464 221.074,74.758 219.918,73.474 219.854,72.253 220.561,71.418 
			221.846,70.712 221.78,69.556 221.652,68.4 222.68,68.335 224.672,68.271 226.084,68.143 226.084,66.859 225.698,66.023 
			224.606,65.895 223.772,64.996 223.965,64.675 225.891,64.675 226.983,64.546 227.433,63.712 227.433,62.492 226.79,62.17 
			226.148,61.752 226.148,60.886 226.598,59.729 227.561,59.794 229.167,59.345 229.488,58.509 229.102,57.739 228.396,57.739 
			228.139,56.839 228.396,55.555 228.331,54.206 227.176,54.142 226.02,54.527 225.313,55.619 224.543,56.39 223.836,56.839 
			222.552,56.839 221.267,56.198 221.588,54.977 222.102,53.115 222.872,52.472 224.413,52.472 225.185,51.766 225.506,50.551 
			225.249,48.94 224.094,48.683 221.846,48.683 219.532,49.068 217.735,49.068 		"/>
		<path fill="#FFFFFF" d="M45.252,173.287"/>
		<path fill="#FFFFFF" d="M42.712,173.287l-0.796,1.227l-1.103,1.043l-1.777,0.551h-1.226l-0.919,0.857h-2.206l-1.409-1.839
			l-0.735-1.839l-0.429-1.039v-0.92l-1.471-0.307l-0.98,0.49l-1.042,1.104l1.042,1.225l0.612,0.92l0.49,1.041l-0.123,1.164
			l-0.735,0.797l-1.095,0.247l-1.674-0.078l-1.424-0.094l-1.017-0.344l-1.205-1.283l-0.923,0.156l-0.61,0.688L21.6,177.82
			l-0.141,1.457l0.422,1.235l0.704,0.423l1.064,0.531l1.11,0.34h1.409l1.964-0.112l2.02,0.112l0.674,0.121l0.82,0.231l0.957,0.075
			l1.501,0.097l1.378,0.21l1.226,0.857l0.919,0.858l0.919,0.919l0.919,0.857l0.919,0.797l0.613,0.674l0.98,0.858l0.429,0.796
			l0.674,0.92h0.98h1.191c0,0,1.076,0.429,1.137,0c0.062-0.43,0.49-0.92,0.49-0.92v-1.225v-1.594l-0.368-0.797l-0.49-0.98
			l-0.49-0.428l-0.857,0.367l-1.287,0.674l-1.042-0.551l-1.226-1.042l-1.164-1.103l-1.164-0.797l-0.184-1.038l1.287-0.739
			l1.226-0.307l1.164-0.674l1.165-0.919l1.103-1.042l0.701-1.225v-1.9l-0.64-0.553h-1.226H42.712z"/>
		<path fill="none" d="M33.705,187.443"/>
		<path fill="#FFFFFF" d="M31.662,188.857l-0.878,0.316l-1.37,0.772l-0.492,1.071v1.354v1.511l0.175,1.406l0.475,1.352l0.422,0.526
			l0.791-0.07h0.878l0.58,0.299l0.562,0.528l0.65,0.314l0.457-0.79l0.649-0.895l0.229-0.984c0,0-0.106-0.772-0.124-0.826
			c-0.017-0.052-0.281-0.631-0.333-0.755s-0.228-0.721-0.228-0.721l0.333-0.614l0.457-0.79l0.211-0.95L35.034,190l-0.474-0.809
			l-0.457-0.667l-0.632-0.176l-0.58,0.264l-0.755,0.245H31.662z"/>
		<path fill="#FFFFFF" d="M55.055,205.554l-1.107,0.201h-1.409l-0.755,0.353l-0.101,1.156l-0.15,0.806l-0.956,0.554l-0.805,0.352
			l-0.705,0.604l-0.101,0.856l-0.201,0.703l-0.403,0.806l-0.05,1.007l-0.454,1.207l-0.251,1.359l0.302,1.058l-1.158,0.401
			l-1.157-0.101l-0.805-0.503l-0.554-1.107l-0.654-1.358l-0.805-0.201l-0.553-0.906l-0.252-0.805l-0.604-0.957l-0.654-0.401
			l-0.855-0.201l-0.453,0.755v1.006l0.554,1.207l0.805,1.209l0.855,0.905l0.956,1.66l1.007,1.208l0.754,1.208l1.51,1.206l0.855,1.31
			l0.755,1.107c0,0,0.906,1.105,1.057,1.207s0.855,0.201,1.006,0.151c0.151-0.052,0.805-0.755,0.805-0.755l0.503-0.856v-0.854
			l-0.352-0.78l-0.654-0.83l-0.956-0.353l0.654-0.201l1.258-0.15l1.409-0.051l0.855-0.251l0.654-0.705v-0.906l-0.302-1.307
			l-0.629-1.008v-1.107l-0.327-0.805l0.855-1.106l0.755-1.007h0.855l1.057,0.806l0.755,1.106l0.906,1.259
			c0,0,1.309,0.604,1.509,0.653c0.201,0.05,1.409-0.201,1.409-0.201l0.755-0.653l0.503-0.856l-0.101-1.057l-0.201-1.207l0.05-0.956
			l0.906,0.101l1.51,0.603l0.956,0.555l1.158-0.151l0.906-0.653l0.604-0.655l0.403-0.453l0.453-0.352l1.157,0.05v0.957l-0.654,0.855
			l-0.956,0.704l-1.107,0.554l-0.855,0.402l-0.101,1.157l0.05,0.956l-0.151,0.653l-0.352,0.302l-0.554,0.102l-0.101,0.654v0.755
			l0.655,0.352l0.704,0.654l0.402,0.856v0.653l-0.754,0.353h-0.957l-0.503-0.604l-0.352-0.806v-0.955l-0.352-0.403l-1.409,0.251
			l-1.107,0.354l-0.101,1.157l-0.05,1.157l1.057,0.553l1.056-0.101l0.906,0.327l-1.046,0.246l-0.413,0.534l-0.906,0.352
			c0,0-1.056-0.05-1.208,0c-0.151,0.052-0.855,0.454-0.855,0.454l-0.553,1.358l-0.554,0.956h-2.063h-1.057l-1.107-0.604
			l-1.056,0.302l-0.755,1.107l-0.654,1.408l0.101,1.611l0.906,1.258l0.956,1.761l2.164,1.007l1.158,0.905l1.207,1.208l1.158,1.358
			l1.208,1.057l1.006,0.855l-0.705,0.453l-0.906,0.452h-1.409l-1.56-0.251l-0.805-0.704l-0.906-1.157l-0.705-1.41l-0.654-1.307
			l-0.705-1.007l-1.459-1.409l-1.661-2.013l-1.308-1.762l-1.661-2.063l-1.409-2.265l-1.258-1.86l-1.61-1.561l-1.208-1.46
			l-1.309-1.56l-0.553-1.811l-0.755-1.661l-0.654-1.258l-0.856-1.309l-0.604-1.56c0,0-0.805-0.604-0.855-0.755
			c-0.05-0.151-0.202-1.007-0.202-1.007v-1.057l0.453-1.309v-0.754l0.604,0.101l1.157,0.906l0.805,1.308l1.107,0.905l1.157-0.049
			l1.007,0.553l0.654,0.955l1.006,1.008l1.107,0.955l1.208,0.403l0.956-1.008l0.704-1.156v-1.107l0.252-1.006l0.553-1.057
			l0.957-0.906L50.325,205l1.107-0.628l0.402-0.63l1.258-0.25l0.957-0.202l1.61,0.554v1.609L55.055,205.554z M57.018,216.019h-1.459
			l-1.309,0.403l0.353,0.855l0.151,1.057c0,0-0.151,0.604-0.151,0.756c0,0.149,0.101,0.805,0.101,0.805h1.107h1.208l0.402-1.259
			l0.202-1.057v-0.905L57.018,216.019z M56.564,221.605h-1.257l-0.654,0.654v0.856l0.956,0.251v0.754l0.956,0.504h1.057l0.654-1.509
			v-0.956l-0.855-0.555H56.564z"/>
		<polygon fill="#FFFFFF" points="86.455,230.06 84.694,230.513 83.487,231.57 82.178,232.324 80.468,233.482 79.209,233.985 
			78.152,234.69 76.391,235.596 74.68,236.35 73.02,236.652 72.366,237.004 72.668,237.458 73.473,237.458 74.379,237.809 
			74.53,238.766 74.53,239.873 74.58,241.13 74.329,242.338 73.775,243.294 72.919,244.25 72.618,245.005 73.372,245.76 
			73.976,246.212 74.63,247.37 75.083,248.477 75.838,249.082 76.794,248.578 77.297,247.723 77.197,246.616 77.7,246.063 
			78.605,245.507 79.662,245.358 80.467,244.955 80.467,243.847 79.763,243.446 78.907,243.395 78.253,243.244 77.851,242.541 
			77.499,241.332 77.046,240.326 76.492,239.368 76.341,238.313 77.297,237.407 78.253,237.507 79.511,237.156 80.769,236.955 
			82.178,236.652 83.537,236.2 84.996,235.445 86.254,234.891 87.763,234.238 88.569,233.683 88.569,232.828 88.82,231.822 
			88.418,230.413 		"/>
		<polygon fill="#FFFFFF" points="92.091,249.433 92.091,249.786 89.524,250.038 87.915,250.038 86.052,249.736 84.996,249.433 
			84.744,247.974 84.996,246.212 84.744,244.501 85.046,243.244 86.304,242.338 87.813,241.684 89.273,240.626 90.582,239.57 
			92.091,238.715 93.601,237.558 95.01,237.306 95.965,237.659 95.664,238.363 95.06,239.119 94.506,239.57 94.305,240.225 
			94.154,241.181 94.154,241.936 94.909,242.541 95.767,242.581 95.965,243.093 96.167,244.25 95.613,245.005 94.557,245.709 
			93.802,245.507 92.745,244.602 92.343,243.671 91.336,243.244 90.456,243.143 89.273,243.093 88.216,243.446 87.512,244.1 
			87.009,245.408 86.808,246.212 86.808,247.168 87.311,248.075 87.965,248.829 89.072,249.082 90.456,249.082 		"/>
		<path fill="#FFFFFF" d="M116.078,241.323l-1.47-1.753l-2.206,0.365l-1.144,1.388v1.309l1.226,1.04l1.185,0.431h1.675l0.735,0.652
			v0.98l-1.307,0.653l-1.633,0.817l-0.899,0.735l-0.98,1.141h-1.389l-0.735,0.956v1.334v1.799l0.327,1.471l0.653,1.062h1.389
			l1.103-1.634l0.776-1.798l1.143-0.98l0.572-1.253l0.98-0.956l1.634-0.568l1.389,0.082l1.47-0.082l0.409,1.063v1.144l-0.409,1.143
			l-1.225,0.736l-1.389,0.082l-1.471,0.408l-1.062,0.163l-0.368,1.471l-0.449,0.98l0.449,0.49l0.613,0.98v1.144l-0.245,1.062
			l-1.471,0.49l-2.042,0.572h-1.308l-1.47-0.816l-1.144-0.654l-0.898-0.163l-1.144,0.245l-0.98,1.389v1.063l0.572,0.572l1.144,0.408
			c0,0,0.98,0.164,1.226,0s1.593-0.072,1.593-0.072l0.276,1.211l0.582,0.087l0.996-0.21l0.291-0.949l1.328-0.884l1.634-0.245
			l1.308,0.245l0.98,0.572l0.245,0.98l-0.164,1.143l-0.816,0.409l-1.145,0.409l-0.536,0.081l-0.935,0.016l-0.153,0.152l0,0
			l0.398,0.241l1.145,0.49l0.571,0.403l0.138,0.582v0.949l1.252,0.107l0.898-0.654l0.245-1.307l-0.163-0.816l0.49-0.98l0.49-1.063
			l0.245-1.063l1.307-0.081l1.389,0.49l1.389-0.164l1.471-0.081l1.062-0.98l0.98-0.817v-1.308l-1.145-0.653h-1.388l-0.899,0.572
			l-1.226,0.49l-1.716-0.082l-1.879-0.081l-0.327-1.308l0.735-0.98l0.898-1.634c0,0,0.654-1.39,0.899-1.39s1.226-1.225,1.226-1.225
			l1.307-1.063l1.226-0.816l0.49-1.172l-0.083-2.179l-0.653-1.144l-0.899-0.49l-0.49-0.408l-0.164-1.144l0.572-1.002h1.143
			l1.063-1.04l1.878-0.49l0.785-0.474l-0.294-0.589l-0.98-0.653l-1.226-0.164l-1.062,0.409l-0.245-0.49l-1.062-0.61l-1.226,0.691
			l-0.327,0.899l-0.327,0.898l-0.98,0.163l-1.307,0.163l-1.716-0.49L116.078,241.323z"/>
		<path fill="#FFFFFF" d="M146.917,243.493l-0.12,1.117l-0.757,1.236l-0.399,1.077l-0.719,0.918l-0.438,1.076l-0.12,1.038
			l0.877,0.278l0.799-0.438l0.877-0.878l0.479-0.917l0.719-1.077l0.079-0.958l0.32-0.956l0.957-0.399h1.395l0.16,0.718l0.479,1.077
			l1.393-0.274l0.841-0.324l0.279-1.156l0.798-0.638l1.597-0.479l1.834,0.28l1.277,0.717l-0.041,1.517l-0.159,1.396l0.021,0.994
			l0.978,0.123l1.276,0.358l1.556,0.718l1.476,1.077l0.398,1.477l0.598,1.436l0.36,2.433v2.195l-0.319,2.033l-0.44,1.477
			l-0.479,1.516l-0.877,0.997l-1.036,1.077l-1.157,0.719c0,0-1.396,0.158-1.596,0.158s-1.197-0.158-1.197-0.158l-1.116-0.16
			l-1.076-0.199l-0.719-0.439l-1.037-0.479l-0.719-0.599l-0.278-0.359v-0.717l-0.358-0.679l-0.64-0.599l-0.637-0.318l-0.56,0.359
			l-0.239,0.957v1.276l-0.278,0.917l-0.839,0.279l-0.796,0.519l-0.719,0.678l-0.719,0.599h-1.196H145.6l-0.877-0.2l-0.958-0.877
			l-0.679-0.678l-0.499-0.758l-0.458-0.438l-0.838,0.438l-0.678-0.16l-0.519-0.797l-0.758-0.877l-0.559-0.799l0.24-0.359
			l0.638-0.678l0.24-1.396l-0.24-1.037l0.575-0.808l0.861-0.23c0,0,0.758-0.718,0.791-0.757c0.033-0.04,0.844-0.918,0.844-0.918
			l0.238-0.957l-0.238-0.936l-0.844-0.262l-0.791,0.262l-0.519-0.262v-0.679l0.239-1.076l0.519-1.596l0.552-1.356l0.476-1.037
			l0.648-1.316l0.638-1.116l0.439-1.077l0.638-1.077l0.759-0.678l1.156,0.278L146.917,243.493z M155.852,248.958v-0.678L155.255,248
			l-1.138,0.2l-0.978,0.318l-0.519,0.438v0.719l0.559,0.737l0.558,0.738h0.919l0.358-0.679l0.599-0.797L155.852,248.958z
			 M153.737,252.667l-1.116,0.638l-0.997,0.581l-1.117,0.775v0.998l0.719,0.318l0.079,0.877l-0.439,0.719
			c0,0-0.479,0.798-0.358,0.918c0.12,0.119,0.479,0.797,0.479,0.797l0.758,0.918h0.878h1.615l0.42-0.678l0.278-1.237l-0.278-1.037
			l-0.42-0.319l-0.379-0.498l0.039-0.777l0.34-1.077v-1.038l-0.299-0.877 M147.076,255.699l-0.916-0.358l-0.799,0.598l-0.639,1.037
			v0.799l-0.479,0.598l-0.837,0.798l-0.639,0.797l-0.409,0.878v1.077v0.839l0.607,0.358l0.919-0.16l0.833,0.479l0.803,0.438
			l0.558,0.719l0.998,0.438l0.398-0.718l-0.022-1.474l-0.016-1.877v-2.194l0.038-1.715v-1.077L147.076,255.699z M159.761,250.554
			l-0.479,0.598v0.638l-0.399,0.479h-0.717l-0.52,0.399l0.44,0.917l0.877,0.302l0.797,0.615l0.199,0.839v1.097v1.815v1.235
			l-0.159,0.719l-0.479,0.519h-0.839h-0.837l-0.358,0.239l-0.598,0.719v0.438h0.916l0.719,0.559l0.439,0.479l0.878,0.639
			l1.076-0.358l0.837-0.719l0.32-0.878l0.317-0.638l0.52-0.199c0,0-0.079-0.838,0-0.997c0.079-0.16,0-1.077,0-1.077l0.036-0.957
			l0.442-0.479l0.36-1.057l-0.24-0.459l-0.399-0.399l0.12-0.957l0.079-0.735l-0.12-1.219l-0.599-0.878l-0.757-0.638l-0.957-0.598
			H159.761z"/>
		<path fill="#FFFFFF" d="M180.743,240.141l0.2,1.077l-0.119,1.397l0.278,1.155l0.599,1.192l0.798,0.922l0.438,0.958l0.558,0.916
			l0.439,1.197c0,0,0.08,0.878,0.08,0.998c0,0.119,0.438,0.957,0.438,0.957l0.04,0.877l0.519,0.16l0.599-0.878l0.159-1.595
			l-0.04-1.995l0.04-1.276l-0.638-0.957l-0.719-0.559l-0.757-0.958l-0.479-1.595l-0.161-1.676l0.36-1.516l0.837-1.356l0.878-1.276
			l1.276-1.476l1.156-0.957l1.197-0.958l1.276-0.797l2.313-0.519l0.918-0.28h1.235l1.316,0.359l0.838,0.917l-0.12,1.356
			l-0.238,1.396l-0.279,1.836l-0.398,0.479l-0.199,1.037l0.118,1.875l-0.358,1.116l0.278,0.919l0.479,0.837l0.958,0.359h0.917
			l1.077,0.438l0.2,1.077c0,0-0.08,1.118-0.08,1.355c0,0.239,0.12,1.118,0.12,1.118l0.717,0.957l0.918,0.374l0.957-0.414
			c0,0,0.639,1.038,0.719,1.157c0.079,0.12,0,1.116,0,1.116l-0.36,1.157c0,0-0.877,0.199-1.036,0.319s-0.399,0.678-0.399,0.678
			l-0.717,0.678l-1.038,0.24l-1.077,0.799l-0.757,0.558l-1.037-0.558l-0.239-0.919v-0.798l-0.2-0.878v-0.638l-0.719-0.119
			l-1.195,0.199l-0.718,0.04l-0.639-0.56l-0.318-0.837l0.238-1.222l0.24-0.853l0.438-0.678l0.719-0.52l0.438-0.837l-0.239-0.798
			c0,0-0.757-0.52-0.877-0.52s-0.878-0.358-0.878-0.358l-0.758,0.439l-0.798,0.957l-0.877,1.315l-0.679,1.038l-0.519,1.236
			l-0.718,0.798l-0.68,0.917l-0.317,1.077l-0.12,1.276v1.238l0.479,0.597l0.199,1.117v1.236l-1.476,0.718h-0.957l-0.758-0.479
			l-0.199-0.838l-0.52-1.195l-0.319-1.156l-0.717-1.039l-1.157-1.036l-1.157-0.559h-1.116l-0.798-0.679l-0.719-0.758l-0.279-0.997
			l0.358-1.116l1.357-0.56h0.996l0.76-0.479v-0.797v-0.758l-0.281-0.599l-0.837-0.399l-1.136,0.319l-0.18,0.519l-0.319,0.638
			l-0.798-0.238l-0.399-0.479v-0.919l0.32-0.996l0.438-1.077v-0.838l-0.238-0.479l0.717-1.197c0,0,0.958-0.678,1.077-0.678
			c0.12,0,1.237,0.278,1.355,0.319L180.743,240.141z M193.329,234.318l-0.579,0.358l-0.718,0.759l0.399,0.957l0.877,0.758
			l0.978-0.639l0.338-0.758l-0.678-0.837L193.329,234.318z M189.518,236.91h-1.036l-0.797,0.479v1.077l0.559,0.877l0.837,0.598
			h1.077l0.639-0.558l0.238-0.798v-0.758l-0.238-0.678h-0.798L189.518,236.91z"/>
		<path fill="#FFFFFF" d="M208.028,221.711l-1.476,0.2l-1.156,0.519l-0.599,0.957l-0.479,1.515l0.599,0.719l0.678,0.918l1.118-0.239
			l1.076-0.679l1.157-0.199l1.156-0.878l0.599-0.837l0.678,0.159l0.318,0.758l0.439,0.997l0.479,0.918v1.077l0.439,1.396
			l0.159,1.556l0.239,1.276v1.077v1.355v1.717l0.599,1.115l0.638,0.759h1.276l0.837-0.559v-1.157l0.32-0.678l0.957-0.12l0.598,0.36
			l0.639,0.758l0.479,0.599l0.916,0.398l1.038-0.36v-1.355v-0.957l0.479-0.399l0.917-0.079l0.64-0.971l-0.16-0.585l-0.399-1.197
			l-0.559-0.479l-0.599-0.558l-0.079-1.077l0.278-0.878l0.759-0.24h0.838h0.997l0.679,0.479l0.637,0.799l0.877,0.599l0.64-0.159
			l0.798-0.28l0.518-0.838v-0.917l0.52-0.638l0.997,0.12l1.356-0.399c0,0,0.599-0.758,0.878-0.719
			c0.279,0.04,1.119-0.014,1.119-0.014l0.116-1.103l-0.159-1.076l-0.798-0.799l-0.798-0.877l-0.878-0.799l-1.077-0.757l-0.917-0.798
			l-0.278-0.559l0.159-0.997l0.199-1.118l-0.598-0.637l-0.799-0.758l-1.197,0.118l-1.036,0.24l-0.719-0.599l-0.518-1.077
			l-0.359-0.957h-0.559l-0.719,0.079l-0.797,0.279l-0.199,1.077l-0.103,1.262l-0.097,0.255l0.798,0.598l0.638,0.479l0.479,1.156
			v1.436l-0.398,0.998l-1.077-0.279l-0.798-1.117L220.634,219l-0.758-1.355l-0.519-1.676l-0.32-1.597l0.32-1.276v-1.235l0.857-1.277
			l0.498-0.918l0.32-1.275l-0.818-1.037l-0.857-0.559l-0.679,0.279l-0.917,0.399l-0.917,0.318l0.04,0.958l0.199,0.916l0.119,1.038
			l-0.238,1.037l-0.24,1.117l-0.279,0.878l-0.719,0.916l-0.438,0.719l0.159,0.479l0.599,0.599l0.918,0.399l0.878,0.199l0.836,0.637
			l0.758,1.158l0.42,0.76l0.358,0.677l0.618,0.877l0.639,0.479l0.279,1.276l0.279,0.917l-0.678,0.519l-1.138,0.279l-0.857,0.079
			l-0.519,0.679l0.119,1.038l-0.279,1.196v0.798l-0.278,1.156l-0.719,0.399h-1.036l-0.878-0.679l-0.479-0.798l-0.559-1.236
			l-0.639-0.957l-0.158-1.157l-0.12-1.236l-0.08-1.575l0.159-1.417l0.399-1.515l-0.08-1.197l-0.678-1.396l-1.197-0.199l-1.396,0.24
			l-0.678,0.717l-0.319,1.158l-0.398,1.355l-0.56,0.599l-0.479,0.638L208.028,221.711z M229.091,222.151l0.678,0.518l0.518,1.397
			l-1.076,0.558l-0.837-0.159l-0.32,1.156l-0.836-0.199l-0.799-0.438l-0.041-0.958l-0.558-0.758l0.239-0.757l0.917-1.037
			l0.878-0.319l0.758,0.638L229.091,222.151z M220.992,231.804l0.599,0.558l0.16,0.738l-0.798,0.459l-0.758,0.519l-0.239,0.559
			l-1.277-0.398v-0.998l0.758-0.878l0.759-0.798L220.992,231.804z"/>
		<path fill="#FFFFFF" d="M245.277,189.404l1.258,1.419l0.974,0.854l0.852,0.933l1.055,0.852l0.853,0.569h1.014l0.325,0.974
			l0.244,0.974v1.056l-0.244,1.095l-0.974,0.568h-1.055l-1.015-0.771l-1.136-0.975l-0.731-0.649l-0.689-0.567l-0.487,0.041
			l-0.771,0.364l-0.567,0.527l-0.771,0.244l-0.567-0.447l-0.568-1.095v-0.812l0.527-1.055l-0.527-1.016l-0.853-0.364l-1.015,0.122
			l-0.567,0.648l-0.473,0.641l0.188,0.515l-0.567,1.198l-0.933,0.648l-0.935,0.082l-0.405-1.259v-1.258l0.324-1.216l0.112-1.073
			l-0.273-0.713l0.324-1.055l0.811-0.893l0.528-1.542l-0.365-0.813h-0.974l-0.974,0.203l-0.73,0.609l-0.974,0.933l-0.853,0.974
			l-0.527,0.935l-0.284,1.095l-0.244,0.974l-0.608-0.568l-0.608-0.608l-0.486-0.649l-0.203-0.974l0.122-0.812l-0.325-0.446
			l-0.567-0.161l-1.137,0.242l-0.243,1.055l-0.284,0.771l-0.771,0.69l-1.016,0.649l-0.648,0.648v1.096l0.729,0.527l0.771,0.243
			l1.056-0.364c0,0,0.69,0,0.812,0c0.122,0,1.177-0.447,1.177-0.447l-0.081-0.729h0.73h0.771l0.933,0.385l0.162,0.548l-0.527,0.486
			l-0.446,0.935l-0.406,0.974l-0.283,0.812l-0.853,0.811l-1.096,0.771l-1.217,0.405l-0.325,0.934l0.081,1.015l0.731,0.974
			c0,0,0.811,0.732,0.932,0.813c0.122,0.08,1.38,1.014,1.38,1.014l0.853,1.056c0,0,0.812,0.81,0.934,0.892s0.893,0.69,0.893,0.69
			l0.446-0.527c0,0,0.122-1.136,0-1.177c-0.121-0.042-0.243-1.219-0.243-1.219v-1.135l-0.244-1.097l-0.405-1.784l-0.04-1.137
			l-0.203-0.812l0.487-0.568l0.852-0.243c0,0,1.015,0.204,1.136,0.204s1.056,0.161,1.056,0.161l0.162,0.894l-0.081,1.054l0.04,1.219
			l0.324,1.419l0.528,1.258l0.284,0.813l0.527,1.055l0.669,0.689l0.742-0.288c0,0-0.032-0.767-0.032-0.889s0.041-0.73,0.041-0.73
			s0.202-0.649,0.324-0.649s1.137-0.324,1.137-0.324l0.894,0.324l-0.082,0.935l-0.041,0.892l-0.405,1.177l-0.041,1.137l0.163,0.933
			l-0.244,0.974l-0.405,0.935l-0.487,0.771l0.163,0.812l0.648,0.365h0.771l0.934-0.447l0.242-1.095l0.487-1.096
			c0,0,0.122-1.055,0.122-1.177s-0.162-1.421-0.162-1.421l0.445-0.323l0.853,0.039h0.853l0.284,0.528l0.121,0.794v1.154l0.041,1.054
			l0.203,0.975l0.649,0.365l0.811,0.04l1.097-0.122l0.933-0.203l0.73-0.445l-0.041-0.812l-0.405-0.975l-0.771-1.031l-0.608-0.552
			l-0.608-1.135l-1.136-1.015l-1.056-0.853l-0.527-0.729l-0.081-1.056l0.203-1.014l0.812-0.528l0.812,0.041l0.648,0.608l0.528,0.975
			l0.568,0.852l0.771,0.852l0.893,0.081l1.218-0.445l0.892-1.055l1.056-1.461l0.608-1.583l0.608-1.502v-1.541v-1.016v-1.5
			l0.203-0.813l-0.364-1.014l-0.935,0.04l-0.892,0.244l-0.771,0.04l-0.933-0.487l-1.34-0.486l-1.014-0.446l-1.421-0.65l-1.014-0.161
			l-0.731-0.081H245.277z"/>
		<path fill="#FFFFFF" d="M266.341,161.859l-1.015,0.531l-0.531,1.11l-0.483,1.305v1.256l0.073,1.691l-0.062,1.37l-0.012,1.092
			l-0.209,1.522l-0.227,0.701c0,0-0.293,0.127-0.34-0.113c-0.049-0.242-0.305-1.546-0.305-1.546l-0.272-1.191l-0.387-1.448
			l-0.241-1.741l-0.193-2.075l0.29-1.498l-0.29-1.209l-0.676-0.579h-1.256l-1.159,0.193l-1.257-0.387l-1.256-0.387l-1.014-0.337
			h-0.966l-0.629,0.677l-1.015,0.819v0.967l0.58,0.678l0.579,1.063l0.725,1.206c0,0,0.726,0.436,0.869,0.436
			c0.146,0,1.305-0.049,1.305-0.049l1.305-0.29l0.773,0.436l0.869,1.159l0.387,1.208l-0.242,0.773l-0.677,0.676l-1.014,0.627
			l-1.015-0.24l-1.019-0.16l-1.292-0.012l-0.807,0.99l-0.555,1.065l0.58,0.627l1.042,0.028l0.849,0.152l0.797,0.617l0.356,0.748
			l-0.049,0.772h-1.207l-0.965,0.388l-0.823,0.628h-1.353l-1.353-0.29l-1.739-1.016l-1.11-1.063l-1.305-0.966l-1.352-0.869
			l-1.209-0.869l-1.159-0.726l-1.159,0.05l-1.003,0.337l-1.285,0.109l-1.24-0.37l-0.239-0.608l0.387-0.627l0.435-0.822l0.097-1.497
			l0.241-1.208l-0.093-1.138l-0.148-1.423l0.145-1.352l0.068-1.155l0.124-1.443l-0.24-1.701l-0.436-1.932l-0.241-1.739l0.29-1.015
			l0.628-0.436h1.207h0.919l0.579,0.966v0.822l-0.482,0.966l-0.05,1.305c0,0,0.098,1.255,0.146,1.399
			c0.048,0.146,0.146,1.643,0.146,1.643l0.191,1.305l0.145,1.353l0.193,0.58l0.29,0.967l-0.097,0.82l1.159,0.339l0.676-0.579
			l0.47-0.955l0.593-0.107h0.773l0.531,0.627c0,0,0.917,0.146,1.159,0c0.242-0.145,0.821-0.87,0.725-1.015s-0.29-1.257-0.29-1.257
			l-0.772-1.063l-0.772-0.53l-0.918-0.049l-0.637-0.372l-0.196-0.523l-0.042-0.608l0.489-0.96l0.53-0.724l0.725-0.629l0.918,0.146
			l0.69,0.054l0.71-0.054l0.869,0.048l0.243-0.966l-0.243-0.917l-0.047-0.968l0.097-0.579l0.917-0.29h1.546l0.387,0.29l0.482,0.725
			l-0.193,0.58l-0.048,1.111v1.159l0.531,0.58l0.967,0.869l0.966,0.145l1.207-0.145l1.449,0.338l1.208,0.145l1.159,0.436
			l1.063,0.048h1.063l0.871,0.193l0.192,0.726l0.391,0.157l0.334-0.11l0.725,0.339l0.241,0.627l0.242,0.483V161.859z
			 M250.472,167.468l-0.914-0.283l-0.61-0.217l-0.565,0.5l-0.458,0.677l0.175,0.675l0.543,0.588l0.458,0.347l0.479,0.437l0.741,0.37
			l0.893-0.153l0.565-0.588l0.283-0.608l-0.413-0.448l-0.413-0.489l-0.523-0.521L250.472,167.468z"/>
	</g>
</g>
<g>
</g>
<g>
</g>
<g>
</g>
<g>
</g>
<g>
</g>
<g>
</g>
</svg>
