<?xml version="1.0" encoding="utf-8"?>
<!-- Generator: Adobe Illustrator 16.0.0, SVG Export Plug-In . SVG Version: 6.00 Build 0)  -->
<!DOCTYPE svg PUBLIC "-//W3C//DTD SVG 1.1//EN" "http://www.w3.org/Graphics/SVG/1.1/DTD/svg11.dtd">
<svg version="1.1" id="图层_1" xmlns="http://www.w3.org/2000/svg" xmlns:xlink="http://www.w3.org/1999/xlink" x="0px" y="0px"
	 width="3401.574px" height="396.85px" viewBox="0 0 3401.574 396.85" enable-background="new 0 0 3401.574 396.85"
	 xml:space="preserve">
<rect x="0" y="-0.252" fill="#3C4486" width="3401.574" height="396.849"/>
<g>
	<g>
		<g>
			<g>
				<g>
					<g>
						<g>
							<g>
								<defs>
									<rect id="SVGID_1_" x="155.681" y="66.117" width="240.941" height="240.941"/>
								</defs>
								<clipPath id="SVGID_2_">
									<use xlink:href="#SVGID_1_"  overflow="visible"/>
								</clipPath>
								<g clip-path="url(#SVGID_2_)">
									
										<ellipse id="outer" fill="none" stroke="#FFFFFF" stroke-width="2.4" stroke-miterlimit="10" cx="276.617" cy="187.252" rx="117.315" ry="117.16"/>
									<path id="thick" fill="#FFFFFF" d="M354.556,188.219c0,43.645-34.859,79.022-77.863,79.022
										c-43.001,0-77.859-35.383-77.859-79.023c0-43.646,34.858-79.024,77.859-79.024
										C319.696,109.196,354.556,144.575,354.556,188.219z M276.42,74.046c-62.36,0-112.921,50.653-112.921,113.141
										c0,62.48,50.562,113.137,112.921,113.137c62.362,0,112.922-50.651,112.922-113.137
										C389.342,124.699,338.783,74.046,276.42,74.046z"/>
									<circle fill="#FFFFFF" cx="276.42" cy="187.522" r="4.974"/>
									<path fill="#FFFFFF" d="M293.029,197.632c-14.792,32.082-37.591,63.74-50.22,58.167
										c-12.211-5.391,0.706-48.857,13.345-75.667c13.913-29.508,38.473-65.417,51.146-60.421
										C320.073,124.747,308.444,164.197,293.029,197.632z M305.598,122.908c-8.749-3.667-34.376,32.809-46.394,58.188
										c-9.607,20.313-25.782,66.563-14.998,71.665c10.275,4.86,33.519-28.93,46.358-56.498
										C304.624,166.102,315.303,126.979,305.598,122.908z"/>
									<path fill="#FFFFFF" d="M294.079,178.489c21.448,31.438,35.091,63.408,24.001,71.624
										c-11.646,8.635-42.286-27.051-57.896-48.88c-14.59-20.401-36.257-65.96-25.496-74.287
										C245.909,118.263,269.869,143.004,294.079,178.489z M236.647,129.241c-9.129,6.274,12.284,51.859,25.937,69.854
										c14.316,18.874,43.711,54.918,53.605,48.26c9.435-6.348-7.876-42.011-24.539-67.454
										C270.512,147.623,244.764,123.659,236.647,129.241z"/>
									<path fill="#FFFFFF" d="M276.911,174.386l2.574-10.505c0,0-26.813,2.396-42.5,6.72
										c-20.989,5.78-26.07,10.503-28.802,12.604c-1.659,1.273-4.813,4-4.813,8.874c0,5.687,3.985,8.541,6.394,9.856
										c5.813,3.197,11.598,5.068,18.472,5.976c9.193,1.208,17.184,1.438,21.806,1.563c7.882,0.209,21.401-0.227,21.401-0.227
										l0.126-2.973c0,0,2.015-0.064-21.979,0.156c-5.521,0.054-18.354-1.021-21.316-1.544c-7.257-1.286-9.965-2.083-15.451-5.036
										c-1.64-0.879-4.157-3.729-3.958-6.674c0.14-2.062,2.099-4.139,4.652-5.409c8.264-4.115,15.777-5.75,24.856-7.5
										C266.57,174.835,276.911,174.386,276.911,174.386z"/>
									<polygon fill="#FFFFFF" points="290.247,163.353 277.039,215.564 287.328,215.564 300.191,163.353 									"/>
									<path fill="#FFFFFF" d="M296.64,174.577c0,0,14.488,0.051,30.625,1.457c14.664,1.274,16.066,5.755,16.25,6.876
										c1.13,7.039-15.119,13.153-18.957,14.231c-26.207,7.37-35.393,7.434-35.393,7.434v3.516c0,0,13.457-1.104,24.83-3.792
										c11.742-2.776,20.634-6.636,24.728-9.167c3.125-1.938,11.104-6.255,11.106-14.304c0-6.258-6.604-11.677-16.931-13.813
										c-21.987-4.544-32.713-3.665-32.713-3.665L296.64,174.577z"/>
								</g>
							</g>
						</g>
					</g>
				</g>
			</g>
		</g>
	</g>
</g>
<g>
	<g>
		<path fill="#3C4486" d="M189.523,136.314l0.911-0.479l0.91-0.479l0.952-0.604l0.521-0.778l-0.347-1.084l-1.176-0.781l-1.084-0.912
			l-0.647-0.479l-0.955-0.778l-0.605-0.778l-0.998-0.737l-0.261-1.779v-1.952l0.305-1.26l1.521-0.434h1.521l1.306,0.648
			c0,0,1.345,1.129,1.475,1.215c0.131,0.09,0.911,0.78,0.911,0.78l0.912-0.131l1.214-1.909l1.041-1.563l1.085-1.865l0.998-0.607
			l1.214,0.219l1.044,1.174l0.352,1.475l-0.266,1.172l-0.349,1.259l-0.347,1.217l0.087,1.173l0.998,0.39l1.259-0.39h1.172
			l0.694,0.733l-0.521,1.263l-0.823,1.082l-0.604,1.217l0.305,1.346l1.041,1.348l1.128,1.82l1.866,2.216l1.478,1.563l1.085,1.214
			l-0.219,0.605l-0.82,0.22h-1.175l-0.95-0.245l-1.351-0.319l-1.646-0.91l-1.131-0.848l-1.085-0.761l-1.086-0.521l-0.82-0.262
			l-0.651,0.78l-0.69,0.999l-0.437,1.301l-1.433,0.392l-1.307,0.394l-1.476-0.174l-0.892-0.02l-0.762-0.594l-1.042-1.215
			l-0.998-1.128l-0.437-1.521L189.523,136.314z M196.031,127.115l-0.348,0.979l0.26,0.674l0.78,0.693l1.063,0.26l1.063-0.433v-0.825
			v-1.349l-0.563-0.647h-0.823h-0.734L196.031,127.115z M194.774,134.926l-0.694,0.652v0.906l0.999,0.694l0.823,0.479l1.041-0.221
			v-0.735v-1.083l-0.39-0.563l-0.868-0.436L194.774,134.926z"/>
		<path fill="#3C4486" d="M219.573,99.54l1.37-1.787l1.849-1.966l2.084-1.97l2.146-1.313h2.382l2.025,1.371l2.563,3.335l2.502,3.636
			l1.967,3.335l0.714,1.966v4.109h-1.485l-1.85-0.535l-1.188-0.18l-1.017,1.369l-1.485,0.062l-0.479,0.714l-1.313,0.355v1.551
			l-3.156,0.417l-1.312,1.311h-1.435l-0.654-1.132l-1.069-1.313l-1.131-2.023l-0.303-2.741l-0.596-1.428l-1.549-2.8l-0.299-2.383
			L219.573,99.54z M235.896,106.526l-0.356-1.085l-0.297-1.016l-1.133-0.505l-1.189,0.863l-0.063,1.431h-0.595l-0.6,1.432
			l0.298,1.487h0.6l1.37-1.25l1.604-0.237L235.896,106.526z M228.449,110.68l-0.597-0.3l-0.655-1.25l-0.179-0.896l-0.715-1.013
			l-0.063-1.192l-0.061-1.13l-1.136-0.234l-1.903,0.416v1.188l0.354,0.253v1.062l1.018,1.251l0.771,1.188l1.313,1.786h1.846v-1.13
			L228.449,110.68L228.449,110.68z M225.055,101.208l0.417-1.606l0.715-0.479l1.188,0.3l0.119,1.313l0.237,1.125l0.625,0.301
			l0.656,0.896v1.605v1.856h0.804l0.536-1.563l0.18-1.433l-0.12-1.012l0.063-0.833l0.954-0.299h1.366l0.356-0.774l-1.014-1.485
			l-0.774-1.434l-1.013-1.369l-0.6-1.012l-1.786-0.354l-1.133,0.95l-1.043,0.773h-1.277l-0.6,1.549l-0.354,1.549l0.714,1.609
			L225.055,101.208z"/>
		<path fill="#3C4486" d="M270.951,79.735V80.5v0.871l-0.327,0.649l-0.396,0.399l-0.618,0.105l-0.604-0.105l-0.739,0.184
			l-0.547,0.326l-0.579,0.545l-0.438,0.729l-0.146,0.688l0.473,0.689l0.944,0.476l0.544-0.185l0.485-0.146l0.456-0.289l0.768-0.146
			l0.798,0.291l0.036,0.835l-0.146,1.09l-0.436,0.907l-0.545,0.438h-0.767l-0.511,0.291l-0.617,0.618l-0.396,0.51L267.894,91
			l0.581,0.359L269,91.69l0.456-0.328l0.476-0.509l0.904-0.311l0.766,0.418l0.545,0.437l0.219,0.872l0.183,0.652l0.653,0.327
			l1.271,0.069l0.615-0.105l0.108-0.545l0.146-0.729l-0.221-0.291l-0.51-0.067l-0.727,0.181l-0.618-0.438l-0.326-0.777
			c0,0-0.362-0.781-0.362-0.894c0-0.105,0.106-1.019,0.106-1.019l0.036-1.019l0.183-0.728l-0.071-0.979l-0.615-0.477l-0.257-0.729
			l0.185-0.766l0.907-0.509h1.125l1.02,0.036l0.615-0.187l0.071-0.832l0.393-1.233l0.405-0.546l0.729-0.546h1.162l0.728,0.397
			l0.291,0.689l0.108,1.054l-0.036,0.979l0.036,1.125l-0.184,1.417l0.255,0.581l0.763,0.836l0.69,0.729l0.146,0.907
			c0,0,0.072,0.94,0,1.161c-0.073,0.218,0,1.127,0,1.127l-0.218,0.979l-0.292,1.058l-0.583,0.871l-0.544,0.942l-0.438,1.021
			l-0.474,1.271l-0.184,1.125l-0.186,1.815l-0.51,1.271v1.197h-0.689l-0.585-0.979l-0.402-0.834l-0.57-0.688l-0.581-0.581
			l-0.474-0.655l-0.146-0.727l-0.255-1.091l-0.218-0.615v-0.767l-0.399-0.51v-0.291l-0.51,0.072l-1.055,0.106l-0.729-0.186
			l-0.509-0.472l-0.617-0.22l-0.105,0.688l-0.185,1.234l-0.072,1.125l-0.069,1.018l-0.291,1.021l-0.653,0.255l-0.396-0.222h-0.768
			h-0.907h-1.126h-1.16h-0.854l-0.817-0.547l-0.291-1.089l0.222-1.23l0.617-1.313l0.581-0.939l0.325-1.057l-0.105-1.054
			l-0.362-0.979l0.438-0.326l0.396-0.834l0.107-1.271l-0.071-1.091l-0.29-0.489c0,0-0.873,0.235-0.98,0.235
			c-0.106,0-0.764,0.688-0.764,0.688l-0.979,0.834l-0.766,1.125l-0.765,1.271l-0.438,1.053l0.801,0.655l1.019-0.146l0.689-0.762
			l0.94-0.438l-0.07,1.125l-0.688,0.729l-1.02,1.09l-1.271,0.835l-1.563,0.478h-1.417l-0.511-0.548V94.25l0.398-0.98l0.87-1.381
			l0.651-0.906l0.873-1.485l0.688-0.803l0.907-1.125l0.51-1.126l0.727-1.016l1.126-1.49l1.453-2.435l1.743-2.542l1.636-0.582
			l2.473,0.396L270.951,79.735z M276.11,87.073l-0.873-0.291h-0.836l-0.581,0.581l0.291,0.873l0.692,0.327h1.229l0.245-0.979
			L276.11,87.073z"/>
		<polygon fill="#3C4486" points="307.64,90.159 306.441,90.54 305.423,90.159 305.169,89.07 305.496,88.198 306.15,88.198 
			306.658,87.871 306.805,87.472 307.458,87.289 308.257,87.289 308.839,87.727 308.839,88.452 308.839,89.07 308.329,89.216 
			307.93,89.578 		"/>
		<path fill="#3C4486" d="M314.033,86.491l0.979,0.473l0.941,0.327l1.088,0.36l1.417,0.327l0.907,0.185l0.399,0.509v0.8
			l-0.186,0.834l-0.475,0.234l-0.834,0.348l-1.055-0.073l-0.801-0.271h-1.127h-0.65l-0.655-0.271l-0.582,0.581l-0.217,0.729
			l-0.037,0.65l0.763,0.397l0.979-0.254l0.94-0.071l0.834,0.325l0.654,0.618l0.255,1.231l0.146,1.021l-0.26,0.941l-0.582,0.943
			h-0.799l-0.619,0.438l-0.726,0.613l-0.364,0.804l-0.219,0.727l-0.292,0.763l-0.941,0.438l-0.07,0.618l1.521,0.146h1.312
			l1.195,0.107l0.835,0.069l0.363,0.581l0.186,0.729l-0.186,0.834l-0.727,0.396l-1.09,0.108l-0.834-0.108l-0.907-0.182l-0.655-0.364
			l-1.016-0.034l-0.69,0.58c0,0-0.254,0.691-0.254,0.837c0,0.146-0.108,0.871-0.108,0.871s-0.358,0.801-0.396,0.943
			c-0.035,0.146-0.942,0.872-0.942,0.872l-1.017,0.579l-1.163,0.329l-0.871-0.292l-0.688-0.688l-0.943-0.799l-0.618-0.834
			l-0.361-0.764l0.361-0.872l-0.293-0.799l-0.618-0.326h-1.016l-0.511-0.186l-0.653-0.834l-0.254-0.905l0.291-1.058l0.688-0.358
			l0.979,0.217l0.396,0.51h1.162h1.234l1.854,0.325h1.021l0.289-0.36l0.146-0.65c0,0,0.219-1.163,0.219-1.312
			c0-0.146-0.068-0.655-0.068-0.655l0.146-0.867l0.581-0.766l1.234-0.327l0.941-0.324l0.834-0.4l0.584-0.473l0.396-0.767
			l-0.185-0.728l-0.58-0.438L313,93.393l-0.942-0.185l-0.979,0.292l-0.938,0.764l-0.944,0.979l-0.782,0.979l-0.563,1.126
			l-0.689,1.162l-0.798,0.799h-1.197l-0.871-0.619l-0.619-0.797l-0.437-1.231l0.184-1.489l0.438-0.942l0.396-1.089h1.093
			l1.231-0.185l1.089-0.581l1.021-0.689l1.563-0.835l0.765-0.475l0.729-1.195l0.324-0.801l-0.289-0.582l-0.476-0.689V86.13
			l0.8-0.438l1.485,0.222L314.033,86.491z M309.092,103.455l-1.271,0.219l-0.399,0.728l0.478,0.803l0.688,0.615h0.729l0.437-0.799
			l-0.219-0.872l-0.437-0.474v-0.22H309.092L309.092,103.455z"/>
		<path fill="#3C4486" d="M351.781,114.432l1.528-0.222l1.476,0.222l1.313-0.222c0,0,0.271-1.419,0-1.477
			c-0.273-0.054-0.932-0.929-0.932-0.929L354,111.263h-1.018l-0.981,0.817l-0.219,1.092L351.781,114.432L351.781,114.432z"/>
		<polygon fill="#3C4486" points="357.623,117.161 357.187,118.799 356.218,120.163 355.33,121.364 353.475,121.364 352.273,120.82 
			351.781,120.055 351.781,118.906 352.983,118.906 353.42,118.307 353.693,117.161 353.42,116.452 352.656,116.452 
			351.781,116.179 352.656,115.852 354.457,115.852 355.985,115.852 357.076,116.287 		"/>
		<polygon fill="#3C4486" points="340.428,108.592 342.339,109.086 343.373,109.086 343.373,109.627 343.157,110.337 342.72,110.72 
			342.118,110.72 342.174,111.648 341.902,112.301 341.029,112.301 340.153,111.266 339.553,110.72 338.518,110.775 
			337.152,111.813 335.458,113.34 334.422,114.214 333.932,115.251 333.603,116.071 332.458,116.888 331.582,117.599 
			331.582,118.906 331.803,121.364 332.458,122.183 333.768,121.745 334.587,120.709 335.077,119.781 336.498,119.673 
			337.479,118.855 337.917,117.051 338.19,115.852 338.953,114.867 339.99,113.831 341.192,113.884 341.245,114.759 341.52,116.071 
			342.501,115.852 343.373,115.389 344.141,115.389 343.867,116.124 344.141,117.489 344.958,117.872 345.448,117.926 
			345.448,118.364 345.448,119.346 344.468,119.781 343.484,119.947 342.883,120.163 342.992,120.872 343.048,121.803 
			343.812,121.856 343.976,122.456 343.649,123.058 342.501,123.058 340.865,123.058 339.61,123.058 339.335,124.149 
			339.553,124.967 340.208,125.513 340.865,125.513 342.011,125.513 342.065,125.897 341.245,126.933 340.537,127.697 
			340.809,129.334 340.973,130.373 342.065,131.462 343.266,131.847 344.468,131.847 345.448,132.72 346.651,133.648 
			347.961,134.03 349.161,134.03 349.981,133.103 349.707,131.792 349.599,130.373 349.653,128.843 349.653,127.808 348.67,127.808 
			348.123,128.681 347.414,129.551 346.378,130.154 345.013,130.264 343.594,129.662 342.61,128.573 342.556,127.531 
			343.157,126.823 344.249,126.224 344.193,125.241 344.085,124.258 344.958,124.202 346.651,124.149 347.852,124.039 
			347.852,122.948 347.523,122.238 346.595,122.128 345.886,121.364 346.051,121.093 347.688,121.093 348.615,120.983 
			348.999,120.274 348.999,119.237 348.451,118.962 347.906,118.607 347.906,117.872 348.288,116.888 349.108,116.944 
			350.472,116.563 350.744,115.852 350.417,115.196 349.818,115.196 349.599,114.432 349.818,113.34 349.762,112.194 
			348.781,112.139 347.797,112.465 347.196,113.394 346.542,114.05 345.941,114.432 344.851,114.432 343.759,113.884 
			344.031,112.849 344.468,111.266 345.121,110.72 346.431,110.72 347.089,110.119 347.361,109.086 347.142,107.716 346.16,107.499 
			344.249,107.499 342.282,107.825 340.755,107.825 		"/>
		<path fill="#3C4486" d="M194.145,213.411"/>
		<path fill="#3C4486" d="M191.986,213.411l-0.677,1.043l-0.938,0.887l-1.512,0.471h-1.042l-0.78,0.729h-1.875l-1.197-1.563
			l-0.625-1.563l-0.36-0.889v-0.777l-1.25-0.264l-0.834,0.416l-0.889,0.938l0.889,1.042l0.521,0.783l0.417,0.884l-0.104,0.989
			l-0.625,0.679l-0.936,0.21l-1.423-0.065l-1.211-0.075l-0.864-0.293l-1.021-1.095l-0.785,0.137l-0.521,0.585l-0.305,0.647
			l-0.119,1.236l0.356,1.053l0.601,0.356l0.904,0.45l0.943,0.287h1.193l1.669-0.096l1.721,0.096l0.569,0.104l0.696,0.195
			l0.813,0.063l1.271,0.083l1.172,0.178l1.042,0.729l0.78,0.729l0.781,0.781l0.779,0.729l0.78,0.678l0.521,0.572l0.832,0.729
			l0.361,0.677l0.572,0.781h0.833h1.013c0,0,0.914,0.363,0.971,0c0.053-0.365,0.416-0.781,0.416-0.781v-1.041v-1.354l-0.313-0.678
			l-0.417-0.832l-0.417-0.364l-0.729,0.313l-1.098,0.572l-0.886-0.471l-1.042-0.887l-0.99-0.938l-0.984-0.68l-0.156-0.882
			l1.095-0.631l1.042-0.263l0.988-0.574l0.99-0.776l0.938-0.891l0.596-1.038v-1.614l-0.544-0.474h-1.042h-0.57v0.01L191.986,213.411
			L191.986,213.411z"/>
		<path fill="#3C4486" d="M184.33,225.444"/>
		<path fill="#3C4486" d="M182.594,226.647l-0.746,0.271l-1.165,0.65l-0.418,0.911v1.148v1.283l0.146,1.191l0.402,1.148l0.355,0.446
			l0.674-0.063h0.744l0.492,0.255l0.479,0.447l0.553,0.267l0.39-0.672l0.556-0.761l0.189-0.837c0,0-0.09-0.655-0.104-0.7
			c-0.018-0.045-0.237-0.537-0.283-0.646c-0.043-0.104-0.192-0.61-0.192-0.61l0.283-0.521l0.389-0.673l0.184-0.807l-0.063-0.775
			l-0.398-0.688l-0.394-0.565l-0.536-0.146l-0.489,0.226l-0.646,0.209h-0.403L182.594,226.647L182.594,226.647L182.594,226.647z"/>
		<path fill="#3C4486" d="M202.479,240.839l-0.94,0.17h-1.198l-0.644,0.302l-0.086,0.981l-0.127,0.687l-0.813,0.476l-0.686,0.3
			l-0.599,0.515l-0.09,0.729l-0.17,0.598l-0.344,0.688l-0.043,0.854l-0.387,1.026l-0.213,1.151l0.256,0.896l-0.983,0.341
			l-0.979-0.086l-0.688-0.43l-0.472-0.938l-0.556-1.155l-0.688-0.171l-0.471-0.771l-0.214-0.688l-0.518-0.813l-0.557-0.339
			l-0.729-0.171l-0.386,0.644v0.854l0.473,1.023l0.688,1.025l0.728,0.771l0.813,1.411l0.854,1.024l0.644,1.023l1.283,1.021
			l0.727,1.111l0.646,0.94c0,0,0.771,0.938,0.896,1.023c0.125,0.087,0.729,0.172,0.854,0.129c0.127-0.047,0.685-0.646,0.685-0.646
			l0.429-0.728v-0.729l-0.3-0.663l-0.557-0.705l-0.813-0.3l0.56-0.171l1.065-0.127l1.196-0.045l0.729-0.213l0.559-0.604V251.3
			l-0.256-1.111l-0.534-0.854v-0.939l-0.278-0.687l0.729-0.938l0.642-0.854h0.729l0.896,0.686l0.646,0.938l0.771,1.064
			c0,0,1.111,0.52,1.281,0.562c0.171,0.042,1.198-0.172,1.198-0.172l0.641-0.561l0.43-0.727l-0.086-0.899l-0.171-1.021l0.042-0.813
			l0.771,0.086l1.28,0.519l0.813,0.472l0.983-0.126l0.771-0.557l0.515-0.562l0.346-0.386l0.385-0.299l0.98,0.042v0.813l-0.558,0.729
			l-0.813,0.599l-0.94,0.471l-0.729,0.347l-0.086,0.979l0.042,0.813l-0.129,0.554l-0.3,0.258l-0.472,0.087l-0.086,0.56v0.645
			l0.558,0.299l0.603,0.562l0.342,0.727v0.56l-0.645,0.301h-0.813l-0.427-0.517l-0.303-0.688v-0.813l-0.3-0.343l-1.198,0.213
			l-0.938,0.305l-0.086,0.979l-0.042,0.982l0.896,0.471l0.896-0.085l0.771,0.271l-0.892,0.214l-0.353,0.449l-0.771,0.304
			c0,0-0.897-0.042-1.026,0c-0.128,0.046-0.729,0.388-0.729,0.388l-0.471,1.151l-0.474,0.813h-1.754h-0.896l-0.939-0.515
			l-0.896,0.258l-0.646,0.938l-0.557,1.196l0.086,1.37l0.771,1.066l0.813,1.493l1.84,0.856l0.982,0.77l1.023,1.025l0.981,1.153
			l1.025,0.896l0.854,0.729l-0.603,0.386l-0.771,0.384h-1.197l-1.325-0.214l-0.686-0.598l-0.771-0.983l-0.602-1.194l-0.558-1.11
			l-0.603-0.855l-1.238-1.193l-1.412-1.711l-1.107-1.498l-1.412-1.754l-1.198-1.929l-1.066-1.581l-1.366-1.323l-1.026-1.239
			l-1.11-1.326l-0.472-1.539l-0.643-1.412l-0.559-1.065l-0.729-1.111l-0.516-1.326c0,0-0.688-0.517-0.729-0.644
			c-0.043-0.132-0.171-0.854-0.171-0.854V242.2l0.385-1.111v-0.646l0.517,0.085l0.979,0.771l0.688,1.11l0.938,0.771l0.981-0.042
			l0.854,0.471l0.559,0.813l0.854,0.854l0.939,0.813l1.023,0.344l0.813-0.854l0.601-0.979v-0.938l0.215-0.854l0.472-0.896
			l0.813-0.771l0.604-0.771l0.938-0.53l0.342-0.535l1.068-0.214l0.813-0.172l1.368,0.474v1.363L202.479,240.839z M204.147,249.734
			h-1.239l-1.112,0.346l0.305,0.729l0.128,0.896c0,0-0.128,0.514-0.128,0.646c0,0.126,0.085,0.688,0.085,0.688h0.938h1.026
			l0.342-1.069l0.172-0.897V250.3L204.147,249.734z M203.761,254.482h-1.068l-0.556,0.561v0.729l0.812,0.213v0.646l0.813,0.429
			h0.896l0.557-1.281v-0.813l-0.729-0.477h-0.726L203.761,254.482L203.761,254.482z"/>
		<polygon fill="#3C4486" points="229.167,261.667 227.671,262.052 226.645,262.951 225.532,263.592 224.079,264.575 
			223.009,265.003 222.111,265.602 220.615,266.374 219.159,267.013 217.748,267.272 217.192,267.572 217.448,267.957 
			218.134,267.957 218.903,268.254 219.031,269.07 219.031,270.009 219.073,271.078 218.861,272.106 218.391,272.918 
			217.661,273.731 217.406,274.371 218.047,275.012 218.561,275.399 219.116,276.382 219.501,277.323 220.144,277.836 
			220.955,277.407 221.383,276.681 221.299,275.74 221.727,275.272 222.495,274.798 223.394,274.67 224.078,274.329 
			224.078,273.386 223.48,273.046 222.751,273.002 222.196,272.873 221.855,272.278 221.555,271.249 221.17,270.393 220.699,269.58 
			220.571,268.682 221.383,267.912 222.196,267.999 223.266,267.699 224.335,267.53 225.532,267.272 226.687,266.887 
			227.928,266.244 228.996,265.777 230.281,265.218 230.965,264.748 230.965,264.021 231.178,263.164 230.836,261.968 		"/>
		<polygon fill="#3C4486" points="233.957,278.134 233.957,278.434 231.777,278.651 230.408,278.651 228.825,278.391 
			227.928,278.134 227.714,276.896 227.928,275.399 227.714,273.945 227.97,272.873 229.039,272.106 230.322,271.548 
			231.563,270.651 232.676,269.751 233.957,269.026 235.242,268.041 236.44,267.827 237.251,268.127 236.995,268.724 
			236.482,269.367 236.011,269.751 235.841,270.307 235.712,271.121 235.712,271.761 236.354,272.278 237.082,272.313 
			237.251,272.747 237.423,273.731 236.952,274.371 236.055,274.968 235.412,274.798 234.514,274.03 234.173,273.239 
			233.317,272.873 232.569,272.788 231.563,272.747 230.664,273.046 230.067,273.601 229.64,274.713 229.468,275.399 
			229.468,276.209 229.896,276.982 230.45,277.622 231.393,277.836 232.569,277.836 		"/>
		<path fill="#3C4486" d="M254.347,271.241l-1.249-1.49l-1.875,0.313l-0.978,1.184v1.109l1.042,0.883l1.008,0.367h1.428l0.625,0.559
			v0.832l-1.11,0.555l-1.388,0.694l-0.769,0.624l-0.834,0.971h-1.182l-0.624,0.813v1.139v1.524l0.277,1.252l0.555,0.899h1.181
			l0.938-1.389l0.66-1.528l0.971-0.832l0.485-1.063l0.832-0.813l1.391-0.48l1.182,0.068l1.25-0.068l0.353,0.901v0.975l-0.353,0.976
			l-1.041,0.626l-1.182,0.066l-1.25,0.349l-0.901,0.141l-0.313,1.25l-0.382,0.833l0.382,0.415l0.521,0.832v0.978l-0.208,0.899
			l-1.25,0.418l-1.731,0.484h-1.111l-1.25-0.692l-0.972-0.556l-0.769-0.144l-0.973,0.209l-0.833,1.184v0.903l0.486,0.481
			l0.973,0.348c0,0,0.833,0.144,1.042,0c0.209-0.141,1.354-0.062,1.354-0.062l0.234,1.029l0.494,0.07l0.849-0.181l0.246-0.807
			l1.13-0.751l1.393-0.21l1.108,0.21l0.833,0.48l0.209,0.833l-0.142,0.976l-0.692,0.349l-0.975,0.35l-0.456,0.066l-0.795,0.015
			l-0.129,0.13l0,0l0.337,0.205l0.976,0.416l0.483,0.346l0.118,0.491v0.811l1.063,0.09l0.767-0.556l0.208-1.111l-0.143-0.691
			l0.418-0.832l0.416-0.9l0.209-0.903l1.109-0.065l1.182,0.416l1.185-0.143l1.25-0.065l0.899-0.833l0.833-0.691v-1.112l-0.975-0.554
			h-1.182l-0.767,0.484l-1.043,0.415l-1.457-0.066l-1.6-0.069l-0.277-1.107l0.625-0.832l0.766-1.396c0,0,0.558-1.181,0.767-1.181
			s1.042-1.042,1.042-1.042l1.11-0.903l1.042-0.689l0.417-0.996l-0.069-1.854l-0.558-0.971l-0.767-0.417l-0.416-0.35l-0.142-0.977
			l0.483-0.854h0.975l0.9-0.885l1.6-0.417l0.667-0.399l-0.25-0.502l-0.834-0.558l-1.042-0.142l-0.902,0.351l-0.207-0.417
			l-0.902-0.521l-1.042,0.587l-0.274,0.766l-0.275,0.768l-0.834,0.139l-1.107,0.14l-1.461-0.415L254.347,271.241z"/>
		<path fill="#3C4486" d="M280.56,273.086l-0.104,0.948l-0.646,1.051l-0.338,0.917l-0.611,0.775l-0.372,0.915l-0.104,0.885
			l0.745,0.232l0.682-0.372l0.746-0.745l0.404-0.776l0.61-0.914l0.065-0.815l0.271-0.812l0.813-0.341h1.188l0.136,0.604l0.406,0.916
			l1.188-0.229l0.715-0.274l0.232-0.981l0.683-0.542l1.354-0.403l1.563,0.232l1.085,0.608l-0.034,1.291l-0.135,1.188l0.019,0.849
			l0.831,0.104l1.085,0.31l1.321,0.604l1.256,0.916l0.338,1.255l0.509,1.227l0.31,2.063v1.866l-0.271,1.729l-0.372,1.26
			l-0.407,1.286l-0.741,0.85l-0.884,0.915l-0.979,0.609c0,0-1.188,0.137-1.356,0.137s-1.018-0.137-1.018-0.137l-0.949-0.14
			l-0.914-0.169l-0.607-0.372l-0.885-0.404l-0.607-0.512l-0.234-0.305v-0.608l-0.306-0.578l-0.544-0.511l-0.541-0.271l-0.479,0.306
			l-0.203,0.813v1.086l-0.232,0.774l-0.712,0.236l-0.681,0.438l-0.608,0.575l-0.61,0.513h-1.018h-1.155l-0.745-0.173l-0.813-0.742
			l-0.579-0.576l-0.423-0.646l-0.394-0.373l-0.713,0.373l-0.575-0.138l-0.438-0.677l-0.646-0.745l-0.476-0.684l0.205-0.307
			l0.542-0.574l0.203-1.188l-0.203-0.882l0.485-0.688l0.731-0.192c0,0,0.645-0.609,0.672-0.646c0.026-0.033,0.719-0.778,0.719-0.778
			l0.202-0.813l-0.202-0.796l-0.719-0.227l-0.672,0.227l-0.44-0.227v-0.577l0.203-0.911l0.439-1.356l0.47-1.149l0.403-0.883
			l0.552-1.118l0.543-0.944l0.372-0.916l0.542-0.913l0.646-0.578l0.982,0.237L280.56,273.086z M288.156,277.733v-0.577l-0.509-0.233
			l-0.967,0.17l-0.832,0.271l-0.441,0.373v0.609l0.478,0.624l0.478,0.628h0.782l0.304-0.577l0.511-0.679L288.156,277.733z
			 M286.357,280.884l-0.947,0.541l-0.849,0.494l-0.949,0.659v0.848l0.613,0.271l0.063,0.746l-0.373,0.608
			c0,0-0.402,0.681-0.305,0.781c0.103,0.101,0.407,0.678,0.407,0.678l0.646,0.781h0.746h1.372l0.357-0.578l0.231-1.051l-0.231-0.885
			l-0.357-0.271l-0.32-0.423l0.032-0.661l0.288-0.914v-0.883l-0.254-0.745 M280.696,283.46l-0.778-0.307l-0.68,0.512l-0.543,0.881
			v0.68l-0.407,0.511l-0.712,0.684l-0.543,0.677l-0.349,0.747v0.915v0.713l0.516,0.305l0.782-0.137l0.708,0.406l0.683,0.373
			l0.479,0.608l0.849,0.371l0.338-0.607l-0.019-1.253L281,287.94v-1.861l0.032-1.458v-0.915L280.696,283.46z M291.479,279.089
			l-0.407,0.507v0.544l-0.339,0.406h-0.608l-0.438,0.34l0.373,0.78l0.746,0.256l0.678,0.521l0.169,0.718v0.932v1.544v1.048
			l-0.135,0.612l-0.408,0.438h-0.712h-0.711l-0.308,0.203l-0.509,0.609v0.373h0.778l0.606,0.478l0.374,0.404l0.746,0.544
			l0.913-0.305l0.714-0.61l0.271-0.744l0.271-0.543l0.439-0.171c0,0-0.065-0.712,0-0.847c0.065-0.14,0-0.916,0-0.916l0.031-0.813
			l0.376-0.403l0.304-0.899l-0.202-0.391l-0.339-0.341l0.102-0.813l0.067-0.625l-0.104-1.035l-0.511-0.745l-0.646-0.546
			l-0.813-0.507L291.479,279.089L291.479,279.089L291.479,279.089z"/>
		<path fill="#3C4486" d="M309.312,270.238l0.17,0.917l-0.104,1.188l0.235,0.979l0.509,1.018l0.684,0.783l0.373,0.813l0.474,0.779
			l0.373,1.018c0,0,0.064,0.747,0.064,0.854c0,0.102,0.372,0.813,0.372,0.813l0.033,0.746l0.441,0.137l0.508-0.742l0.137-1.355
			l-0.034-1.695l0.034-1.085l-0.544-0.813l-0.606-0.479l-0.646-0.813l-0.408-1.355l-0.137-1.424l0.306-1.29l0.712-1.15l0.745-1.086
			l1.086-1.255l0.98-0.813l1.018-0.813l1.086-0.679l1.971-0.438l0.775-0.236h1.052l1.116,0.304l0.712,0.78l-0.104,1.146
			l-0.202,1.188l-0.234,1.561l-0.339,0.408l-0.17,0.881l0.104,1.6l-0.309,0.942l0.235,0.781l0.408,0.712l0.813,0.307h0.78
			l0.914,0.369l0.17,0.915c0,0-0.065,0.951-0.065,1.152c0,0.203,0.104,0.949,0.104,0.949l0.61,0.813l0.775,0.319l0.813-0.354
			c0,0,0.543,0.887,0.607,0.981c0.067,0.104,0,0.948,0,0.948l-0.308,0.979c0,0-0.744,0.169-0.88,0.271
			c-0.136,0.102-0.338,0.577-0.338,0.577l-0.609,0.571l-0.882,0.204l-0.916,0.684l-0.646,0.475l-0.882-0.475l-0.203-0.78v-0.679
			l-0.17-0.746v-0.544l-0.607-0.104l-1.02,0.168l-0.606,0.035l-0.544-0.477l-0.271-0.713l0.202-1.037l0.204-0.729l0.371-0.573
			l0.607-0.438l0.373-0.712l-0.203-0.683c0,0-0.645-0.438-0.743-0.438c-0.104,0-0.746-0.307-0.746-0.307l-0.646,0.372l-0.68,0.813
			l-0.746,1.117l-0.577,0.882l-0.438,1.049l-0.611,0.682l-0.578,0.777l-0.269,0.915l-0.104,1.085v1.054l0.407,0.512l0.169,0.945
			v1.054l-1.255,0.605h-0.813l-0.646-0.406l-0.168-0.713l-0.444-1.016l-0.271-0.981l-0.608-0.885l-0.982-0.881l-0.979-0.477h-0.948
			l-0.679-0.576l-0.612-0.646l-0.232-0.847l0.306-0.949l1.152-0.476h0.848l0.646-0.408v-0.678v-0.646l-0.235-0.51l-0.712-0.338
			l-0.968,0.271l-0.151,0.44l-0.271,0.542l-0.679-0.201l-0.34-0.407v-0.774l0.271-0.853l0.371-0.917v-0.712l-0.2-0.404l0.608-1.021
			c0,0,0.813-0.575,0.916-0.575c0.104,0,1.05,0.234,1.15,0.271L309.312,270.238z M320.011,265.286l-0.493,0.305l-0.609,0.646
			l0.339,0.813l0.746,0.646l0.83-0.542l0.287-0.646l-0.576-0.712L320.011,265.286z M316.771,267.49h-0.88l-0.681,0.407v0.917
			l0.479,0.743l0.711,0.51h0.916l0.543-0.477l0.203-0.678v-0.646l-0.203-0.575h-0.678L316.771,267.49z"/>
		<path fill="#3C4486" d="M332.504,254.573l-1.253,0.174l-0.979,0.438l-0.514,0.813l-0.403,1.286l0.508,0.608l0.578,0.778l0.949-0.2
			l0.914-0.578l0.979-0.169l0.982-0.746l0.509-0.712l0.576,0.135l0.271,0.646l0.372,0.849l0.406,0.778v0.915l0.374,1.188l0.134,1.32
			l0.204,1.085v0.916v1.15v1.46l0.51,0.943l0.544,0.646h1.083l0.711-0.477v-0.981l0.271-0.577l0.813-0.102l0.513,0.306l0.545,0.646
			l0.401,0.51l0.777,0.34l0.884-0.311v-1.146v-0.813l0.407-0.342l0.779-0.063l0.544-0.824l-0.141-0.498l-0.338-1.021l-0.478-0.402
			l-0.509-0.479l-0.068-0.915l0.238-0.747l0.645-0.198h0.712h0.853l0.577,0.402l0.542,0.684l0.741,0.511l0.544-0.137l0.683-0.236
			l0.438-0.713v-0.779l0.442-0.542l0.849,0.104l1.15-0.341c0,0,0.512-0.646,0.747-0.608c0.233,0.033,0.951-0.017,0.951-0.017
			l0.1-0.938l-0.136-0.915L353.76,256l-0.683-0.745l-0.746-0.68l-0.916-0.646l-0.774-0.68l-0.237-0.479l0.136-0.848l0.169-0.95
			l-0.508-0.542l-0.682-0.646l-1.021,0.103l-0.881,0.202l-0.609-0.509l-0.438-0.917l-0.305-0.813h-0.479l-0.606,0.065l-0.682,0.233
			l-0.17,0.915l-0.089,1.072l-0.082,0.219l0.678,0.511l0.545,0.404l0.406,0.981v1.222l-0.338,0.854l-0.915-0.237l-0.68-0.947
			l-0.646-0.882l-0.645-1.15l-0.439-1.425l-0.271-1.354l0.271-1.084v-1.054l0.729-1.087l0.423-0.776l0.271-1.082l-0.691-0.881
			l-0.729-0.479l-0.579,0.235l-0.773,0.34l-0.781,0.271l0.034,0.813l0.17,0.778l0.102,0.881l-0.201,0.883l-0.2,0.949l-0.237,0.745
			l-0.61,0.775l-0.372,0.61l0.139,0.407l0.509,0.511l0.779,0.34l0.744,0.168l0.712,0.542l0.646,0.982l0.355,0.646l0.306,0.575
			l0.523,0.743l0.543,0.406l0.235,1.082l0.236,0.778l-0.576,0.442l-0.969,0.231l-0.729,0.066l-0.438,0.577l0.102,0.883l-0.232,1.016
			v0.683l-0.234,0.979l-0.61,0.341h-0.881l-0.755-0.569l-0.407-0.682l-0.476-1.05l-0.544-0.813l-0.133-0.981l-0.104-1.051
			l-0.063-1.34l0.137-1.203l0.338-1.288l-0.067-1.021l-0.574-1.188l-1.021-0.169l-1.187,0.204l-0.576,0.604l-0.271,0.984
			l-0.338,1.146l-0.477,0.514l-0.408,0.543L332.504,254.573z M350.407,254.946l0.577,0.442l0.438,1.188l-0.915,0.476l-0.712-0.136
			l-0.271,0.979l-0.711-0.168l-0.683-0.373l-0.032-0.813l-0.478-0.646l0.202-0.645l0.78-0.881l0.745-0.271l0.646,0.543
			L350.407,254.946z M343.523,263.153l0.51,0.478l0.137,0.627l-0.681,0.391l-0.644,0.441l-0.204,0.478l-1.084-0.341v-0.848
			l0.645-0.747l0.646-0.678L343.523,263.153z"/>
		<path fill="#3C4486" d="M364.165,227.112l1.068,1.206l0.829,0.729l0.726,0.793l0.896,0.728l0.727,0.48h0.86l0.271,0.829
			l0.208,0.827v0.896l-0.208,0.932l-0.823,0.482h-0.897l-0.862-0.655l-0.966-0.83l-0.621-0.551l-0.585-0.479l-0.414,0.031
			l-0.65,0.313l-0.481,0.447l-0.653,0.207l-0.479-0.384l-0.483-0.931v-0.688l0.447-0.896l-0.447-0.865l-0.726-0.312l-0.862,0.104
			l-0.479,0.554l-0.403,0.546l0.161,0.438l-0.48,1.021l-0.794,0.55l-0.796,0.069l-0.343-1.069v-1.068l0.271-1.032l0.098-0.908
			l-0.23-0.605l0.275-0.896l0.688-0.764l0.446-1.312l-0.309-0.69h-0.829l-0.828,0.177l-0.621,0.518l-0.829,0.794l-0.725,0.828
			l-0.447,0.796l-0.241,0.932l-0.207,0.83l-0.517-0.48l-0.521-0.521l-0.413-0.552l-0.173-0.828l0.104-0.688l-0.274-0.381
			l-0.479-0.141l-0.97,0.205l-0.208,0.896l-0.237,0.652l-0.655,0.586l-0.863,0.556l-0.551,0.55v0.934l0.619,0.446l0.656,0.207
			l0.896-0.313c0,0,0.586,0,0.69,0c0.104,0,1-0.38,1-0.38l-0.067-0.618h0.618h0.655l0.794,0.327l0.139,0.469l-0.447,0.409
			l-0.379,0.797l-0.346,0.826l-0.24,0.689l-0.727,0.688l-0.936,0.655l-1.03,0.345l-0.276,0.795l0.069,0.86l0.621,0.828
			c0,0,0.688,0.622,0.793,0.691c0.104,0.063,1.173,0.858,1.173,0.858l0.727,0.896c0,0,0.689,0.688,0.794,0.758
			c0.105,0.07,0.76,0.588,0.76,0.588l0.384-0.447c0,0,0.104-0.966,0-1c-0.104-0.037-0.207-1.038-0.207-1.038v-0.965l-0.208-0.934
			l-0.348-1.521l-0.039-0.965l-0.173-0.688l0.415-0.479l0.729-0.208c0,0,0.859,0.175,0.967,0.175c0.103,0,0.896,0.141,0.896,0.141
			l0.142,0.76l-0.068,0.896l0.033,1.035l0.272,1.206l0.446,1.066l0.241,0.688l0.448,0.896l0.564,0.584l0.631-0.242
			c0,0-0.023-0.651-0.023-0.758c0-0.104,0.035-0.617,0.035-0.617s0.171-0.555,0.271-0.555c0.104,0,0.969-0.272,0.969-0.272
			l0.763,0.272l-0.07,0.795l-0.034,0.762l-0.345,1l-0.034,0.967l0.144,0.793l-0.208,0.828l-0.349,0.796l-0.413,0.654l0.144,0.689
			l0.549,0.313h0.656l0.794-0.381l0.206-0.931l0.414-0.937c0,0,0.104-0.896,0.104-1.001c0-0.104-0.139-1.208-0.139-1.208
			l0.378-0.271l0.727,0.029h0.729l0.24,0.448l0.104,0.676v0.979l0.035,0.896l0.172,0.829l0.552,0.313l0.689,0.035l0.933-0.104
			l0.794-0.173l0.618-0.378l-0.034-0.69l-0.344-0.827l-0.655-0.877l-0.517-0.47l-0.52-0.968l-0.966-0.86l-0.896-0.727l-0.447-0.619
			l-0.067-0.896l0.173-0.859l0.688-0.447l0.69,0.035l0.551,0.518l0.449,0.83l0.479,0.728l0.655,0.725l0.759,0.068l1.036-0.379
			l0.759-0.896l0.896-1.242l0.518-1.348l0.519-1.274v-1.311v-0.861v-1.271l0.175-0.692l-0.313-0.86l-0.795,0.034l-0.76,0.208
			l-0.654,0.032l-0.793-0.414l-1.14-0.411l-0.862-0.381l-1.207-0.553l-0.861-0.141l-0.621-0.065h-0.45v-0.013h-0.012v-0.002h-0.008
			v-0.006L364.165,227.112L364.165,227.112z"/>
		<path fill="#3C4486" d="M382.071,203.698l-0.862,0.452l-0.45,0.939l-0.406,1.111v1.063l0.063,1.438l-0.055,1.166l-0.01,0.928
			l-0.182,1.293l-0.189,0.599c0,0-0.25,0.105-0.29-0.099c-0.041-0.203-0.26-1.313-0.26-1.313l-0.231-1.013l-0.328-1.229
			l-0.205-1.479l-0.163-1.766l0.247-1.271l-0.247-1.028L377.93,203h-1.067l-0.984,0.165l-1.064-0.329l-1.067-0.329l-0.858-0.286
			h-0.82l-0.535,0.575l-0.862,0.691v0.821l0.492,0.577l0.493,0.902l0.616,1.021c0,0,0.618,0.37,0.735,0.37
			c0.125,0,1.108-0.042,1.108-0.042l1.109-0.245l0.653,0.371l0.736,0.983l0.329,1.022l-0.206,0.656l-0.574,0.574l-0.858,0.53
			l-0.862-0.202l-0.867-0.14l-1.098-0.01l-0.688,0.841l-0.472,0.904l0.493,0.533l0.886,0.021l0.723,0.128l0.682,0.524l0.303,0.635
			l-0.042,0.656h-1.026l-0.814,0.331l-0.699,0.531h-1.151l-1.146-0.244l-1.479-0.863l-0.938-0.904l-1.109-0.816l-1.148-0.737
			l-1.023-0.739l-0.984-0.613l-0.981,0.043L361,211.194l-1.093,0.096l-1.056-0.313l-0.2-0.519l0.328-0.53l0.369-0.699l0.082-1.271
			l0.203-1.023l-0.078-0.97l-0.125-1.21l0.125-1.148l0.06-0.979l0.104-1.229l-0.203-1.442l-0.371-1.646l-0.201-1.479l0.244-0.861
			l0.532-0.371h1.024h0.781l0.49,0.82v0.694l-0.407,0.82l-0.043,1.109c0,0,0.082,1.063,0.123,1.188s0.125,1.396,0.125,1.396
			l0.159,1.104l0.125,1.151l0.161,0.492l0.247,0.817l-0.083,0.695l0.985,0.289l0.574-0.491l0.396-0.813l0.505-0.092h0.656
			l0.451,0.528c0,0,0.779,0.125,0.985,0c0.204-0.123,0.691-0.735,0.61-0.858c-0.082-0.124-0.244-1.067-0.244-1.067l-0.652-0.904
			l-0.656-0.446l-0.78-0.041l-0.541-0.314l-0.166-0.443l-0.036-0.518l0.417-0.814l0.448-0.611l0.617-0.534l0.78,0.124l0.587,0.046
			l0.604-0.046l0.737,0.038l0.207-0.818l-0.207-0.779l-0.04-0.819l0.083-0.49l0.779-0.246h1.313l0.329,0.246l0.409,0.613
			l-0.164,0.493l-0.042,0.94v0.984l0.45,0.493l0.823,0.734l0.815,0.123l1.026-0.123l1.229,0.286l1.025,0.125l0.984,0.37l0.897,0.041
			h0.903l0.74,0.162l0.162,0.618l0.333,0.135l0.28-0.095l0.616,0.287l0.204,0.53l0.205,0.409v0.534h0.01L382.071,203.698
			L382.071,203.698z M368.582,208.466l-0.772-0.239l-0.521-0.187l-0.479,0.426l-0.394,0.574l0.147,0.57l0.462,0.5l0.391,0.3
			l0.408,0.368l0.628,0.313l0.761-0.132l0.479-0.5l0.241-0.521l-0.354-0.38l-0.352-0.416l-0.443-0.438L368.582,208.466z"/>
	</g>
</g>
<g>
	<path fill="#FFFFFF" stroke="#FFFFFF" stroke-miterlimit="10" d="M1343.468,162.96h39.354c2.913,2.921,2.913,5.104,0,6.563h-21.866
		c0,11.667-1.095,22.604-3.275,32.805h12.023c8.016,0,11.659,3.646,10.937,10.933v53.574c0.726,8.747-2.555,12.752-9.839,12.021
		h-10.938c-6.561,0.729-9.841-2.923-9.841-10.935v-44.826c-2.186,5.833-5.104,10.934-8.747,15.308
		c-3.646,0.733-5.466-0.729-5.466-4.374c12.387-16.758,18.587-38.266,18.587-64.506h-10.934
		C1341.277,167.333,1341.277,165.147,1343.468,162.96z M1367.517,208.88h-4.373c-4.375,0-6.563,2.188-6.563,6.563v50.293
		c0,5.104,1.818,7.286,5.472,6.563h6.561c4.374,0.729,6.192-1.828,5.468-7.653v-49.198
		C1374.803,211.067,1372.615,208.88,1367.517,208.88z M1391.572,162.96h69.979c2.913,2.188,2.913,4.374,0,6.563h-13.12v49.199
		h15.307c2.913,2.188,2.913,4.375,0,6.563h-15.307v57.94c-2.188,2.912-4.374,2.912-6.563,0v-57.942h-30.61
		c0,25.515-7.296,45.186-21.865,59.041c-4.374,0.725-5.469-1.099-3.28-5.472c13.121-14.567,19.313-32.435,18.587-53.569h-15.307
		c-2.922-1.451-2.922-3.643,0-6.563h15.307v-49.199h-13.121C1388.65,167.333,1388.65,165.147,1391.572,162.96z M1441.865,169.521
		h-30.612v49.199h30.611L1441.865,169.521L1441.865,169.521z"/>
	<path fill="#FFFFFF" stroke="#FFFFFF" stroke-miterlimit="10" d="M1528.238,203.412c2.913-3.643,5.104-3.643,6.563,0v15.309h26.238
		c10.935,0,16.03,4.375,15.31,13.12v37.173c0,5.104,2.544,7.287,7.651,6.563h5.468c6.561,0.727,9.474-7.294,8.746-24.058
		c2.188-3.64,4.375-3.64,6.561,0c0.729,21.865-4.373,32.064-15.307,30.612h-6.563c-8.746,0.728-13.119-3.279-13.119-12.024v-38.267
		c0.729-4.374-1.826-6.563-7.649-6.563h-27.333c-2.188,30.611-19.684,50.293-52.479,59.039c-4.375-1.461-4.737-3.646-1.094-6.563
		c29.152-8.021,44.827-25.506,47.017-52.479h-39.357c-2.923-2.187-2.923-4.371,0-6.562h39.357V203.41L1528.238,203.412
		L1528.238,203.412z M1532.613,160.774c0-2.913,1.819-4.006,5.468-3.276c2.188,2.188,4.729,6.563,7.651,13.117h44.826
		c8.012,0,11.66,3.279,10.937,9.844c-1.464,6.562-3.646,11.668-6.563,15.309c-3.646,2.921-5.833,2.188-6.563-2.188
		c7.281-10.938,7.649-16.399,1.095-16.399h-95.121c-4.373,0-6.563,2.188-6.563,6.563v13.119c-2.187,2.923-4.373,2.923-6.56,0v-15.31
		c0-7.284,3.639-10.934,10.934-10.934h45.919C1535.891,166.24,1534.064,162.96,1532.613,160.774z M1519.49,182.64
		c5.104-1.452,6.563,0.366,4.375,5.468c-10.209,10.206-21.869,18.229-34.987,24.057c-5.104-0.729-5.834-2.912-2.188-6.563
		C1498.35,200.501,1509.283,192.849,1519.49,182.64z M1561.037,182.64c11.66,8.021,22.229,17.135,31.707,27.333
		c0.729,4.374-1.094,5.834-5.467,4.374c-8.748-9.476-18.953-18.223-30.613-26.24C1554.478,183.734,1555.93,181.914,1561.037,182.64z
		"/>
	<path fill="#FFFFFF" stroke="#FFFFFF" stroke-miterlimit="10" d="M1680.21,159.681c2.188-2.912,4.375-2.912,6.563,0v26.238h48.104
		c2.91,2.188,2.91,4.374,0,6.562h-48.104v37.175h45.921c2.912,2.188,2.912,4.372,0,6.563h-45.921v39.36h56.854
		c2.911,2.187,2.911,4.372,0,6.561h-124.643c-2.188-2.188-2.188-4.374,0-6.561h61.229v-39.36h-49.2
		c-2.922-2.188-2.922-4.373,0-6.561h49.2v-37.178h-41.55c-3.646,10.208-8.391,20.047-14.215,29.521
		c-4.375,2.188-6.201,0.73-5.468-4.374c10.937-16.758,17.494-34.252,19.681-52.479c2.912-3.641,5.104-3.276,6.563,1.097
		c-0.733,4.375-2.188,10.934-4.373,19.68h39.359L1680.21,159.681L1680.21,159.681z"/>
	<path fill="#FFFFFF" stroke="#FFFFFF" stroke-miterlimit="10" d="M1768.773,184.827c0.728-4.374,2.913-5.104,6.562-2.188
		c3.643,6.563,8.018,16.771,13.12,30.612h18.587c4.375-9.478,7.651-19.684,9.844-30.612c2.912-2.913,5.102-2.544,6.563,1.094
		c-2.188,10.938-5.105,20.771-8.748,29.521h18.588c2.912,2.188,2.912,4.373,0,6.563h-72.16c-2.925-1.448-2.925-3.641,0-6.563h19.683
		C1777.152,202.321,1773.145,192.849,1768.773,184.827z M1790.639,153.12c5.825,6.561,9.84,12.761,12.021,18.587h24.06
		c2.912,2.188,2.912,4.373,0,6.562h-63.412c-3.647-2.188-3.647-4.374,0-6.562h31.705c-1.459-3.643-4.739-8.748-9.841-15.311
		C1785.175,152.762,1786.992,151.668,1790.639,153.12z M1780.802,228.561h34.981c8.019,0,11.659,3.646,10.938,10.938v32.8
		c0.728,8.012-2.922,11.659-10.938,10.936h-34.981c-7.295,0.729-10.938-2.924-10.938-10.936v-32.8
		C1769.865,232.208,1773.507,228.561,1780.802,228.561z M1813.599,235.12h-30.613c-4.373,0-6.561,2.188-6.561,6.562v28.428
		c0,5.104,2.188,7.283,6.561,6.563h30.613c5.101,0.726,7.285-1.461,6.562-6.563v-28.428
		C1820.885,237.308,1818.698,235.12,1813.599,235.12z M1849.678,160.774h18.588c10.198,0.732,14.212,5.466,12.021,14.213
		c-2.922,13.121-6.561,24.057-10.933,32.804c-1.461,2.922-1.461,5.104,0,6.563c15.307,16.771,20.039,32.801,14.214,48.105
		c-6.562,13.847-18.954,15.307-37.173,4.373c-1.462-3.643-0.368-5.471,3.277-5.471c15.308,9.478,24.775,8.017,28.429-4.374
		c4.372-10.195-0.736-23.688-15.311-40.449c-2.188-2.913-2.188-6.563,0-10.938c4.373-8.015,8.016-18.586,10.936-31.707
		c0.729-4.373-1.461-6.562-6.563-6.562h-16.396c-4.372,0-6.563,2.188-6.563,6.562v111.521c-2.187,2.913-4.373,2.913-6.559,0V172.8
		C1837.654,164.787,1841.658,160.774,1849.678,160.774z"/>
</g>
<g>
	
		<circle opacity="0.1413" fill="none" stroke="#DDDDDD" stroke-width="14.1667" enable-background="new    " cx="2608.04" cy="-237.378" r="92.096"/>
	
		<circle opacity="0.1413" fill="none" stroke="#DDDDDD" stroke-width="14.1667" enable-background="new    " cx="3239.554" cy="-237.378" r="92.096"/>
	
		<circle opacity="0.1413" fill="none" stroke="#DDDDDD" stroke-width="14.1667" enable-background="new    " cx="2608.029" cy="394.133" r="92.097"/>
	
		<circle opacity="0.1413" fill="none" stroke="#DDDDDD" stroke-width="14.1667" enable-background="new    " cx="3239.554" cy="394.133" r="92.097"/>
	
		<circle opacity="0.1413" fill="none" stroke="#DDDDDD" stroke-width="14.1667" enable-background="new    " cx="2713.29" cy="-237.378" r="92.096"/>
	
		<circle opacity="0.1413" fill="none" stroke="#DDDDDD" stroke-width="14.1667" enable-background="new    " cx="2713.279" cy="394.133" r="92.097"/>
	
		<circle opacity="0.1153" fill="none" stroke="#222222" stroke-width="14.1667" enable-background="new    " cx="2818.544" cy="-237.378" r="92.096"/>
	
		<circle opacity="0.1153" fill="none" stroke="#222222" stroke-width="14.1667" enable-background="new    " cx="2818.533" cy="394.133" r="92.097"/>
	
		<circle opacity="0.0633" fill="none" stroke="#222222" stroke-width="14.1667" enable-background="new    " cx="2923.796" cy="-237.378" r="92.096"/>
	
		<circle opacity="0.0633" fill="none" stroke="#222222" stroke-width="14.1667" enable-background="new    " cx="2923.783" cy="394.133" r="92.097"/>
	<path opacity="0.0633" fill="none" stroke="#222222" stroke-width="14.1667" enable-background="new    " d="M3029.046-329.473
		c50.863,0,92.102,41.229,92.102,92.095s-41.23,92.099-92.102,92.099c-50.855,0-92.095-41.229-92.095-92.099
		C2936.951-288.24,2978.186-329.473,3029.046-329.473z"/>
	<path opacity="0.0633" fill="none" stroke="#222222" stroke-width="14.1667" enable-background="new    " d="M3029.046,302.036
		c50.863,0,92.102,41.229,92.102,92.1c0,50.863-41.23,92.096-92.102,92.096c-50.855,0-92.095-41.229-92.095-92.096
		C2936.951,343.267,2978.186,302.036,3029.046,302.036z"/>
	
		<circle opacity="0.046" fill="none" stroke="#222222" stroke-width="14.1667" enable-background="new    " cx="3134.304" cy="-237.378" r="92.096"/>
	
		<circle opacity="0.046" fill="none" stroke="#222222" stroke-width="14.1667" enable-background="new    " cx="3134.304" cy="394.133" r="92.097"/>
	
		<circle opacity="0.0893" fill="none" stroke="#DDDDDD" stroke-width="14.1667" enable-background="new    " cx="2608.04" cy="-132.126" r="92.095"/>
	
		<circle opacity="0.0893" fill="none" stroke="#DDDDDD" stroke-width="14.1667" enable-background="new    " cx="3239.554" cy="-132.126" r="92.095"/>
	
		<circle opacity="0.02" fill="none" stroke="#DDDDDD" stroke-width="14.1667" enable-background="new    " cx="2713.29" cy="-132.126" r="92.095"/>
	
		<circle opacity="0.0893" fill="none" stroke="#DDDDDD" stroke-width="14.1667" enable-background="new    " cx="2818.544" cy="-132.126" r="92.095"/>
	
		<circle opacity="0.046" fill="none" stroke="#222222" stroke-width="14.1667" enable-background="new    " cx="2923.796" cy="-132.126" r="92.095"/>
	<path opacity="0.072" fill="none" stroke="#DDDDDD" stroke-width="14.1667" enable-background="new    " d="M3029.046-224.221
		c50.863,0,92.102,41.229,92.102,92.097c0,50.86-41.23,92.095-92.102,92.095c-50.855,0-92.095-41.229-92.095-92.095
		S2978.186-224.221,3029.046-224.221z"/>
	
		<circle opacity="0.1067" fill="none" stroke="#DDDDDD" stroke-width="14.1667" enable-background="new    " cx="3134.304" cy="-132.126" r="92.095"/>
	
		<circle opacity="0.0547" fill="none" stroke="#DDDDDD" stroke-width="14.1667" enable-background="new    " cx="2608.029" cy="-26.874" r="92.096"/>
	
		<circle opacity="0.0547" fill="none" stroke="#DDDDDD" stroke-width="14.1667" enable-background="new    " cx="3239.554" cy="-26.874" r="92.096"/>
	
		<circle opacity="0.0893" fill="none" stroke="#DDDDDD" stroke-width="14.1667" enable-background="new    " cx="2713.279" cy="-26.874" r="92.096"/>
	
		<circle opacity="0.0373" fill="none" stroke="#DDDDDD" stroke-width="14.1667" enable-background="new    " cx="2818.533" cy="-26.874" r="92.096"/>
	
		<circle opacity="0.02" fill="none" stroke="#DDDDDD" stroke-width="14.1667" enable-background="new    " cx="2923.783" cy="-26.874" r="92.096"/>
	<path opacity="0.0373" fill="none" stroke="#DDDDDD" stroke-width="14.1667" enable-background="new    " d="M3029.033-118.97
		c50.864,0,92.099,41.229,92.099,92.099c0,50.86-41.229,92.095-92.099,92.095c-50.858,0-92.094-41.229-92.094-92.095
		C2936.941-77.737,2978.173-118.97,3029.033-118.97z"/>
	
		<circle opacity="0.15" fill="none" stroke="#222222" stroke-width="14.1667" enable-background="new    " cx="3134.304" cy="-26.874" r="92.096"/>
	
		<circle opacity="0.0287" fill="none" stroke="#222222" stroke-width="14.1667" enable-background="new    " cx="2608.029" cy="78.379" r="92.096"/>
	
		<circle opacity="0.0287" fill="none" stroke="#222222" stroke-width="14.1667" enable-background="new    " cx="3239.554" cy="78.379" r="92.096"/>
	
		<circle opacity="0.0547" fill="none" stroke="#DDDDDD" stroke-width="14.1667" enable-background="new    " cx="2713.279" cy="78.379" r="92.096"/>
	
		<circle opacity="0.072" fill="none" stroke="#DDDDDD" stroke-width="14.1667" enable-background="new    " cx="2818.533" cy="78.379" r="92.096"/>
	
		<circle opacity="0.0547" fill="none" stroke="#DDDDDD" stroke-width="14.1667" enable-background="new    " cx="2923.783" cy="78.379" r="92.096"/>
	<path opacity="0.0893" fill="none" stroke="#DDDDDD" stroke-width="14.1667" enable-background="new    " d="M3029.033-13.717
		c50.864,0,92.099,41.229,92.099,92.097c0,50.862-41.229,92.097-92.099,92.097c-50.858,0-92.094-41.229-92.094-92.097
		C2936.941,27.516,2978.173-13.717,3029.033-13.717z"/>
	
		<circle opacity="0.0287" fill="none" stroke="#222222" stroke-width="14.1667" enable-background="new    " cx="3134.304" cy="78.379" r="92.096"/>
	
		<circle opacity="0.02" fill="none" stroke="#DDDDDD" stroke-width="14.1667" enable-background="new    " cx="2608.029" cy="183.63" r="92.094"/>
	
		<circle opacity="0.02" fill="none" stroke="#DDDDDD" stroke-width="14.1667" enable-background="new    " cx="3239.554" cy="183.63" r="92.094"/>
	
		<circle opacity="0.072" fill="none" stroke="#DDDDDD" stroke-width="14.1667" enable-background="new    " cx="2713.279" cy="183.63" r="92.094"/>
	
		<circle opacity="0.0287" fill="none" stroke="#222222" stroke-width="14.1667" enable-background="new    " cx="2818.533" cy="183.63" r="92.094"/>
	
		<circle opacity="0.072" fill="none" stroke="#DDDDDD" stroke-width="14.1667" enable-background="new    " cx="2923.783" cy="183.63" r="92.094"/>
	<path opacity="0.1413" fill="none" stroke="#DDDDDD" stroke-width="14.1667" enable-background="new    " d="M3029.033,91.536
		c50.864,0,92.099,41.229,92.099,92.097c0,50.861-41.229,92.097-92.099,92.097c-50.858,0-92.094-41.23-92.094-92.097
		C2936.941,132.767,2978.173,91.536,3029.033,91.536z"/>
	
		<circle opacity="0.0547" fill="none" stroke="#DDDDDD" stroke-width="14.1667" enable-background="new    " cx="3134.304" cy="183.63" r="92.094"/>
	
		<circle opacity="0.02" fill="none" stroke="#DDDDDD" stroke-width="14.1667" enable-background="new    " cx="2608.029" cy="288.881" r="92.095"/>
	
		<circle opacity="0.02" fill="none" stroke="#DDDDDD" stroke-width="14.1667" enable-background="new    " cx="3239.554" cy="288.881" r="92.095"/>
	
		<circle opacity="0.0547" fill="none" stroke="#DDDDDD" stroke-width="14.1667" enable-background="new    " cx="2713.279" cy="288.881" r="92.095"/>
	
		<circle opacity="0.0547" fill="none" stroke="#DDDDDD" stroke-width="14.1667" enable-background="new    " cx="2818.533" cy="288.881" r="92.095"/>
	
		<circle opacity="0.0633" fill="none" stroke="#222222" stroke-width="14.1667" enable-background="new    " cx="2923.783" cy="288.881" r="92.095"/>
	<path opacity="0.0287" fill="none" stroke="#222222" stroke-width="14.1667" enable-background="new    " d="M3029.033,196.786
		c50.864,0,92.099,41.229,92.099,92.098c0,50.859-41.229,92.094-92.099,92.094c-50.858,0-92.094-41.229-92.094-92.094
		C2936.941,238.017,2978.173,196.786,3029.033,196.786z"/>
	
		<circle opacity="0.1413" fill="none" stroke="#DDDDDD" stroke-width="14.1667" enable-background="new    " cx="3134.304" cy="288.881" r="92.095"/>
</g>
<g>
	<g>
		<g id="XMLID_2_">
			<g>
				<path fill="#FFFFFF" d="M729.798,136.131c0.606,15.57,1.856,31.688-0.974,47.021c-1.12,6.063-4.026,12.78-10.33,14.479
					c-6.979,1.891-10.76-1.659-15.96-3.119c0-0.972-0.188-1.771-0.54-2.421l2.73-0.96c4.08,5.409,17.31-3.395,18.188-8.145
					c0.49-2.67,0.86-5.38,1.16-8.1c0.48-4.32,0.78-8.67,1.145-12.971c0.54-6.46,2.355-16.63,2.01-25.71L729.798,136.131z"/>
				<path fill="#FFFFFF" d="M701.993,192.092c-2.695-5.039-14.75-1.221-18.42-0.609c-3.38,0.563-7.17,0.12-10.21-1.566
					c-7.22-4.029,3.15-8.88,4.79-12.17c3.33,0,1.67-17.854,1.551-20.229c0-0.37,9.104-4.28,10.279-6.21
					c3.271-5.33-4.319-5.2-7.6-5.479c-13.684-1.173-16.17,22.341-18.88,31.897c-1.021,3.59-2.384,8.608-5.62,10.909
					c-4.92,3.479-3-9.891-2.771-10.899c1.94-8.776,5.12-20.01,9.761-27.946c2.5-4.271,10.529-9.211,13.924-14.211l2.286,0.577
					c-1.366,2.45-2.526,4.939-2.5,5.563c0.08,1.721,21.304-6.354,19.79,2.04c-1.351,7.53-9.051,13.646-9,21.011
					c0.021,2.47,9.804-2.932,10.554-4.432c4-1,8.51-5.709,12.93-4.24c5.2,1.721-0.329,7.721-3.569,7.721
					c-2.987,1.802,9.093,6.604,10.24,7.63c1.59,1.422,2.229,2.474,2.229,3.211c0,2.922-9.933,1.263-12.67-0.341
					c0-0.159-8.939-10.58-8.939-5.487c-2.061,0-10.42,5.681-12.54,6.852c-4.76,2.641-9.229,4.591-9.229,11.221
					c9.408,2.17,18.368-4.027,26.052-7.277c11.931-5.053-0.83,9.271-0.25,10.567c0.159,0.354,0.34,0.67,0.55,0.949L701.993,192.092z
					"/>
				<path fill="#FFFFFF" d="M722.435,120.751c-9.19-10.21-34.69-2.104-37.313,9.971c0.135-0.601-1.18,0,0,0
					c-0.695,0-2.5,2.689-4.036,5.43l-2.29-0.58c0.946-1.396,1.54-2.8,1.54-4.196c3.221-1.609,4.438-7.45,6.536-10.25
					c2.635-3.49,8.03-5.144,11.975-6.514c6.93-2.42,16.29-4.68,23.066-0.85c7.329,4.149,7.521,11.38,7.764,18.909
					c0.039,1.146,0.079,2.301,0.118,3.46l-2.568,0.08C726.974,130.072,725.743,124.432,722.435,120.751z"/>
			</g>
			<g>
				<path fill="none" stroke="#FFFFFF" stroke-miterlimit="10" d="M701.993,192.092c-2.695-5.039-14.75-1.221-18.42-0.609
					c-3.38,0.563-7.17,0.12-10.21-1.566c-7.22-4.029,3.15-8.88,4.79-12.17c3.33,0,1.67-17.854,1.551-20.229
					c0-0.37,9.104-4.28,10.279-6.21c3.271-5.33-4.319-5.2-7.6-5.479c-13.684-1.173-16.17,22.341-18.88,31.897
					c-1.021,3.59-2.384,8.608-5.62,10.909c-4.92,3.479-3-9.891-2.771-10.899c1.94-8.776,5.12-20.01,9.761-27.946
					c2.5-4.271,10.529-9.211,13.924-14.211c0.945-1.399,1.536-2.803,1.536-4.199c3.224-1.609,4.439-7.45,6.54-10.25
					c2.633-3.49,8.029-5.144,11.974-6.512c6.93-2.422,16.29-4.682,23.066-0.852c7.329,4.149,7.521,11.38,7.764,18.909
					c0.04,1.146,0.078,2.301,0.119,3.46c0.606,15.57,1.856,31.688-0.974,47.021c-1.119,6.063-4.026,12.78-10.329,14.479
					c-6.979,1.891-10.761-1.659-15.96-3.119C702.533,193.541,702.345,192.741,701.993,192.092z"/>
				<path fill="none" stroke="#FFFFFF" stroke-miterlimit="10" d="M685.124,130.722
					C683.945,130.722,685.259,130.121,685.124,130.722L685.124,130.722z"/>
				<path fill="none" stroke="#FFFFFF" stroke-miterlimit="10" d="M709.089,174.312c0-0.16-8.94-10.58-8.94-5.49
					c-2.06,0-10.42,5.684-12.54,6.854c-4.76,2.641-9.229,4.591-9.229,11.221c9.406,2.17,18.366-4.029,26.051-7.279
					c11.93-5.051-0.83,9.271-0.25,10.569c0.16,0.354,0.34,0.67,0.55,0.949c4.08,5.409,17.31-3.391,18.19-8.141
					c0.485-2.674,0.855-5.384,1.155-8.104c0.48-4.32,0.78-8.67,1.145-12.971c0.54-6.46,2.355-16.63,2.01-25.71
					c-0.25-6.144-1.479-11.779-4.79-15.46c-9.188-10.21-34.688-2.104-37.311,9.971"/>
				<path fill="none" stroke="#FFFFFF" stroke-miterlimit="10" d="M685.124,130.722c-0.695,0-2.5,2.689-4.035,5.43
					c-1.37,2.45-2.53,4.939-2.5,5.563c0.076,1.721,21.3-6.354,19.785,2.04c-1.35,7.526-9.05,13.646-9,21.011
					c0.021,2.47,9.805-2.932,10.555-4.432c4-1,8.51-5.709,12.93-4.24c5.2,1.721-0.33,7.721-3.57,7.721
					c-2.985,1.8,9.095,6.604,10.24,7.63c1.59,1.42,2.23,2.474,2.23,3.21c0,2.921-9.935,1.264-12.67-0.34h-0.015"/>
			</g>
		</g>
	</g>
	<g>
		<g id="XMLID_1_">
			<g>
				<path fill="#FFFFFF" d="M584.395,111.822c0.51,1.66,1.6,2.75,3.27,3.264c2.425,3.236,2.08,6.59,0.87,10.229
					c-1.5,4.489,0.4,4.472,3.79,3.319c4.37-1.47,11.765-6.93,16.33-6.51c19.9,1.856-11.62,23.986-10.54,27.58
					c0,10.352-9.979,8.46-13.159,16.54c-3.721,9.438-3.391,19.566-3.391,29.606c-1.688,0-1.17,7.771-4.64,0.199
					c-1.225-2.681-2.552-4.359-3.104-7.604c-0.81-4.776,1.25-15.311-1.158-18.856c-1.317-1.931-6.987-0.644-6.987-4.221
					c-4.74-2.358,2.83-5.173,2.83-6.75c10.657,0,7.12-15.224,0.55-10.87c-3.21,2.141-5.38,4.311-8.09,7.197
					c-2.44,2.603-4.304,9.063-7.87,6.974c-7.8-4.563-9.82-22.3-2.32-27.871c4.25-3.149,3.68,13.25,4.01,13.25
					c0,10.729,12.5-2.739,16.61-6.313c5.979-5.196,4.31-10.64,8.06-16.3c2.135-3.239-1.72-14.141,4.895-12.88
					C583.945,111.812,584.395,112.982,584.395,111.822z M588.743,142.732c3.935,1,5.7,6.104,7.935,0.09
					c1.59-4.26,6.979-5.05,7.815-10.3c0.813-5.066-17.815,1.644-15.79,10.04C588.719,142.612,588.724,142.671,588.743,142.732z"/>
			</g>
			<g>
				<path fill="none" stroke="#FFFFFF" stroke-miterlimit="10" d="M584.395,111.822c0.51,1.66,1.6,2.75,3.27,3.264
					c2.425,3.236,2.08,6.59,0.87,10.229c-1.5,4.489,0.4,4.472,3.79,3.319c4.37-1.47,11.765-6.93,16.33-6.51
					c19.9,1.856-11.62,23.986-10.54,27.58c0,10.352-9.979,8.46-13.159,16.54c-3.721,9.438-3.391,19.566-3.391,29.606
					c-1.688,0-1.17,7.771-4.64,0.199c-1.225-2.681-2.552-4.359-3.104-7.604c-0.81-4.776,1.25-15.311-1.158-18.856
					c-1.317-1.931-6.987-0.644-6.987-4.221c-4.74-2.358,2.83-5.173,2.83-6.75c10.657,0,7.12-15.224,0.55-10.87
					c-3.21,2.141-5.38,4.311-8.09,7.197c-2.44,2.603-4.304,9.063-7.87,6.974c-7.8-4.563-9.82-22.3-2.32-27.871
					c4.25-3.149,3.68,13.25,4.01,13.25c0,10.729,12.5-2.739,16.61-6.313c5.979-5.196,4.31-10.64,8.06-16.3
					c2.135-3.239-1.72-14.141,4.895-12.88C584.355,111.812,584.374,111.822,584.395,111.822c0,1.16-0.45-0.01-0.05-0.01"/>
				<path fill="none" stroke="#FFFFFF" stroke-miterlimit="10" d="M588.743,142.732c3.935,1,5.7,6.104,7.935,0.09
					c1.59-4.26,6.979-5.05,7.815-10.3c0.813-5.066-17.815,1.644-15.79,10.04C588.719,142.612,588.724,142.671,588.743,142.732
					c0.57,0.149-0.146-0.816-0.04-0.17"/>
			</g>
		</g>
	</g>
	<g>
		<path fill="#FFFFFF" stroke="#FFFFFF" stroke-miterlimit="10" d="M741.071,260.563c-0.538,2,1.693,5.26,1.604,7.491
			c-0.11,2.724-1.604,5.775-1.604,8.681c1.578,1.266,13.729-0.716,13.812,0.944c-4.83,0-7.354,2.328-9.03,6.17
			c-0.233,0.535-4.587,8.822-4.587,8.3c-1.588,0-16.819-7.123-17.022-8.134c4.003,0,24.739,7.711,17.401-3.309
			c-4.313,0-8.652,0.111-12.948,0.506c-1.074,0.099-13.828,1.701-11.968-0.729c3.974-5.195,17.479,3.795,20.563-3.683
			c1.388-3.354,3.575-9.104-1.204-10.35c-5.615-1.473,6.436-9.158,7.608-11.094c1.226-2.004,4.313-6.715-0.143-6.953
			c-5.023-0.268-7.843,4.316-11.252,7.701c-2.669,2.646-2.748,7.807-5.946,9.455c-4.161,2.147-2.327-7.148-0.527-9.123
			c1.922-2.104,13.643-15.813,9.283-16.183c-3.724-0.315-7.667,0.572-7.745-4.861c-0.093-6.453,7.125,1.618,10.087,1.562
			c1.71-0.035,8.046-8.914,9.264-4.397c0.712,2.646-7.488,8.241-3.082,9.168C753.635,243.83,747.948,258.729,741.071,260.563
			C740.974,260.926,741.393,260.476,741.071,260.563z"/>
	</g>
	<g>
		<path fill="#FFFFFF" stroke="#FFFFFF" stroke-miterlimit="10" d="M1076.395,233.235c-0.546,1.938-8.178,1.695-9.835,1.703
			c-2.421-4.558,6.359-5.013,8.821-4.929C1080.26,230.174,1081.143,231.994,1076.395,233.235
			C1075.849,235.17,1076.608,233.18,1076.395,233.235z"/>
		<path fill="#FFFFFF" stroke="#FFFFFF" stroke-miterlimit="10" d="M1088.783,244.11c0,3.44-6.511,8.135-9.056,9.646
			c-7.232,4.312,2.625-6.149,2.625-7.28c-2.106-1.584-9.293,1.084-11.919,1.604c-5.092,1.01-9.881,2.625-14.611,4.254
			c-3.715,1.281-11.17,8.244-13.334,4.191c-1.688-3.17,5.063-7.812,7.438-10.09c1.854-1.785,3.727-3.592,5.729-5.211
			c1.49-1.201,1.231-3.479,3.584-3.771c10.087-1.246-1.358,10.205,1.167,10.719C1069.733,250.067,1079.726,241.653,1088.783,244.11
			C1088.783,246.155,1088.573,244.053,1088.783,244.11z"/>
		<path fill="#FFFFFF" stroke="#FFFFFF" stroke-miterlimit="10" d="M1069.018,256.026c1.08,0.307,9.269,3.977,9.269,1.606
			c7.148,0-4.173,3.879-5.188,4.342c-5.266,2.396-1.688,6.771-0.063,10.021c0.966,1.926,2.118,4.27,1.956,6.486
			c-0.213,2.934-3.754,4.563-3.04,8.095c1.726,0,4.27-0.362,5.755-1.264c1.949-1.176,6.025-4.131,8.435-4.131
			c0-0.905,3.792-2.889,2.587-4.416c-0.408-0.52-3.297-5.145-0.979-5.229c0,1.885,7.123,9.49,6.144,10.521
			c-0.959,1.009-7.085-0.741-7.085,0.822c-4.798,1.598-9.466,5.701-14.611,5.185c-3.716-0.371-0.612-6.328-0.271-8.345
			c0.396-2.348,0.157-4.748-1.19-6.771c-2.932,0-3.809,3.98-4.396,6.146c-0.97,3.561-2.767,5.459-5.542,7.943
			c-2.059,1.836-6.714,5.194-6.805,0.092c2.37-1.771,5.23-2.826,7.354-4.948c0.781-0.783,3.082-4.25,2.682-4.739
			c-3.026-3.7-7.787,1.609-10.146,3.813c-1.213,1.127-5.083,3.123-5.083,5.024c-2.354,0.937-5.091-0.919-2.281-2.743
			c5.578-3.627,12.146-6.834,17.082-11.408c4.846-4.49,0.05-3.246-2.244-5.877c-1.11-1.274-3.504-6.379,0.201-7.104
			c-0.128,0.025,2.51,2.533,2.813,2.705c2.318,1.307,0.776-1.177,0.813-1.929C1065.264,257.899,1068.101,252.535,1069.018,256.026
			C1069.383,256.127,1068.876,255.487,1069.018,256.026z"/>
	</g>
	<g>
		<g id="XMLID_6_">
			<g>
				<path fill="#FFFFFF" d="M843.235,247.461c6.65,3.066,13.9,16.091,9.37,23.631c-5.021,8.38-3.979,17.688-16.36,16.84
					c0-0.989-18.06-8.949-20.25-10.521c-3.815-2.75-4.775,0.896-5.828,5.229l-0.979-0.229c2.1-8.92-0.271-23.96-0.95-25.304v-0.01
					c0.05-0.04,0.04-0.09-0.08-0.09c-4.31,3.539-12.79,5.188-17.56,9.81l-0.65-0.71c2.74-2.526,5.84-4.729,8.7-6.771
					c3.26-2.319,7.72-3.159,11.21-5.271c5.8-3.52,0.46-6.51-4.25-4.63c0-1.188,6.99-8.09,8.36-9.521
					c5.235-5.489,4.188,2.92,3.77,5.881c-0.815,5.77,7.15,3.229,8.73-0.07c3.438-7.16-3.33-2.851-6.21-2.63
					c-0.48-1.271,3.565-5.12,4.366-5.91c2.434-2.356,5.104-0.188,7.724,0.434c-0.08,0-0.08,0.156-0.051,0.34
					c-0.659,1.816-5.819,8.83-1.923,8.83C830.374,246.842,842.014,246.902,843.235,247.461z M851.155,267.562
					c1.69-11.24-6.688-20.24-17.67-18.729c-14.188,1.938-7.37,11.391-4.896,20.261c0,0.01,0,0.01,0,0.021
					c0.616,0.16,3.025,2.854,2.17,3.684c-2.7,2.606-6.96-2.104-10.48,3.431c-2.47,3.87,9.15,7.38,11.521,7.934
					c0,2.931,12.55,2.211,13.43-1.329C848.605,281.132,850.624,271.121,851.155,267.562z M822.177,254.232
					c0.56-2.438-3.9-3.01-3.9-2.606c-5.08,0-6.34,8.971-6.13,12.688c1.31,22.75,17.521,0.479,7.569-1.816
					c0.236,0,0.091-1.03,0.021-0.689C819.985,259.152,821.605,256.762,822.177,254.232z"/>
				<path fill="#FFFFFF" d="M809.185,282.411l0.979,0.229c-0.825,3.399-1.72,7.221-4.116,8.681
					c-4.104,2.49-25.229-9.576-22.974-15.641c1.4-3.739,3.935-6.851,6.87-9.569l0.65,0.71c-1.59,1.54-2.771,3.41-3.25,5.79
					c-3.33,0,0.99,8.894,2.16,9.819c3.55,2.801,7.75,4.899,12.17,6.229C805.895,289.922,808.124,286.971,809.185,282.411z"/>
				<path fill="#FFFFFF" d="M800.985,234.411c3.71-3.224,5.182,0.471,3.01,0.471c-0.025,0.119-0.05,0.21-0.065,0.271
					c-2.4,8.37-17.013,18.813,0.92,14.67c0,7.884-22.69,6.07-11.96-4.21C796.203,242.432,797.323,237.602,800.985,234.411z"/>
			</g>
			<g>
				<path fill="none" stroke="#FFFFFF" stroke-miterlimit="10" d="M803.927,235.152c-0.08,0.344,0.119-0.271,0.065-0.271"/>
				<path fill="none" stroke="#FFFFFF" stroke-miterlimit="10" d="M803.993,234.882c-0.025,0.119-0.05,0.21-0.065,0.271
					c-2.4,8.37-17.015,18.813,0.92,14.67c0,7.884-22.69,6.07-11.96-4.21c3.316-3.18,4.438-8.01,8.1-11.196
					C804.695,231.192,806.164,234.882,803.993,234.882"/>
				<path fill="none" stroke="#FFFFFF" stroke-miterlimit="10" d="M832.365,237.621c0.021,0.066-0.01,0.188-0.065,0.34
					c-0.66,1.816-5.82,8.83-1.923,8.83c0,0.051,11.643,0.106,12.858,0.67c6.65,3.066,13.9,16.091,9.37,23.631
					c-5.021,8.38-3.979,17.688-16.36,16.84c0-0.989-18.06-8.949-20.25-10.521c-3.815-2.75-4.775,0.896-5.827,5.229
					c-0.828,3.399-1.723,7.221-4.118,8.681c-4.104,2.49-25.23-9.576-22.975-15.641c1.4-3.739,3.935-6.851,6.87-9.569
					c2.74-2.526,5.84-4.729,8.7-6.771c3.26-2.319,7.72-3.159,11.21-5.271c5.8-3.521,0.46-6.51-4.25-4.63
					c0-1.188,6.99-8.09,8.36-9.521c5.235-5.489,4.188,2.92,3.77,5.88c-0.815,5.771,7.15,3.229,8.73-0.069
					c3.438-7.16-3.33-2.851-6.21-2.63c-0.48-1.271,3.565-5.12,4.366-5.91c2.434-2.356,5.104-0.188,7.724,0.434
					C832.355,237.621,832.355,237.621,832.365,237.621c0.29,1.396,0.011,0.801-0.065,0.34c-0.03-0.184-0.03-0.34,0.05-0.34"/>
				<path fill="none" stroke="#FFFFFF" stroke-miterlimit="10" d="M828.589,269.112c0.615,0.16,3.025,2.854,2.17,3.684
					c-2.7,2.606-6.96-2.104-10.48,3.431c-2.47,3.87,9.15,7.38,11.521,7.932c0,2.933,12.55,2.211,13.43-1.327
					c3.38-1.689,5.4-11.7,5.93-15.265c1.69-11.235-6.688-20.235-17.67-18.729c-14.188,1.938-7.37,11.391-4.896,20.261
					C828.589,269.101,828.589,269.101,828.589,269.112c1.1,0.279,0-0.21,0-0.021"/>
				<path fill="none" stroke="#FFFFFF" stroke-miterlimit="10" d="M819.735,261.801c0.07-0.341,0.22,0.688-0.02,0.688"/>
				<path fill="none" stroke="#FFFFFF" stroke-miterlimit="10" d="M819.695,262.491c0-0.184,0.01-0.359,0.021-0.54
					c0-0.054,0.01-0.094,0.01-0.134c0.01-0.011,0.01-0.021,0.01-0.021c0.25-2.649,1.87-5.039,2.44-7.569
					c0.56-2.438-3.9-3.01-3.9-2.606c-5.08,0-6.34,8.971-6.13,12.688c1.31,22.75,17.521,0.479,7.569-1.82
					C819.703,262.491,819.703,262.491,819.695,262.491c0-0.25,0.01-0.424,0.021-0.54c0-0.054,0.01-0.104,0.01-0.134"/>
				<path fill="none" stroke="#FFFFFF" stroke-miterlimit="10" d="M808.235,257.102c0.05-0.04,0.04-0.09-0.08-0.09
					c-4.31,3.539-12.79,5.188-17.56,9.81c-1.59,1.54-2.771,3.41-3.25,5.79c-3.33,0,0.989,8.894,2.16,9.819
					c3.55,2.801,7.75,4.899,12.17,6.229c4.22,1.261,6.445-1.689,7.51-6.25c2.1-8.924-0.271-23.96-0.95-25.304V257.102
					c-0.03-0.062-0.06-0.09-0.08-0.09c-0.479,0.39-0.04,0.22,0.08,0.1"/>
			</g>
		</g>
	</g>
	<g>
		<g id="XMLID_9_">
			<g>
				<path fill="#FFFFFF" d="M1144.474,269.301c0-0.471-3.92,0.021,0,0.021c-3.98,0,3.02,9.109,3.02,6.724
					C1152.544,276.041,1145.605,265.121,1144.474,269.301z M1145.605,239.822c0,1.79,10.87-1.446,12-1.729
					c3.021-0.729,15.71-10.359,13.062-1.131c0-0.318-3.142,0.021,0,0.021c-2.979,0-3.562,7-3.397,7c0,5.684-3.29,7.359-5.55,12.21
					c-5.5,11.779,3.72,4.813,10.47,4.813c0-0.01,3.59-0.579,2.1,3.356c-1.6,4.264-0.67,7.394-0.438,11.449
					c0.197,3.341,6.58,10.395,0.488,10.604c-4.729,0.17-8.068,1.526-12.698,2.79c-12.271,3.351,6.8-7.399,7.79-9.17
					c4.33-7.725,0.197-15.07-7.24-13.03c-5.47,1.5-3.99-0.354-6.68-3.771c-2.62-3.341-3.86-1.271-3.975,1.979
					c-0.1,2.79,2.091,21.511-0.909,22.271c-2.011,0.514-6.236-10.171-7.171-11.921c-4.76-8.96-4.646,3.36-7.486,1.33
					c0-1.896-4.239-8.396-6.609-7.146c-3.45,1.84-1.4,8.896-6.813,4.04c-4.537-4.08,1.91-16.66,4.15-20.924
					c0.3-0.566,3.7,6.439,1.229,6.439c0.276,7.439,5.381,3.33,8.316,0.061c2.24-2.486,13.104-14.316,16.49-9.866
					c1.562,2.05-2.78,3.729-0.25,6.236c3.062,3.029,4.53-3.896,7.03-3.896c0-2.159,5.525-4.96,5.21-6.313
					c-0.53-2.316-4.94-4.96-7.185-4.856c-4.41,0.21-10.486,4.736-16.486,2.891c-7.521-2.319-2.094-11.857,3.986-13.38
					C1145.044,232.862,1140.345,239.161,1145.605,239.822z M1140.509,266.592c5.42-0.939,9.71-10.771,1.14-8.439
					c-0.021,0-0.05,0-0.1,0.021C1141.544,258.781,1134.445,267.641,1140.509,266.592z"/>
			</g>
			<g>
				<path fill="none" stroke="#FFFFFF" stroke-miterlimit="10" d="M1170.664,236.982c-2.979,0-3.56,7-3.396,7
					c0,5.684-3.29,7.359-5.552,12.21c-5.5,11.779,3.722,4.813,10.472,4.813c0-0.01,3.59-0.579,2.1,3.356
					c-1.6,4.264-0.67,7.394-0.438,11.449c0.198,3.341,6.58,10.395,0.488,10.604c-4.729,0.17-8.068,1.526-12.698,2.79
					c-12.271,3.351,6.8-7.399,7.79-9.171c4.33-7.724,0.198-15.069-7.24-13.029c-5.47,1.5-3.99-0.354-6.68-3.771
					c-2.62-3.341-3.86-1.271-3.975,1.979c-0.1,2.79,2.09,21.511-0.91,22.271c-2.01,0.514-6.235-10.171-7.17-11.921
					c-4.76-8.96-4.646,3.36-7.486,1.33c0-1.896-4.239-8.396-6.609-7.146c-3.45,1.84-1.4,8.896-6.813,4.04
					c-4.538-4.08,1.909-16.66,4.149-20.924c0.3-0.566,3.7,6.439,1.229,6.439c0.276,7.439,5.381,3.33,8.316,0.061
					c2.24-2.486,13.104-14.316,16.49-9.866c1.561,2.05-2.78,3.729-0.25,6.236c3.061,3.029,4.53-3.896,7.03-3.896
					c0-2.159,5.525-4.96,5.21-6.313c-0.53-2.316-4.94-4.96-7.185-4.856c-4.409,0.21-10.486,4.736-16.486,2.891
					c-7.521-2.319-2.093-11.857,3.987-13.38c0,2.688-4.696,8.989,0.563,9.649c0,1.788,10.87-1.45,12-1.729
					c3.02-0.729,15.71-10.359,13.061-1.131C1170.664,236.972,1170.664,236.972,1170.664,236.982c-3.14,0,0-0.34,0-0.021"/>
				<path fill="none" stroke="#FFFFFF" stroke-miterlimit="10" d="M1141.544,258.172c0,0.605-7.1,9.47-1.035,8.42
					c5.42-0.939,9.709-10.771,1.14-8.439C1141.624,258.152,1141.595,258.152,1141.544,258.172c0,0.051,0.145-0.021,0.104-0.021"/>
				<path fill="none" stroke="#FFFFFF" stroke-miterlimit="10" d="M1144.474,269.322c-3.98,0,3.02,9.109,3.02,6.724
					c5.055,0-1.89-10.92-3.02-6.739C1144.474,269.312,1144.474,269.312,1144.474,269.322c-3.92,0,0-0.486,0-0.021"/>
			</g>
		</g>
	</g>
	<g>
		<g id="XMLID_7_">
			<g>
				<path fill="#FFFFFF" d="M908.719,272.001c0.88-3.474-0.13-7.609-4.48-5.079c-4.37,2.539,0.78,6.688,4.38,5.489
					c0.04-0.149,0.07-0.25,0.08-0.319C908.719,272.062,908.719,272.031,908.719,272.001z M914.573,270.721
					c2.17-1.811,0.24-3.931-1.71-4.359c-0.55,0.184-0.78,0.271-0.83,0.313c0.03,0,0.145-0.03,0.271-0.063
					C909.259,268.322,910.073,274.482,914.573,270.721z M912.164,251.142c6.884-0.261,7.75-15.63,0.73-11.91
					c-1.58,0.83-8.59,3.62-7.87,5.41c0.95,2.34,5.14,4.71,5.57,6.3C914.624,252.031,913.509,251.522,912.164,251.142z
					 M924.304,244.612c3.855,0,1.5-7.1-1.42-7.1c-0.24,0.198-0.475,0.409-0.69,0.608c-0.106,0.102-0.188,0.181-0.25,0.236
					c-0.03,0.021-0.06,0.054-0.08,0.08c-0.93,0.91-1.59,1.899-1.729,3.37C919.914,244.072,921.798,247.932,924.304,244.612z
					 M927.993,239.602c1.24,0,0.055,4.949-0.13,5.46c-0.75,2.12-3.75,3.724-5.62,4.8c-2.896,1.674-12.43,6.54-9.76,11.189
					c1.93,3.34,8.83,6.449,4.22,10.25c-1.26,1.029-6.88,4.25-6.695,5.58c0.146,1.13,3.14,3.659,3.14,3.47
					c1.4,0,8.97,0.78,8.061,2.899c-0.791,1.851-4.946,1.601-6.526,1.671c-2.86,0.119-2.271,1.76-4.86,2.84
					c-2.24,0.939-4.92,1.391-7.35,1.391c0-1.026-0.21-2.391,1.17-2.37c2.38,0.029,2.56-0.355,4.55-1.431c4.66-2.5,0-2.59-1.96-3.08
					c-3.74-0.938,0.646-6.369-2.8-8.489c-1.313-0.8-8.063-5.229-4.75-6.729c7.25-3.279,12.479-6.13,7.526-14.109
					c-0.721-1.156-1.617-2.29-2.229-3.51c-2.42-0.801-2.75,1.229-4.82,1.229c-0.06,0.79,0.5,9.851-1.13,9.221
					c-1.13-0.431-1.438-6.141-3.029-4.351c-1.721,1.93-2.96,4.196-4.341,6.355c-0.1,0.149-0.199,0.301-0.3,0.46
					c1.979-3.811,2.851-9.989,3.45-12.188c1.37-5.054,5.5-8.859,10.45-10h0.01C904.264,235.301,926.224,232.482,927.993,239.602z"/>
				<path fill="#FFFFFF" d="M889.089,242.842c0.105-1.841,0.31-6.96-2.74-5.011c-0.82,0.521-4.01,4.562-4.65,4.5
					c-0.68-0.063,0.62-3.84,0.73-4.239c0.406-1.479,3.485-3.399,4.869-3.931c4.188-1.594,3.229,4.812,3.041,6.771
					c-0.265,2.521-0.725,5.068-1.24,7.648l-0.76-0.148C888.719,246.572,888.974,244.711,889.089,242.842z"/>
				<path fill="#FFFFFF" d="M881.224,269.291c-0.395-5.989-4.23-8.46-5.63-13.894c-1.75-6.87,2.68-3.42,4.64,0.63
					c0.26,0.54,1.771,3.71,0.19,3.71c0,3.804,2.62,6.2,4.06,1.859c1.41-4.279,2.95-8.699,3.854-13.169l0.761,0.148
					c-1.13,5.646-2.521,11.391-2.521,16.931c1.03,0,1.91-0.54,2.65-1.431c-2.53,3.826-5.33,8.141-5.76,12.146
					c-0.17,1.551-2.24,3.181-2.17,1.021C881.395,274.601,881.405,271.942,881.224,269.291z"/>
			</g>
			<g>
				<path fill="none" stroke="#FFFFFF" stroke-miterlimit="10" d="M904.264,240.161c0-4.858,21.96-7.684,23.729-0.563
					c1.24,0,0.055,4.95-0.13,5.46c-0.75,2.12-3.75,3.72-5.62,4.8c-2.896,1.67-12.43,6.54-9.76,11.189
					c1.93,3.34,8.83,6.449,4.22,10.25c-1.26,1.029-6.88,4.25-6.7,5.58c0.15,1.13,3.145,3.659,3.145,3.47
					c1.396,0,8.97,0.78,8.06,2.899c-0.79,1.851-4.945,1.601-6.525,1.671c-2.86,0.119-2.271,1.76-4.86,2.84
					c-2.24,0.938-4.92,1.391-7.35,1.391c0-1.026-0.21-2.391,1.17-2.37c2.38,0.029,2.56-0.355,4.55-1.431c4.66-2.5,0-2.59-1.96-3.079
					c-3.74-0.938,0.648-6.37-2.8-8.49c-1.313-0.8-8.063-5.229-4.75-6.729c7.25-3.279,12.479-6.13,7.526-14.109
					c-0.721-1.158-1.617-2.29-2.229-3.51c-2.42-0.801-2.75,1.229-4.82,1.229c-0.06,0.789,0.5,9.851-1.13,9.221
					c-1.13-0.432-1.438-6.143-3.03-4.354c-1.72,1.933-2.959,4.199-4.34,6.358c-0.1,0.149-0.199,0.301-0.3,0.46
					c-0.36,0.563-0.74,1.142-1.13,1.729c-2.53,3.828-5.33,8.142-5.76,12.147c-0.17,1.55-2.24,3.181-2.17,1.021
					c0.1-2.649,0.105-5.313-0.07-7.961c-0.394-5.988-4.23-8.46-5.63-13.893c-1.75-6.87,2.68-3.42,4.64,0.63
					c0.26,0.54,1.771,3.71,0.19,3.71c0,3.803,2.62,6.2,4.06,1.859c1.41-4.279,2.95-8.699,3.854-13.169
					c0.381-1.86,0.641-3.723,0.75-5.591c0.106-1.843,0.311-6.96-2.739-5.014c-0.82,0.521-4.011,4.563-4.65,4.5
					c-0.68-0.061,0.62-3.841,0.73-4.236c0.406-1.479,3.485-3.399,4.868-3.935c4.188-1.59,3.229,4.813,3.038,6.771
					c-0.261,2.52-0.721,5.065-1.236,7.646c-1.13,5.649-2.521,11.394-2.521,16.934c1.03,0,1.91-0.54,2.65-1.434
					c0.42-0.479,0.79-1.066,1.13-1.729c1.979-3.813,2.851-9.989,3.45-12.189c1.37-5.05,5.5-8.855,10.45-10L904.264,240.161
					c0-3.451-0.33-0.001-0.011-0.001"/>
				<path fill="none" stroke="#FFFFFF" stroke-miterlimit="10" d="M921.865,238.442c-0.396,0.479,1.57-0.93,1.021-0.93"/>
				<path fill="none" stroke="#FFFFFF" stroke-miterlimit="10" d="M922.195,238.121c-0.105,0.102-0.188,0.182-0.25,0.236"/>
				<path fill="none" stroke="#FFFFFF" stroke-miterlimit="10" d="M922.885,237.512c-0.24,0.198-0.474,0.409-0.69,0.608
					c-0.09,0.08-0.17,0.156-0.25,0.236c-0.028,0.021-0.06,0.054-0.08,0.08c-0.93,0.91-1.59,1.899-1.729,3.37
					c-0.22,2.26,1.66,6.12,4.17,2.8C928.164,244.612,925.804,237.512,922.885,237.512"/>
				<path fill="none" stroke="#FFFFFF" stroke-miterlimit="10" d="M910.595,250.942c0.55,0.149,1.08,0.21,1.565,0.2
					c6.883-0.261,7.75-15.63,0.73-11.91c-1.58,0.83-8.59,3.62-7.87,5.41C905.974,246.982,910.164,249.352,910.595,250.942
					c4.025,1.094,2.91,0.58,1.565,0.2C911.385,250.911,910.533,250.732,910.595,250.942z"/>
				<path fill="none" stroke="#FFFFFF" stroke-miterlimit="10" d="M908.719,271.991v0.01c-0.021-0.01-0.171,0.431-0.104,0.41"/>
				<path fill="none" stroke="#FFFFFF" stroke-miterlimit="10" d="M908.615,272.411c0.04-0.149,0.07-0.25,0.08-0.319
					c0.021-0.029,0.021-0.063,0.021-0.091c0.88-3.474-0.13-7.609-4.48-5.079C899.865,269.461,905.014,273.612,908.615,272.411"/>
				<path fill="none" stroke="#FFFFFF" stroke-miterlimit="10" d="M912.025,266.672c0,0,0,0,0.01,0c0.03,0,0.145-0.03,0.271-0.063
					c0.29-0.08,0.688-0.221,0.56-0.25c-0.195,0.069-0.38,0.149-0.56,0.25c-3.05,1.71-2.23,7.87,2.27,4.109
					c2.171-1.811,0.24-3.931-1.71-4.359c-0.55,0.184-0.775,0.271-0.83,0.313"/>
			</g>
		</g>
	</g>
	<g>
		<path fill="#FFFFFF" stroke="#FFFFFF" stroke-miterlimit="10" d="M914.01,139.856c-1.119,4.188-2.283-1.104-2.396,4.789
			c5.326,2.457,22.626-19.229,27.437-1.261c2.263,8.457-14.25,16.248-15.896,22.813c-1.709,0-1.438,14.219,0.521,15.773
			c2.976,2.364,18.653-4.265,12.543,4.907c-9.048,0-9.3,8.174-14.957,13.064c-4.048,3.502-20.964,5.854-20.964-3.271
			c5.054-1.899,10.96,4.91,15.966,1.676c2.121-1.371,7.396-9.832,1.42-9.199c-4.032,0.431-14.354,3.292-17.271-0.827
			c-2.851-4.021,10.871-3.323,12.567-3.645c4.672-0.871,5.179-4.095,4.104-8.3c-1.759-6.89-1.372-5.809-6.911-3.978
			c-5.553,1.834,0.398-6.861,3.389-8.042c5.765-2.271,9.893-2.604,13.96-7.688c3.474-4.342,7.154-7.77,4.491-13.735
			c-1.202-2.689-10.293,0.091-11.381,1.075c-3.561,3.216-8.826,4.213-12.203,7.671c-3.686,3.771-6.103,8.76-9.329,12.903
			c-2.438,3.123-4.438,5.082-6.385,1.073c-1.37-2.813,5.964-10.412,7.573-12.354c3.639-4.379,6.802-9.38,10.104-14.015
			c3.438-4.819,12.04-14.736,12.107-20.772c-5.729-2.994-9.974,16.024-15.132,14.793c-4.054-0.967-6.979-5.315-1.271-6.133
			c4.63-0.661,8.084-4.685,11.2-8.231c3.185-3.622,6.834-9.565,13.126-6.286c5.71,2.978-2.264,8.78-3.391,11.258
			C924.971,128.444,917.997,138.692,914.01,139.856C912.691,144.772,914.781,139.629,914.01,139.856z"/>
	</g>
	<g>
		<path fill="#FFFFFF" stroke="#FFFFFF" stroke-miterlimit="10" d="M487.551,262.506c3.873,0,9.308-0.416,12.771-2.242
			c2.348-1.235,5.586-5.983,7.654-5.983c1.604,6.469-10.951,9.194-15.521,10.084c-11.501,2.233-9.803,10.854-18.472,16.313
			c-2.542,1.603-6.304,6.826-9.285,6.66c-5.538-0.313,1.703-5.477,2.578-5.926c6.581-3.404,7.597-8.105,3.136-12.951
			c-0.464-0.504-7.646-8.186-4.221-9.063c4.755-1.228,9.013,9.313,14.082,2.372c4.045-5.538,5.422-13.555,6.396-20.188
			c1.165-7.934,3.521-10.112,4.265-0.578C491.487,248.158,485.993,256.561,487.551,262.506
			C489.217,262.506,487.489,262.285,487.551,262.506z"/>
		<path fill="#FFFFFF" stroke="#FFFFFF" stroke-miterlimit="10" d="M491.235,274.612c4.396,0,10.412,3.19,12.398,9.563
			c1.479,4.746-9.479,9.205-12.896,6.658c-1.596-1.189,8.966-2.402,8.908-5.646C499.533,278.793,492.427,278.728,491.235,274.612
			C491.031,274.612,491.346,274.996,491.235,274.612z"/>
	</g>
	<g>
		<path fill="#FFFFFF" stroke="#FFFFFF" stroke-miterlimit="10" d="M1050.613,130.837c-6.622-1.316-15.467,14.368-22.854,14.368
			c0-3.749,8.692-6.998,8.437-11.436c-0.217-3.676-3.301-7.502-3.396-11.428c-0.118-4.822,7.587-16.771,7.587-6.748
			c0.931,3.234-5.077,14.618,1.68,14.559c5.014-0.046,10.923-9.438,15.749-2.363c2.87,4.205-0.317,11.19-3.456,14.342
			c-2.472,2.479-12.938,6.271-8.541,2.346C1048.615,141.975,1051.399,133.99,1050.613,130.837
			C1049.83,130.682,1050.685,131.127,1050.613,130.837z"/>
		<path fill="#FFFFFF" stroke="#FFFFFF" stroke-miterlimit="10" d="M1013.387,129.531c1.099,4.276-7.958,22.633,0.798,18.319
			c5.698-2.806,8.659-14.396,15.094-14.396c0.668,4.711-5.935,7.588-2.177,11.973c-4.53,0,6.086,5.433,5.505,5.075
			c3.676,2.253-10.23,14.86-8.335-0.286c-2.415,0-3.966,2.854-5.421,4.295c-2.595,2.57-5.957,0.749-8.462,3.117
			c-1.558,1.472-2.414,3.48-3.923,4.992c-1.799,1.797-5.942,0.941-4.138-2.146c3.923-6.718,2.146-15.109,5.88-23.07
			c3.021-6.438-4.773-2.963-6.814-0.215c-1.012,1.362-9.202,10.221-10.493,4.021C989.892,136.362,1010.507,128.749,1013.387,129.531
			C1014.839,135.165,1012.896,129.398,1013.387,129.531z"/>
		<path fill="#FFFFFF" stroke="#FFFFFF" stroke-miterlimit="10" d="M988.569,193.751c-3.042-11.059,1.37-25.005,1.613-36.634
			c0.02-0.947-0.521-10.063,1.1-9.554c2.996,0.946,4.528,4.013,5.356,6.656c2.438,7.806,1.911,14.068-0.25,21.832
			C994.76,181.914,1000.113,196.688,988.569,193.751C986.205,185.164,989.089,193.883,988.569,193.751z"/>
		<path fill="#FFFFFF" stroke="#FFFFFF" stroke-miterlimit="10" d="M1063.677,165.884c0.553,2.944,5.571,21.638,2.785,22.423
			c-3.298,0.926-4.992,0.967-7.885,2.132c-9.048,3.648-25.426,10.271-24.483-5.424c0.061-1.015,1.365-13.304-2.421-10.741
			c-4.063,2.748-6.764,7.912-11.055,10.113c-2.271,1.166-3.926,2.816-6.728,2.424c-1.833-0.259-4.386-1.791-1.159-2.854
			c0.232-0.293,16.7-16.109,11.32-16.109c0,2.521-9.63-1.259-8.243-3.205c2.353-3.303,11.924-0.864,15.318-2.479
			c3.64-1.734,9.026-5.271,12.231-0.911c1.243,1.688-3.146,4.243-4.012,4.794c-3.188,2.025-1.854,3.8-0.193,6.885
			c2.209,4.105-0.948,7.806-0.063,12.271c0.936,4.716,10.781,2.563,13.601,1.656
			C1061.542,184.006,1058.566,166.045,1063.677,165.884C1064.602,170.826,1062.229,165.931,1063.677,165.884z"/>
	</g>
	<g>
		<g id="XMLID_5_">
			<g>
				<path fill="#FFFFFF" d="M834.719,131.281c0.34,5.33,5.39,10.594,3.905,16.104c-1.35,5.021-4.775,9.811-6.535,14.83
					c-3.28,9.396-3.063,17.711-1.87,27.602c0.18,1.5,0.17,17.99-3.265,10.724c-1.72-3.66-0.27-9.384-2.775-12.54
					c-2.32-2.938-5.83-11.21-5.475-15.25c0.61-7-0.09-6.25-6.13-8.229c-5.3-1.729-5.39-10.931-0.04-8.397
					c2.145,1.011,6.014,4.091,7.563,4.921c0.06,0.106,0.21,0.197,0.526,0.22c0.804-2.8,2.279-8.76,0.014-11.199
					c-3.45-3.71-10.07-4.96-6.86-11.45c1.931-3.891,4.25-9.789,9.681-9.789c4.399-1.471,3.144-9.868,4.344-13.107
					c3.51-9.5,4.93,0.92,7.195,0.92C834.993,121.512,834.405,126.381,834.719,131.281z M819.105,141.871
					c6.36,4.25,8.33-7.62,3.479-7.62c-0.104,0.106-0.189,0.21-0.279,0.311C819.845,137.201,819.105,137.631,819.105,141.871z"/>
				<path fill="#FFFFFF" d="M792.323,149.112c0.24,2.644-0.896,8.939,1.53,10.71c2.7,1.974,8.79-10.326,11.75-10.326
					c-2.12,9.89-11.92,15.22-11.21,25.42c0.27,3.931,1.02,11.471-0.91,15.021c-1.27,2.318-1.9,5.229-5.2,3.438
					c-0.855-0.46-7.188-3.12-6.438-4.67c1.438-3.014,9.54,0.526,8.85-5.229c-0.26-2.271-2.065-4.812-2.065-6.99
					c-4-2.38-4.44,3.71-7.62,3.71c-4.16,8.04-7.11,6.83-9.49-0.566c-2.41-7.489,9.32-10.934,11.01-17.724c1.97,0,1.09-4-0.06-4.59
					c-1.4-0.7-7.99,2.684-7.99,4.148c-10.189,0,0.79-9.563,3.85-11.33c2.711-1.569,5.54-2.949,8.343-4.34
					c2.132-1.063,2.5-8,4.367-10.21c4.133-4.894,2.54-15.04,11.305-15.04c0,3.566-16.895,28.51-10.015,28.51
					C790.573,149.051,792.323,149.911,792.323,149.112z M781.224,173.001c3.74,1.41,10.63-7.434,6.31-10.01
					C787.533,164.951,781.435,169.172,781.224,173.001z"/>
			</g>
			<g>
				<path fill="none" stroke="#FFFFFF" stroke-miterlimit="10" d="M820.624,161.251c0.805-2.8,2.28-8.76,0.015-11.2
					c-3.45-3.71-10.07-4.96-6.86-11.449c1.932-3.891,4.25-9.79,9.682-9.79c4.398-1.471,3.143-9.87,4.343-13.106
					c3.51-9.5,4.93,0.92,7.195,0.92c0,4.891-0.59,9.76-0.275,14.66c0.34,5.326,5.39,10.59,3.909,16.1
					c-1.354,5.021-4.779,9.811-6.539,14.83c-3.28,9.396-3.063,17.711-1.87,27.602c0.18,1.5,0.17,17.99-3.263,10.724
					c-1.722-3.66-0.271-9.382-2.777-12.54c-2.32-2.938-5.83-11.21-5.473-15.25c0.608-7-0.092-6.25-6.132-8.229
					c-5.3-1.729-5.39-10.931-0.039-8.396c2.144,1.01,6.013,4.09,7.563,4.92C820.323,161.161,820.514,161.241,820.624,161.251
					c0.385-1.318-0.76-0.644-0.525-0.224C820.155,161.142,820.304,161.232,820.624,161.251z"/>
				<path fill="none" stroke="#FFFFFF" stroke-miterlimit="10" d="M792.323,149.112c0,0.804-1.75-0.061,0-0.061"/>
				<path fill="none" stroke="#FFFFFF" stroke-miterlimit="10" d="M792.323,149.051c0,0.021,0,0.04,0,0.061
					c0.24,2.644-0.896,8.939,1.53,10.71c2.7,1.974,8.79-10.326,11.75-10.326c-2.12,9.89-11.92,15.22-11.21,25.42
					c0.27,3.931,1.02,11.471-0.91,15.021c-1.27,2.318-1.9,5.229-5.2,3.438c-0.855-0.46-7.188-3.12-6.438-4.67
					c1.438-3.014,9.54,0.526,8.85-5.229c-0.26-2.271-2.065-4.812-2.065-6.99c-4-2.38-4.44,3.71-7.62,3.71
					c-4.16,8.04-7.11,6.83-9.49-0.566c-2.41-7.489,9.32-10.934,11.01-17.724c1.97,0,1.09-4-0.06-4.59
					c-1.4-0.7-7.99,2.684-7.99,4.148c-10.189,0,0.79-9.563,3.85-11.33c2.711-1.569,5.54-2.949,8.343-4.34
					c2.132-1.063,2.5-8,4.367-10.21c4.133-4.894,2.54-15.04,11.305-15.04C802.339,124.112,785.445,149.051,792.323,149.051"/>
				<path fill="none" stroke="#FFFFFF" stroke-miterlimit="10" d="M822.304,134.562c-2.16,2.394,0.77-0.311,0.278-0.311"/>
				<path fill="none" stroke="#FFFFFF" stroke-miterlimit="10" d="M822.589,134.251c-0.104,0.106-0.19,0.21-0.28,0.311
					c-2.46,2.644-3.2,3.069-3.2,7.313C825.469,146.121,827.435,134.251,822.589,134.251"/>
				<path fill="none" stroke="#FFFFFF" stroke-miterlimit="10" d="M787.533,162.991
					C787.533,164.951,787.895,163.201,787.533,162.991L787.533,162.991z"/>
				<path fill="none" stroke="#FFFFFF" stroke-miterlimit="10" d="M787.533,162.991c0,1.96-6.1,6.181-6.31,10.01
					C784.969,174.411,791.855,165.572,787.533,162.991z"/>
			</g>
		</g>
	</g>
	<g>
		<g id="XMLID_3_">
			<g>
				<path fill="#FFFFFF" d="M576.605,255.352c-0.021,0.029-0.05,0.13-0.09,0.239c0.816-4.75-4.49-8.159-3.87-5.729
					c0.62,2.46-1.03,8.014,3.71,6.424C576.549,255.632,576.605,255.382,576.605,255.352z M573.895,268.721
					c5.82,0.75,3.95-6.899,3.31-9.601c-5.155-1.724-4.59,6.83-3.688,9.54c0,0,0,0,0,0.011c0.05,0.01,0.1,0.021,0.14,0.021
					c0.104,0.021,0.17,0.029,0.223,0.029C573.885,268.732,573.885,268.732,573.895,268.721z M576.804,249.362
					c1.74,7.04,5.855,0.144,5.14-3.146c0-0.01-0.01-0.028-0.01-0.05C579.453,246.161,575.914,245.732,576.804,249.362z
					 M562.275,254.722c4.62,3.17,11.271-10.921,6.51-10.921C568.783,245.722,556.135,250.522,562.275,254.722z M573.323,282.701
					c-4.54,2.25,0.67-11.264-4.979-8.609c-3.95,1.851-9.23,5.08-13.563,5.08c-1.09-2.971,6.99-8.313,8.38-10.399
					c2.771-4.188-2.85-8.566-4.56-12.026c-1.82-3.674,2.18-8.569,5.15-10.83c5.605-4.264-1.03-7.264,1.117-8.95
					c0.813-0.648,4.438,3.78,6.021,1.7c0.78-1.021-0.521-8.264,3.18-7.148c-0.105,0,0.29,1.04,0.29,0.92
					c1.935,6.88-2.62,6.144,5.58,5.979c0.33,0.979-12.83,8.66-3.88,7.66c0-1.58,10.13-3.49,5.84,5.34
					c-0.31,0.642-3.99,8.09-2.526,8.09c0,3.646,3.826,3.852,1.141,6.896c-1.74,1.974-5.521,3.354-6.41,5.54
					C573.615,273.132,573.993,282.371,573.323,282.701z M569.065,271.511c4.74-1.939-0.95-8.04-1.979-4.181
					c0-0.359-2.211,0.021,0,0.021c-2.75,0-6.32,5.08-6.725,7.471C561.115,274.842,569.065,272.491,569.065,271.511z
					 M567.385,260.531c7.525-0.286-2.62-11.67-0.313-0.061c0,0.021,0,0.04,0.015,0.069
					C567.185,260.541,567.299,260.541,567.385,260.531z"/>
				<path fill="#FFFFFF" d="M563.865,286.871c13.185,0.471,28.021,3.71,41.24,1.09c-2.09,8.891-26.33,2.066-31.79,1.141
					c-0.53-0.09-27.29-2.271-34.88-4.47l0.18-0.641C546.339,283.991,555.677,286.581,563.865,286.871z"/>
				<path fill="#FFFFFF" d="M549.759,277.422c3.05,5.641-8.104,5.75-11.521,5.72l0.38,0.854l-0.18,0.641
					c-1.51-0.439-2.271-0.881-1.9-1.301l0.645-0.659l1.06-0.591l0.76-0.17c21.61,0-5.855-13.859,4.384-21.344
					c4.146-3.026,2.811,8.37,2.811,9.33C546.105,269.902,549.445,276.862,549.759,277.422z"/>
			</g>
			<g>
				<path fill="none" stroke="#FFFFFF" stroke-miterlimit="10" d="M574.155,231.732c0.16,0.46,0.21,0.66,0.21,0.7
					c0,0.119-0.396-0.92-0.29-0.92"/>
				<path fill="none" stroke="#FFFFFF" stroke-miterlimit="10" d="M574.073,231.512c0.01,0,0.01,0,0.01,0
					c0.03,0.079,0.055,0.148,0.07,0.22c0.08,0.24,0.15,0.474,0.21,0.7c1.935,6.88-2.62,6.14,5.58,5.979
					c0.33,0.979-12.83,8.656-3.88,7.656c0-1.576,10.13-3.486,5.84,5.344c-0.31,0.641-3.99,8.09-2.525,8.09
					c0,3.646,3.826,3.851,1.14,6.896c-1.74,1.974-5.521,3.354-6.41,5.54c-0.49,1.189-0.106,10.434-0.78,10.764
					c-4.539,2.25,0.672-11.264-4.979-8.609c-3.95,1.851-9.23,5.08-13.563,5.08c-1.09-2.971,6.99-8.313,8.383-10.399
					c2.771-4.188-2.853-8.566-4.563-12.026c-1.82-3.67,2.18-8.569,5.15-10.83c5.605-4.264-1.03-7.264,1.12-8.95
					c0.81-0.648,4.438,3.78,6.02,1.7C571.677,237.642,570.374,230.402,574.073,231.512"/>
				<path fill="none" stroke="#FFFFFF" stroke-miterlimit="10" d="M568.783,243.801
					C568.783,244.642,569.065,243.801,568.783,243.801L568.783,243.801z"/>
				<path fill="none" stroke="#FFFFFF" stroke-miterlimit="10" d="M568.783,243.801c0,1.921-12.646,6.721-6.51,10.921
					C566.895,257.892,573.549,243.801,568.783,243.801z"/>
				<path fill="none" stroke="#FFFFFF" stroke-miterlimit="10" d="M581.935,246.161c-2.48,0-6.021-0.434-5.13,3.196
					c1.74,7.04,5.855,0.144,5.14-3.146C581.945,246.201,581.935,246.182,581.935,246.161c-0.4,0-0.01,0.236,0.01,0.05"/>
				<path fill="none" stroke="#FFFFFF" stroke-miterlimit="10" d="M576.509,255.621c-0.08,0.276-0.19,0.67-0.15,0.656
					C576.427,256.062,576.474,255.842,576.509,255.621"/>
				<path fill="none" stroke="#FFFFFF" stroke-miterlimit="10" d="M576.605,255.342c0,0,0,0,0,0.011
					c-0.021,0.029-0.05,0.13-0.09,0.239"/>
				<path fill="none" stroke="#FFFFFF" stroke-miterlimit="10" d="M576.514,255.592c0.815-4.75-4.49-8.159-3.87-5.729
					c0.62,2.46-1.03,8.014,3.71,6.424c0.19-0.649,0.25-0.899,0.25-0.934"/>
				<path fill="none" stroke="#FFFFFF" stroke-miterlimit="10" d="M576.514,255.592c0,0.011,0,0.021-0.01,0.029"/>
				<path fill="none" stroke="#FFFFFF" stroke-miterlimit="10" d="M567.385,260.531c0.88-0.076-0.313-0.536-0.313-0.061"/>
				<path fill="none" stroke="#FFFFFF" stroke-miterlimit="10" d="M567.073,260.471c0,0.021,0,0.04,0.01,0.069
					c0.104,0,0.215,0,0.305-0.014C574.914,260.241,564.764,248.862,567.073,260.471"/>
				<path fill="none" stroke="#FFFFFF" stroke-miterlimit="10" d="M573.895,268.721c0.21,0-0.38-0.188-0.38-0.061"/>
				<path fill="none" stroke="#FFFFFF" stroke-miterlimit="10" d="M573.655,268.692c0.104,0.021,0.17,0.029,0.224,0.029"/>
				<path fill="none" stroke="#FFFFFF" stroke-miterlimit="10" d="M573.514,268.661c0,0,0,0,0,0.011c0.05,0.01,0.1,0.021,0.14,0.021
					c0.08,0.014,0.15,0.029,0.22,0.029c0.015,0.011,0.015,0.011,0.021,0c5.82,0.75,3.95-6.899,3.31-9.601
					C572.049,257.402,572.615,265.951,573.514,268.661"/>
				<path fill="none" stroke="#FFFFFF" stroke-miterlimit="10" d="M538.993,281.911c21.61,0-5.855-13.859,4.38-21.344
					c4.15-3.026,2.813,8.37,2.813,9.33c-0.08,0,3.26,6.96,3.57,7.521c3.05,5.641-8.104,5.75-11.521,5.72"/>
				<path fill="none" stroke="#FFFFFF" stroke-miterlimit="10" d="M567.089,267.351c-2.75,0-6.32,5.08-6.725,7.471
					c0.75,0.021,8.7-2.326,8.7-3.311c4.74-1.939-0.95-8.04-1.979-4.181C567.089,267.342,567.089,267.342,567.089,267.351
					c-2.215,0,0-0.38,0-0.021"/>
				<path fill="none" stroke="#FFFFFF" stroke-miterlimit="10" d="M538.615,283.991c7.725,0,17.063,2.59,25.25,2.88
					c13.185,0.471,28.021,3.71,41.24,1.09c-2.09,8.891-26.33,2.066-31.79,1.141c-0.53-0.09-27.29-2.271-34.88-4.47
					c-1.51-0.439-2.271-0.881-1.9-1.301"/>
				<line fill="none" stroke="#FFFFFF" stroke-miterlimit="10" x1="536.533" y1="283.331" x2="537.177" y2="282.672"/>
				<line fill="none" stroke="#FFFFFF" stroke-miterlimit="10" x1="537.177" y1="282.672" x2="538.235" y2="282.081"/>
				<line fill="none" stroke="#FFFFFF" stroke-miterlimit="10" x1="538.235" y1="282.081" x2="538.993" y2="281.911"/>
				<line fill="none" stroke="#FFFFFF" stroke-miterlimit="10" x1="538.235" y1="283.141" x2="538.615" y2="283.991"/>
			</g>
		</g>
	</g>
	<g>
		<g id="XMLID_4_">
			<g>
				<path fill="#FFFFFF" d="M680.573,274.092c2.03-1.29,6.21-5.16,8.685-5.16c0-1.479,2.46-1.329,3.25-0.71
					c0.945,0.75-3.15,2.771-3.71,3.063c-7.265,3.79-12.521,10.47-21.771,8.146c0,0.341-3.63-1.699-3.938-1.869
					c-2.015-1.16-1.925-6.229-1.935-8.25c-0.01-5.521,0.58-9.736,2.17-14.896c0.99-3.224,1.724-6.148,1.724-9.59
					c-2.5,0,1.271-9.75,2.931-3.224c2.607,0,1.79,7.12,3.979,8.41c4.25,2.51,7.859,3.25,12.739,4.43
					c4.75,1.149,0.12,3.54-2.39,3.394c-3.08-0.199-6.063-1.42-8.87-1.854c-9.13-1.396-8.813,10.899-7.931,16.724
					C666.533,279.531,676.589,276.641,680.573,274.092z"/>
				<path fill="#FFFFFF" d="M646.605,282.442v0.021l-2.25,4.2l-2.479,3.17c-2.276,0-6.479-0.649-8.051-2.38
					c-1.08-1.189-1.275-8.684-2.92-8.684c-0.26-1.29-1.97-4.066-3.5-4.066c-2.66-1.804-0.646-4.563,0.46-6.594
					c1.62-2.971,3.99-5.896,5.12-9.106l3.645-6.67l2.695-7.79l0.475-4.644c0.29-0.22,3.396-1.13,3.396-0.566l3.78,0.566
					c4.26,0-0.97,10.32-1.67,11.189c-3.04,3.771-5.22,8.109-8.57,11.449c-2.25,2.25-7.27,8.011-5.39,11.229
					c2.188,3.76,6.26,5.67,9.105,8.779c0,0.13,1.055,0.229,2.354,0.229l2.85-2.21c0.063-0.026,0.19-0.101,0.19-0.101
					c0.54-0.939,1.896-5.489,3.5-5.011C649.365,276.442,647.775,282.132,646.605,282.442z"/>
			</g>
			<g>
				<path fill="none" stroke="#FFFFFF" stroke-miterlimit="10" d="M641.874,289.831c-2.275,0-6.479-0.649-8.05-2.38
					c-1.08-1.189-1.275-8.684-2.92-8.684c-0.26-1.29-1.97-4.066-3.5-4.066c-2.66-1.804-0.646-4.563,0.46-6.594
					c1.62-2.971,3.99-5.896,5.12-9.106"/>
				<path fill="none" stroke="#FFFFFF" stroke-miterlimit="10" d="M646.974,239.902c4.26,0-0.97,10.32-1.67,11.189
					c-3.04,3.771-5.22,8.109-8.57,11.449c-2.25,2.25-7.27,8.011-5.39,11.229c2.188,3.76,6.26,5.67,9.105,8.779"/>
				<path fill="none" stroke="#FFFFFF" stroke-miterlimit="10" d="M639.799,239.902c0.289-0.22,3.396-1.13,3.396-0.566"/>
				<line fill="none" stroke="#FFFFFF" stroke-miterlimit="10" x1="643.195" y1="239.331" x2="646.974" y2="239.902"/>
				<path fill="none" stroke="#FFFFFF" stroke-miterlimit="10" d="M671.953,250.012c4.25,2.51,7.86,3.25,12.74,4.43
					c4.75,1.149,0.12,3.54-2.39,3.394c-3.08-0.199-6.063-1.42-8.87-1.854c-9.13-1.396-8.813,10.899-7.93,16.724
					c1.025,6.826,11.075,3.938,15.065,1.391c2.03-1.29,6.21-5.16,8.685-5.16c0-1.479,2.46-1.33,3.25-0.71
					c0.945,0.75-3.15,2.771-3.71,3.063c-7.265,3.79-12.521,10.47-21.771,8.146c0,0.341-3.63-1.699-3.939-1.87
					c-2.011-1.159-1.921-6.229-1.931-8.25c-0.01-5.521,0.58-9.736,2.17-14.896c0.99-3.224,1.722-6.148,1.722-9.59
					c-2.5,0,1.271-9.75,2.933-3.224C670.589,241.602,669.764,248.722,671.953,250.012z"/>
				<path fill="none" stroke="#FFFFFF" stroke-miterlimit="10" d="M645.845,280.471c0.54-0.938,1.896-5.489,3.5-5.011
					c0.02,0.979-1.57,6.671-2.74,6.979c-0.03,0.021-0.07,0.021-0.1,0.021"/>
				<path fill="none" stroke="#FFFFFF" stroke-miterlimit="10" d="M645.655,280.572c0.063-0.026,0.19-0.101,0.19-0.101"/>
				<line fill="none" stroke="#FFFFFF" stroke-miterlimit="10" x1="644.355" y1="286.661" x2="646.605" y2="282.461"/>
				<line fill="none" stroke="#FFFFFF" stroke-miterlimit="10" x1="639.799" y1="239.902" x2="639.323" y2="244.541"/>
				<line fill="none" stroke="#FFFFFF" stroke-miterlimit="10" x1="632.985" y1="259.001" x2="636.624" y2="252.331"/>
				<line fill="none" stroke="#FFFFFF" stroke-miterlimit="10" x1="636.624" y1="252.331" x2="639.323" y2="244.541"/>
				<path fill="none" stroke="#FFFFFF" stroke-miterlimit="10" d="M640.453,282.551c0,0.13,1.055,0.229,2.354,0.229"/>
				<line fill="none" stroke="#FFFFFF" stroke-miterlimit="10" x1="642.804" y1="282.781" x2="645.655" y2="280.572"/>
				<line fill="none" stroke="#FFFFFF" stroke-miterlimit="10" x1="641.874" y1="289.831" x2="644.355" y2="286.661"/>
			</g>
		</g>
	</g>
	<g>
		<g id="XMLID_8_">
			<g>
				<path fill="#FFFFFF" d="M1004.845,244.232c-1.313,0-2.435,1.644-3.33,3.66l-1.03-0.341c0.24-0.739,0.39-1.439,0.39-2.091
					c-2.075-1.104-7.14,1.932-8.63,3.25c-2.01,1.802-0.09,7.026-3.62,4.438c-0.88-0.646-5.85-4.356-5.14-5.479
					c0.24-0.381,4.71-0.649,5.63-1.029c5.71-2.341,10.92-5.67,16.45-8.38c1.54-0.75,4.13-2.36,5.04-3.602
					c0.85-1.16,6.09,0.21,5.72,1.181c-0.27,0.681-4.67,2.75-5.43,3.21c-1.88,1.171-5.49,3.08-6.05,5.171
					C1004.845,244.022,1001.474,244.232,1004.845,244.232z"/>
				<path fill="#FFFFFF" d="M1002.743,282.551c3.86-1.41,3.82-8.521,2.95-11.721c0-0.014,0-0.014,0-0.021
					c-0.1-0.029-0.2-0.05-0.3-0.069c-0.021-0.01-0.04-0.01-0.05-0.01c-3-0.71-6.011,0.239-8.46,1.529
					c-1.631,0.859-7.79,6.521-3.12,7.09C996.405,279.681,1000.764,283.272,1002.743,282.551z M1009.914,265.232
					c-0.025-0.021,10.45,5.25,4.675,4.563c-5.175-0.609-5.99,3.341-6.62,8.261c-0.313,2.479-0.435,4.971-0.46,7.46
					c-0.03,2.471-1.135,1.739-3.21,0.91c-1.884-0.75-4.563-1.721-5.87-3.37c-0.935-1.17-5.094-0.811-6.67-1.051
					c-3.975-0.604-4.17-5.829-7.87-5.739c-4.771,0.109-10.03-3-9.87,4.189c0.05,2-3.59,2.05-3.59,2.646
					c-2.36,0-0.521,1.79-1.24,2.75c-1,1.359-4.36-4.08-4.7-4.646c-1.438-2.424-2.01-3.29,0.69-5.25c1.06-0.771,2.81-2.5,4.08-2.344
					c2.02,0.264,4.96,1.224,6.85,0.054c1.729-1.063,1.88-3.014,4.9-1.5c1.39,0.696,3.146,0.271,4.76-0.2
					c3.52-1.01,3.38-1.539,4.67-4.51c1.58-3.634,2.95-7.029,4.83-10.54c1.28-2.394,4.18-6.184,5.22-9.359l1.03,0.341
					c-1.15,2.59-1.95,5.8-2.34,6.949c-0.19,0.569-3.38,10.101-3.88,10.101c0,3.724,0.479,4.939,4.355,4.093
					c1.271-0.279,4.354-1.159,5.22-2.271c1.961-2.489,1.2-11.608,0.673-14.521c-1.438-7.869,2.892-2.303,2.771,2.682
					C1008.203,259.391,1006.275,261.531,1009.914,265.232z M970.719,279.382v-1.83l-2.82,1.011l0.95,1.449L970.719,279.382z"/>
				<path fill="#FFFFFF" d="M966.927,264.181c0,4.71-3.645,10.189-6.2,13.899c-0.97,1.396-2.67,2.729-3.23,4.261
					c-0.42,1.146-2.17,5.3-3.71,5.3c-2.855-3.34,0.61-10.681,4.063-11.63c1.105-4.689,10.21-13.149,7.74-18.46
					c-0.844-1.813-3.635-0.551-4.74-2.109c-1.11-1.55-4-5.646-3.471-7.8c3.921-0.45,3.906,7.104,8.446,4.84
					c2.24-1.106,3.5-1.97,5.12-3.75c1.66-1.83,0.49-4.12,3.83-4.12C974.775,247.241,969.695,264.181,966.927,264.181z"/>
			</g>
			<g>
				<path fill="none" stroke="#FFFFFF" stroke-miterlimit="10" d="M1004.845,244.232c-1.313,0-2.435,1.644-3.33,3.66
					c-1.15,2.59-1.95,5.8-2.34,6.949c-0.19,0.569-3.38,10.101-3.88,10.101c0,3.724,0.479,4.939,4.355,4.094
					c1.271-0.28,4.354-1.16,5.22-2.271c1.961-2.489,1.2-11.609,0.672-14.521c-1.438-7.87,2.893-2.304,2.771,2.681
					c-0.11,4.47-2.04,6.605,1.601,10.311c-0.026-0.021,10.449,5.25,4.672,4.563c-5.172-0.609-5.988,3.341-6.618,8.261
					c-0.313,2.479-0.435,4.971-0.46,7.46c-0.03,2.471-1.134,1.739-3.213,0.91c-1.881-0.75-4.562-1.721-5.867-3.37
					c-0.934-1.17-5.092-0.811-6.67-1.051c-3.975-0.604-4.172-5.829-7.87-5.739c-4.771,0.109-10.03-3-9.87,4.189
					c0.05,2-3.59,2.05-3.59,2.646c-2.36,0-0.521,1.79-1.24,2.75c-1,1.359-4.359-4.079-4.7-4.646c-1.438-2.421-2.01-3.29,0.69-5.25
					c1.06-0.771,2.81-2.5,4.08-2.344c2.02,0.264,4.96,1.224,6.85,0.054c1.729-1.063,1.88-3.014,4.9-1.5
					c1.39,0.696,3.146,0.271,4.76-0.2c3.52-1.01,3.38-1.539,4.67-4.51c1.58-3.632,2.95-7.029,4.83-10.54
					c1.28-2.394,4.18-6.184,5.22-9.359c0.24-0.739,0.393-1.438,0.393-2.091c-2.078-1.104-7.143,1.932-8.632,3.25
					c-2.011,1.801-0.091,7.03-3.618,4.438c-0.882-0.646-5.853-4.356-5.143-5.479c0.24-0.381,4.71-0.649,5.63-1.029
					c5.71-2.341,10.92-5.67,16.45-8.381c1.54-0.75,4.13-2.358,5.04-3.601c0.85-1.16,6.09,0.21,5.72,1.181
					c-0.27,0.681-4.67,2.75-5.43,3.21c-1.88,1.171-5.49,3.08-6.05,5.171L1004.845,244.232c-3.369,0,0.001-0.21,0.001-0.01"/>
				<path fill="none" stroke="#FFFFFF" stroke-miterlimit="10" d="M958.224,274.232c0,0-0.01,0,0,0.014
					c-0.104,0.156-0.53,1.811-0.38,1.771"/>
				<path fill="none" stroke="#FFFFFF" stroke-miterlimit="10" d="M957.845,276.011c0.275-1.2,0.38-1.681,0.38-1.771"/>
				<path fill="none" stroke="#FFFFFF" stroke-miterlimit="10" d="M957.845,276.011c1.105-4.689,10.21-13.149,7.739-18.46
					c-0.844-1.813-3.634-0.551-4.739-2.109c-1.11-1.55-4-5.646-3.475-7.8c3.925-0.45,3.91,7.104,8.45,4.84
					c2.24-1.106,3.5-1.97,5.12-3.75c1.66-1.83,0.49-4.12,3.83-4.12c0,2.634-5.08,19.569-7.85,19.569c0,4.71-3.645,10.189-6.2,13.899
					c-0.97,1.396-2.67,2.729-3.23,4.261c-0.42,1.146-2.17,5.3-3.71,5.3C950.927,284.301,954.395,276.961,957.845,276.011z"/>
				<path fill="none" stroke="#FFFFFF" stroke-miterlimit="10" d="M1005.345,270.732c-0.313-0.051,0.35,0.25,0.35,0.104"/>
				<path fill="none" stroke="#FFFFFF" stroke-miterlimit="10" d="M1005.695,270.831c0-0.014,0-0.014,0-0.021
					c-0.1-0.03-0.2-0.051-0.3-0.066c-0.021-0.014-0.04-0.014-0.05-0.014c-3-0.71-6.011,0.239-8.46,1.529
					c-1.63,0.859-7.79,6.521-3.12,7.09c2.64,0.33,7,3.921,8.979,3.2C1006.605,281.141,1006.565,274.031,1005.695,270.831"/>
				<line fill="none" stroke="#FFFFFF" stroke-miterlimit="10" x1="970.719" y1="279.382" x2="968.845" y2="280.011"/>
				<line fill="none" stroke="#FFFFFF" stroke-miterlimit="10" x1="970.719" y1="279.382" x2="970.719" y2="277.551"/>
				<line fill="none" stroke="#FFFFFF" stroke-miterlimit="10" x1="970.719" y1="277.551" x2="967.895" y2="278.562"/>
				<line fill="none" stroke="#FFFFFF" stroke-miterlimit="10" x1="967.895" y1="278.562" x2="968.845" y2="280.011"/>
			</g>
		</g>
	</g>
</g>
</svg>
