<?xml version="1.0" encoding="utf-8"?>
<!-- Generator: Adobe Illustrator 16.0.0, SVG Export Plug-In . SVG Version: 6.00 Build 0)  -->
<!DOCTYPE svg PUBLIC "-//W3C//DTD SVG 1.1//EN" "http://www.w3.org/Graphics/SVG/1.1/DTD/svg11.dtd">
<svg version="1.1" id="图层_1" xmlns="http://www.w3.org/2000/svg" xmlns:xlink="http://www.w3.org/1999/xlink" x="0px" y="0px"
	 width="3401.574px" height="396.85px" viewBox="0 0 3401.574 396.85" enable-background="new 0 0 3401.574 396.85"
	 xml:space="preserve">
<rect x="0" y="-0.252" fill="#3C4486" width="3401.574" height="396.849"/>
<g>
	<g>
		<g>
			<g>
				<g>
					<g>
						<g>
							<g>
								<g>
									<g>
										<defs>
											<rect id="SVGID_1_" x="158.421" y="82.064" width="240.94" height="240.94"/>
										</defs>
										<clipPath id="SVGID_2_">
											<use xlink:href="#SVGID_1_"  overflow="visible"/>
										</clipPath>
										<g clip-path="url(#SVGID_2_)">
											
												<ellipse id="outer" fill="none" stroke="#FFFFFF" stroke-width="2.4" stroke-miterlimit="10" cx="279.356" cy="203.198" rx="117.315" ry="117.16"/>
											<path id="thick" fill="#FFFFFF" d="M357.296,204.165c0,43.645-34.859,79.022-77.863,79.022
												c-43.001,0-77.859-35.384-77.859-79.023c0-43.646,34.858-79.024,77.859-79.024
												C322.435,125.142,357.296,160.522,357.296,204.165z M279.159,89.992c-62.359,0-112.921,50.653-112.921,113.141
												c0,62.48,50.563,113.137,112.921,113.137c62.362,0,112.922-50.65,112.922-113.137
												C392.081,140.646,341.522,89.992,279.159,89.992z"/>
											<circle fill="#FFFFFF" cx="279.159" cy="203.469" r="4.974"/>
											<path fill="#FFFFFF" d="M295.768,213.578c-14.792,32.082-37.591,63.74-50.22,58.167
												c-12.211-5.391,0.706-48.857,13.345-75.667c13.913-29.508,38.473-65.417,51.146-60.421
												C322.812,140.694,311.183,180.143,295.768,213.578z M308.338,138.855c-8.749-3.667-34.376,32.809-46.395,58.188
												c-9.606,20.313-25.782,66.563-14.998,71.665c10.275,4.86,33.52-28.93,46.358-56.498
												C307.363,182.048,318.043,142.925,308.338,138.855z"/>
											<path fill="#FFFFFF" d="M296.818,194.435c21.448,31.438,35.091,63.408,24.001,71.624
												c-11.646,8.636-42.286-27.051-57.896-48.88c-14.59-20.4-36.257-65.96-25.496-74.287
												C248.648,134.209,272.608,158.95,296.818,194.435z M239.386,145.188c-9.129,6.273,12.284,51.858,25.937,69.854
												c14.316,18.874,43.711,54.918,53.605,48.26c9.435-6.348-7.876-42.011-24.539-67.454
												C273.252,163.57,247.504,139.606,239.386,145.188z"/>
											<path fill="#FFFFFF" d="M279.65,190.332l2.574-10.505c0,0-26.813,2.396-42.5,6.72
												c-20.989,5.78-26.07,10.503-28.802,12.604c-1.659,1.272-4.813,4-4.813,8.874c0,5.687,3.985,8.541,6.395,9.855
												c5.813,3.197,11.598,5.068,18.472,5.977c9.193,1.208,17.184,1.438,21.806,1.563c7.882,0.209,21.401-0.227,21.401-0.227
												l0.126-2.974c0,0,2.015-0.063-21.979,0.156c-5.521,0.054-18.354-1.021-21.315-1.544
												c-7.257-1.286-9.965-2.083-15.451-5.036c-1.64-0.879-4.157-3.729-3.958-6.674c0.14-2.063,2.099-4.139,4.652-5.409
												c8.264-4.115,15.776-5.75,24.855-7.5C269.309,190.781,279.65,190.332,279.65,190.332z"/>
											<polygon fill="#FFFFFF" points="292.986,179.299 279.778,231.51 290.067,231.51 302.93,179.299 											"/>
											<path fill="#FFFFFF" d="M299.38,190.524c0,0,14.487,0.051,30.625,1.457c14.664,1.273,16.065,5.755,16.25,6.876
												c1.13,7.039-15.119,13.152-18.957,14.23c-26.207,7.37-35.394,7.435-35.394,7.435v3.516c0,0,13.457-1.104,24.83-3.792
												c11.742-2.776,20.634-6.636,24.729-9.167c3.125-1.938,11.104-6.255,11.105-14.304c0-6.259-6.604-11.678-16.931-13.813
												c-21.987-4.544-32.713-3.665-32.713-3.665L299.38,190.524z"/>
										</g>
									</g>
								</g>
							</g>
						</g>
					</g>
				</g>
			</g>
		</g>
	</g>
	<g>
		<g>
			<path fill="#3C4486" d="M192.262,152.26l0.911-0.479l0.91-0.479l0.951-0.604l0.521-0.778l-0.347-1.084l-1.177-0.781l-1.084-0.912
				l-0.646-0.479l-0.955-0.778l-0.605-0.777l-0.998-0.737l-0.261-1.779v-1.952l0.305-1.26l1.521-0.434h1.521l1.307,0.647
				c0,0,1.345,1.129,1.475,1.215c0.131,0.091,0.911,0.78,0.911,0.78l0.912-0.131l1.214-1.909l1.041-1.563l1.085-1.865l0.998-0.607
				l1.214,0.22l1.044,1.174l0.353,1.475l-0.267,1.172l-0.349,1.26l-0.347,1.217l0.087,1.173l0.998,0.39l1.259-0.39h1.172
				l0.694,0.732l-0.521,1.264l-0.823,1.082l-0.604,1.217l0.305,1.346l1.041,1.349l1.128,1.819l1.866,2.216l1.479,1.563l1.085,1.214
				l-0.22,0.605l-0.819,0.22h-1.176l-0.949-0.245l-1.352-0.319l-1.646-0.909l-1.131-0.849l-1.085-0.761l-1.087-0.521l-0.819-0.262
				l-0.651,0.78l-0.689,0.999l-0.438,1.301l-1.433,0.392l-1.308,0.395l-1.476-0.174l-0.892-0.021l-0.763-0.594l-1.042-1.215
				l-0.998-1.128l-0.437-1.521L192.262,152.26z M198.77,143.061l-0.348,0.979l0.26,0.674l0.78,0.693l1.063,0.26l1.063-0.433v-0.825
				v-1.35l-0.563-0.646h-0.823h-0.733L198.77,143.061z M197.513,150.872l-0.694,0.652v0.905l0.999,0.694l0.823,0.479l1.041-0.221
				v-0.734v-1.083l-0.39-0.563l-0.868-0.436L197.513,150.872z"/>
			<path fill="#3C4486" d="M222.312,115.487l1.37-1.787l1.849-1.966l2.084-1.971l2.146-1.313h2.382l2.025,1.371l2.563,3.335
				l2.502,3.636l1.967,3.335l0.714,1.966v4.109h-1.484l-1.851-0.535l-1.188-0.18l-1.018,1.369l-1.484,0.062l-0.479,0.714
				l-1.313,0.355v1.551l-3.156,0.417l-1.312,1.311h-1.436l-0.654-1.132l-1.068-1.313l-1.131-2.023l-0.304-2.741l-0.596-1.428
				l-1.549-2.8l-0.299-2.383L222.312,115.487z M238.635,122.472l-0.356-1.085l-0.297-1.016l-1.133-0.505l-1.189,0.863l-0.063,1.431
				h-0.595l-0.601,1.432l0.298,1.487h0.601l1.37-1.25l1.604-0.237L238.635,122.472z M231.188,126.626l-0.597-0.3l-0.655-1.25
				l-0.179-0.896l-0.715-1.013l-0.063-1.192l-0.061-1.13l-1.137-0.233l-1.902,0.416v1.188l0.354,0.253v1.063l1.019,1.251
				l0.771,1.188l1.313,1.786h1.846v-1.13L231.188,126.626L231.188,126.626z M227.795,117.155l0.417-1.606l0.715-0.479l1.188,0.3
				l0.119,1.313l0.237,1.125l0.625,0.302l0.656,0.896v1.605v1.855h0.804l0.536-1.563l0.18-1.434l-0.12-1.012l0.063-0.833
				l0.954-0.299h1.365l0.356-0.774l-1.014-1.484l-0.774-1.435l-1.013-1.369l-0.601-1.012l-1.786-0.354l-1.133,0.949l-1.043,0.773
				h-1.276l-0.601,1.549l-0.354,1.549l0.714,1.609L227.795,117.155z"/>
			<path fill="#3C4486" d="M273.69,95.681v0.766v0.871l-0.327,0.648l-0.396,0.399l-0.618,0.104l-0.604-0.104l-0.738,0.184
				l-0.547,0.326l-0.579,0.545l-0.438,0.729l-0.146,0.688l0.473,0.689l0.944,0.476l0.544-0.185l0.484-0.146l0.456-0.289l0.769-0.146
				l0.798,0.291l0.036,0.835l-0.146,1.09l-0.436,0.907l-0.545,0.438h-0.768l-0.511,0.291l-0.617,0.618l-0.396,0.51l0.251,0.73
				l0.581,0.358l0.524,0.331l0.456-0.328l0.477-0.509l0.903-0.311l0.767,0.418l0.545,0.437l0.219,0.872l0.183,0.652l0.653,0.327
				l1.271,0.068l0.614-0.104l0.108-0.545l0.146-0.729l-0.221-0.291l-0.51-0.066l-0.728,0.181l-0.617-0.438l-0.326-0.776
				c0,0-0.362-0.781-0.362-0.895c0-0.104,0.106-1.019,0.106-1.019l0.036-1.02l0.183-0.728l-0.071-0.979l-0.615-0.478l-0.257-0.729
				l0.186-0.767l0.907-0.509h1.125l1.02,0.036l0.615-0.188l0.07-0.832l0.394-1.232l0.405-0.546l0.729-0.546h1.162l0.728,0.396
				l0.291,0.689l0.108,1.054l-0.036,0.979l0.036,1.125l-0.184,1.417l0.255,0.581l0.763,0.836l0.69,0.729l0.146,0.907
				c0,0,0.072,0.939,0,1.161c-0.073,0.218,0,1.127,0,1.127l-0.218,0.979l-0.292,1.059l-0.583,0.87l-0.544,0.942l-0.438,1.021
				l-0.474,1.271l-0.184,1.125l-0.187,1.815l-0.51,1.271v1.197h-0.689l-0.585-0.979l-0.401-0.834l-0.57-0.688l-0.581-0.581
				l-0.474-0.655l-0.146-0.727l-0.255-1.091l-0.218-0.615v-0.768l-0.399-0.51v-0.291l-0.51,0.072l-1.055,0.105l-0.729-0.186
				l-0.509-0.472l-0.617-0.221l-0.104,0.688l-0.186,1.233l-0.072,1.125l-0.068,1.019l-0.291,1.021l-0.653,0.256l-0.396-0.223h-0.769
				h-0.907h-1.126h-1.159h-0.854l-0.817-0.547l-0.291-1.089l0.223-1.23l0.617-1.313l0.581-0.939l0.324-1.057l-0.104-1.054
				l-0.362-0.979l0.438-0.326l0.396-0.834l0.107-1.271l-0.071-1.091l-0.29-0.489c0,0-0.873,0.235-0.98,0.235
				c-0.105,0-0.764,0.688-0.764,0.688l-0.979,0.834l-0.767,1.125l-0.765,1.271l-0.438,1.053l0.802,0.655l1.019-0.146l0.689-0.762
				l0.939-0.438l-0.07,1.125l-0.688,0.729l-1.02,1.09l-1.271,0.835l-1.563,0.478h-1.417l-0.512-0.548v-1.105l0.398-0.98l0.87-1.381
				l0.65-0.906l0.873-1.484l0.688-0.804l0.907-1.125l0.51-1.126l0.727-1.016l1.126-1.49l1.453-2.435l1.743-2.542l1.636-0.582
				l2.474,0.396L273.69,95.681z M278.849,103.019l-0.873-0.291h-0.836l-0.581,0.581l0.291,0.873l0.692,0.327h1.229l0.245-0.979
				L278.849,103.019z"/>
			<polygon fill="#3C4486" points="310.38,106.106 309.18,106.487 308.162,106.106 307.908,105.016 308.235,104.144 
				308.889,104.144 309.397,103.818 309.545,103.418 310.197,103.236 310.996,103.236 311.578,103.673 311.578,104.399 
				311.578,105.016 311.068,105.162 310.67,105.525 			"/>
			<path fill="#3C4486" d="M316.772,102.438l0.979,0.473l0.94,0.327l1.088,0.359l1.417,0.327l0.907,0.186l0.399,0.509v0.8
				l-0.187,0.834l-0.475,0.234l-0.834,0.348l-1.056-0.073l-0.801-0.271h-1.127h-0.649l-0.655-0.271l-0.582,0.581l-0.217,0.729
				l-0.037,0.649l0.763,0.397l0.979-0.254l0.939-0.071l0.834,0.325l0.654,0.618l0.255,1.23l0.146,1.021l-0.26,0.94l-0.582,0.943
				h-0.799l-0.619,0.438l-0.726,0.613l-0.364,0.804l-0.219,0.728l-0.292,0.763l-0.941,0.438l-0.07,0.618l1.521,0.146h1.312
				l1.195,0.107l0.835,0.068l0.363,0.581l0.186,0.729l-0.186,0.834l-0.728,0.396l-1.09,0.108l-0.834-0.108l-0.906-0.182
				l-0.655-0.364l-1.017-0.034l-0.689,0.58c0,0-0.254,0.691-0.254,0.837c0,0.146-0.108,0.871-0.108,0.871s-0.357,0.802-0.396,0.943
				c-0.035,0.146-0.942,0.872-0.942,0.872l-1.017,0.579l-1.163,0.329l-0.871-0.292l-0.688-0.688l-0.942-0.799l-0.618-0.834
				l-0.361-0.764l0.361-0.872l-0.293-0.8l-0.618-0.325h-1.016l-0.512-0.187l-0.652-0.834l-0.254-0.905l0.291-1.058l0.688-0.358
				l0.979,0.218l0.396,0.51h1.162h1.234l1.854,0.325h1.021l0.289-0.36l0.146-0.65c0,0,0.219-1.162,0.219-1.312
				c0-0.146-0.067-0.655-0.067-0.655l0.146-0.867l0.581-0.766l1.234-0.327l0.94-0.324l0.834-0.399l0.584-0.473l0.396-0.768
				l-0.186-0.728l-0.579-0.438l-0.969,0.045l-0.941-0.185l-0.979,0.292l-0.938,0.764l-0.944,0.979l-0.782,0.979l-0.563,1.126
				l-0.689,1.162l-0.798,0.799h-1.197l-0.871-0.619l-0.618-0.797l-0.438-1.23l0.184-1.489l0.438-0.942l0.396-1.089h1.094l1.23-0.185
				l1.089-0.581l1.021-0.689l1.563-0.835l0.766-0.475l0.729-1.195l0.324-0.801l-0.289-0.582l-0.476-0.689v-0.979l0.8-0.438
				l1.484,0.223L316.772,102.438z M311.831,119.402l-1.271,0.219l-0.399,0.728l0.479,0.804l0.688,0.614h0.729l0.437-0.799
				l-0.219-0.872l-0.437-0.474v-0.22H311.831L311.831,119.402z"/>
			<path fill="#3C4486" d="M354.52,130.378l1.528-0.222l1.476,0.222l1.313-0.222c0,0,0.271-1.419,0-1.478
				c-0.273-0.054-0.933-0.929-0.933-0.929l-1.166-0.541h-1.018l-0.981,0.817l-0.219,1.092L354.52,130.378L354.52,130.378z"/>
			<polygon fill="#3C4486" points="360.362,133.108 359.927,134.745 358.957,136.11 358.069,137.31 356.215,137.31 355.012,136.766 
				354.52,136.001 354.52,134.852 355.722,134.852 356.159,134.253 356.432,133.108 356.159,132.399 355.395,132.399 
				354.52,132.125 355.395,131.798 357.196,131.798 358.724,131.798 359.815,132.234 			"/>
			<polygon fill="#3C4486" points="343.168,124.538 345.078,125.032 346.112,125.032 346.112,125.573 345.896,126.283 
				345.46,126.666 344.857,126.666 344.913,127.594 344.641,128.247 343.768,128.247 342.892,127.212 342.293,126.666 
				341.258,126.721 339.891,127.759 338.197,129.286 337.161,130.16 336.672,131.198 336.343,132.017 335.197,132.834 
				334.321,133.545 334.321,134.852 334.543,137.31 335.197,138.129 336.508,137.692 337.326,136.656 337.816,135.727 
				339.237,135.619 340.219,134.801 340.656,132.997 340.929,131.798 341.692,130.814 342.729,129.778 343.931,129.83 
				343.984,130.705 344.26,132.017 345.24,131.798 346.112,131.335 346.881,131.335 346.606,132.071 346.881,133.435 
				347.697,133.819 348.187,133.872 348.187,134.31 348.187,135.292 347.207,135.727 346.223,135.893 345.622,136.11 
				345.731,136.819 345.787,137.749 346.552,137.802 346.716,138.403 346.388,139.004 345.24,139.004 343.604,139.004 
				342.349,139.004 342.074,140.095 342.293,140.913 342.947,141.459 343.604,141.459 344.751,141.459 344.804,141.843 
				343.984,142.879 343.276,143.643 343.549,145.281 343.713,146.32 344.804,147.408 346.006,147.793 347.207,147.793 
				348.187,148.666 349.39,149.594 350.7,149.976 351.9,149.976 352.72,149.049 352.446,147.739 352.339,146.32 352.392,144.789 
				352.392,143.754 351.409,143.754 350.862,144.627 350.153,145.497 349.117,146.1 347.753,146.21 346.334,145.609 
				345.349,144.519 345.296,143.477 345.896,142.769 346.988,142.17 346.932,141.188 346.824,140.204 347.697,140.149 
				349.39,140.095 350.592,139.986 350.592,138.894 350.262,138.184 349.335,138.074 348.626,137.31 348.79,137.039 
				350.427,137.039 351.354,136.929 351.738,136.22 351.738,135.183 351.19,134.908 350.645,134.553 350.645,133.819 
				351.027,132.834 351.847,132.89 353.212,132.509 353.483,131.798 353.156,131.142 352.557,131.142 352.339,130.378 
				352.557,129.286 352.502,128.14 351.52,128.085 350.536,128.411 349.935,129.34 349.281,129.996 348.68,130.378 347.591,130.378 
				346.498,129.83 346.77,128.795 347.207,127.212 347.86,126.666 349.171,126.666 349.828,126.066 350.1,125.032 349.882,123.662 
				348.899,123.446 346.988,123.446 345.021,123.772 343.494,123.772 			"/>
			<path fill="#3C4486" d="M196.885,229.358"/>
			<path fill="#3C4486" d="M194.725,229.358l-0.677,1.043l-0.938,0.887l-1.512,0.471h-1.042l-0.78,0.729h-1.875l-1.197-1.563
				l-0.625-1.563l-0.359-0.89v-0.776l-1.25-0.265l-0.834,0.416l-0.89,0.938l0.89,1.042l0.521,0.783l0.417,0.884l-0.104,0.989
				l-0.625,0.679l-0.937,0.21l-1.423-0.065l-1.211-0.074l-0.864-0.293l-1.021-1.096l-0.785,0.138l-0.521,0.585l-0.305,0.646
				l-0.119,1.236l0.356,1.053l0.601,0.356l0.904,0.449l0.943,0.287h1.192l1.669-0.096l1.722,0.096l0.568,0.104l0.696,0.194
				l0.813,0.063l1.271,0.083l1.172,0.178l1.042,0.729l0.78,0.729l0.781,0.781l0.778,0.729l0.78,0.678l0.521,0.572l0.831,0.729
				l0.361,0.677l0.572,0.781h0.833h1.013c0,0,0.914,0.363,0.971,0c0.054-0.365,0.416-0.781,0.416-0.781v-1.041v-1.354l-0.313-0.678
				l-0.417-0.832l-0.417-0.364l-0.729,0.313l-1.098,0.572l-0.886-0.471l-1.042-0.888l-0.99-0.938l-0.984-0.68l-0.155-0.883
				l1.095-0.631l1.042-0.263l0.988-0.574l0.989-0.775l0.938-0.892l0.596-1.038v-1.613l-0.544-0.475h-1.042h-0.57v0.01
				L194.725,229.358L194.725,229.358z"/>
			<path fill="#3C4486" d="M187.069,241.39"/>
			<path fill="#3C4486" d="M185.334,242.593l-0.746,0.271l-1.165,0.649l-0.418,0.911v1.148v1.283l0.146,1.19l0.402,1.148
				l0.354,0.445l0.674-0.063h0.744l0.492,0.255l0.479,0.447l0.553,0.267l0.39-0.672l0.557-0.761l0.188-0.837
				c0,0-0.09-0.655-0.104-0.7c-0.019-0.045-0.237-0.537-0.283-0.646c-0.043-0.104-0.192-0.609-0.192-0.609l0.283-0.521l0.389-0.673
				l0.185-0.807l-0.063-0.775l-0.397-0.688l-0.395-0.565l-0.536-0.146l-0.488,0.226l-0.646,0.209h-0.403L185.334,242.593
				L185.334,242.593L185.334,242.593z"/>
			<path fill="#3C4486" d="M205.219,256.785l-0.94,0.17h-1.198l-0.644,0.302l-0.086,0.981l-0.127,0.687l-0.813,0.477l-0.686,0.3
				l-0.599,0.515l-0.091,0.729l-0.17,0.598l-0.344,0.688l-0.043,0.854l-0.387,1.026l-0.213,1.15l0.256,0.896l-0.983,0.341
				l-0.979-0.086l-0.688-0.43l-0.472-0.938l-0.557-1.155l-0.688-0.171l-0.471-0.771l-0.214-0.688l-0.519-0.813l-0.557-0.339
				l-0.729-0.171l-0.386,0.644v0.854l0.473,1.023l0.688,1.025l0.728,0.771l0.813,1.411l0.854,1.024l0.645,1.022l1.283,1.021
				l0.727,1.11l0.646,0.94c0,0,0.771,0.938,0.896,1.022c0.125,0.087,0.729,0.173,0.854,0.129c0.127-0.047,0.685-0.646,0.685-0.646
				l0.429-0.728v-0.729l-0.3-0.663l-0.557-0.705l-0.813-0.3l0.561-0.171l1.064-0.127l1.196-0.045l0.729-0.213l0.56-0.604v-0.759
				l-0.256-1.111l-0.534-0.854v-0.939l-0.278-0.687l0.729-0.938l0.642-0.854h0.729l0.896,0.686l0.646,0.938l0.771,1.063
				c0,0,1.111,0.521,1.281,0.563c0.171,0.042,1.198-0.172,1.198-0.172l0.641-0.562l0.43-0.727l-0.086-0.899l-0.171-1.021
				l0.042-0.813l0.771,0.086l1.279,0.52l0.813,0.472l0.982-0.126l0.771-0.557l0.515-0.563l0.347-0.386l0.385-0.299l0.979,0.042
				v0.813l-0.558,0.729l-0.813,0.599l-0.939,0.471l-0.729,0.348l-0.086,0.979l0.042,0.813l-0.129,0.554l-0.3,0.258l-0.472,0.087
				l-0.086,0.561v0.645l0.558,0.299l0.603,0.563l0.343,0.727v0.561l-0.646,0.301h-0.813l-0.428-0.517l-0.303-0.688v-0.813
				l-0.3-0.344l-1.198,0.213l-0.938,0.306l-0.086,0.979l-0.042,0.982l0.896,0.471l0.896-0.085l0.771,0.271l-0.892,0.214
				l-0.354,0.448l-0.771,0.305c0,0-0.897-0.042-1.026,0c-0.128,0.046-0.729,0.388-0.729,0.388l-0.472,1.151l-0.474,0.813h-1.754
				h-0.896l-0.938-0.515l-0.896,0.258l-0.646,0.938l-0.558,1.196l0.087,1.37l0.771,1.066l0.813,1.492l1.84,0.856l0.981,0.77
				l1.023,1.025l0.98,1.153l1.025,0.896l0.854,0.729l-0.603,0.386l-0.771,0.384h-1.196l-1.325-0.214l-0.687-0.598l-0.771-0.983
				l-0.602-1.193l-0.559-1.11l-0.603-0.855l-1.238-1.192l-1.412-1.711l-1.107-1.498l-1.411-1.754l-1.198-1.93l-1.066-1.581
				l-1.366-1.322l-1.025-1.239l-1.11-1.326l-0.472-1.539l-0.644-1.412l-0.559-1.064l-0.729-1.111l-0.517-1.326
				c0,0-0.688-0.517-0.729-0.644c-0.043-0.132-0.171-0.854-0.171-0.854v-0.906l0.385-1.111v-0.646l0.517,0.085l0.979,0.771
				l0.688,1.11l0.938,0.771l0.98-0.042l0.854,0.471l0.559,0.813l0.854,0.854l0.938,0.813l1.023,0.344l0.813-0.854l0.602-0.979
				v-0.938l0.215-0.854l0.472-0.896l0.813-0.771l0.604-0.771l0.938-0.53l0.342-0.535l1.068-0.214l0.813-0.172l1.368,0.474v1.363
				L205.219,256.785z M206.886,265.68h-1.239l-1.112,0.347l0.306,0.729l0.128,0.896c0,0-0.128,0.514-0.128,0.646
				c0,0.126,0.085,0.688,0.085,0.688h0.938h1.026l0.342-1.069l0.172-0.897v-0.772L206.886,265.68z M206.501,270.428h-1.068
				l-0.556,0.562v0.729l0.812,0.213v0.646l0.813,0.429h0.896l0.557-1.281v-0.813l-0.729-0.478H206.5L206.501,270.428
				L206.501,270.428z"/>
			<polygon fill="#3C4486" points="231.906,277.614 230.41,277.998 229.385,278.898 228.271,279.538 226.818,280.522 
				225.748,280.949 224.85,281.548 223.354,282.321 221.898,282.959 220.487,283.218 219.931,283.518 220.187,283.904 
				220.873,283.904 221.642,284.2 221.77,285.016 221.77,285.955 221.812,287.025 221.6,288.052 221.131,288.865 220.4,289.677 
				220.145,290.318 220.786,290.958 221.301,291.345 221.855,292.328 222.24,293.269 222.884,293.782 223.694,293.354 
				224.122,292.627 224.038,291.686 224.467,291.218 225.234,290.744 226.134,290.616 226.817,290.276 226.817,289.332 
				226.219,288.992 225.49,288.948 224.935,288.82 224.594,288.224 224.295,287.196 223.909,286.339 223.438,285.527 
				223.31,284.628 224.122,283.859 224.935,283.946 226.006,283.646 227.074,283.476 228.271,283.218 229.427,282.833 
				230.668,282.191 231.735,281.723 233.02,281.164 233.704,280.695 233.704,279.967 233.918,279.111 233.575,277.914 			"/>
			<polygon fill="#3C4486" points="236.696,294.08 236.696,294.38 234.516,294.597 233.147,294.597 231.564,294.337 230.668,294.08 
				230.453,292.842 230.668,291.345 230.453,289.891 230.71,288.82 231.778,288.052 233.061,287.494 234.302,286.597 
				235.415,285.698 236.696,284.972 237.981,283.988 239.179,283.774 239.99,284.073 239.734,284.67 239.221,285.314 
				238.751,285.698 238.58,286.253 238.451,287.068 238.451,287.707 239.094,288.224 239.821,288.259 239.99,288.694 
				240.162,289.677 239.691,290.318 238.795,290.914 238.151,290.744 237.254,289.976 236.912,289.185 236.056,288.82 
				235.308,288.735 234.302,288.694 233.403,288.992 232.806,289.547 232.38,290.659 232.207,291.345 232.207,292.156 
				232.635,292.928 233.189,293.569 234.133,293.782 235.308,293.782 			"/>
			<path fill="#3C4486" d="M257.087,287.188l-1.249-1.49l-1.875,0.313l-0.979,1.185v1.108l1.042,0.883l1.008,0.367h1.429l0.625,0.56
				v0.832l-1.11,0.555l-1.388,0.694l-0.77,0.624l-0.834,0.971h-1.182l-0.624,0.813v1.14v1.523l0.276,1.252l0.556,0.899h1.181
				l0.938-1.389l0.66-1.528l0.971-0.832l0.484-1.063l0.832-0.813l1.392-0.48l1.182,0.068l1.25-0.068l0.354,0.901v0.975l-0.354,0.977
				l-1.041,0.626l-1.182,0.066l-1.25,0.349l-0.901,0.141l-0.313,1.25l-0.382,0.833l0.382,0.415l0.521,0.832v0.979l-0.208,0.898
				l-1.25,0.418l-1.73,0.484h-1.111l-1.25-0.692l-0.972-0.556l-0.77-0.145l-0.973,0.21l-0.833,1.184v0.903l0.486,0.48l0.973,0.348
				c0,0,0.833,0.145,1.042,0c0.209-0.141,1.354-0.062,1.354-0.062l0.234,1.029l0.494,0.069l0.849-0.181l0.246-0.807l1.13-0.751
				l1.394-0.21l1.107,0.21l0.833,0.479l0.209,0.833l-0.142,0.977l-0.692,0.349l-0.975,0.35l-0.456,0.066l-0.795,0.015l-0.129,0.13
				l0,0l0.337,0.205l0.976,0.416l0.483,0.347l0.118,0.49v0.812l1.063,0.09l0.768-0.556l0.208-1.111l-0.144-0.691l0.418-0.832
				l0.416-0.899l0.209-0.903l1.109-0.064l1.182,0.416l1.186-0.144l1.25-0.064l0.898-0.833l0.833-0.691v-1.112l-0.975-0.554h-1.183
				l-0.767,0.484l-1.043,0.415l-1.457-0.066l-1.6-0.069l-0.277-1.106l0.625-0.832l0.766-1.396c0,0,0.559-1.181,0.768-1.181
				s1.042-1.042,1.042-1.042l1.109-0.903l1.042-0.688l0.417-0.996l-0.068-1.854l-0.559-0.971l-0.767-0.417l-0.416-0.35l-0.142-0.978
				l0.482-0.854h0.976l0.899-0.886l1.601-0.417l0.667-0.398l-0.25-0.502l-0.834-0.559l-1.042-0.142l-0.902,0.351l-0.207-0.417
				l-0.902-0.521l-1.042,0.587l-0.273,0.766l-0.275,0.769l-0.834,0.139l-1.107,0.141l-1.461-0.415L257.087,287.188z"/>
			<path fill="#3C4486" d="M283.3,289.032l-0.104,0.948l-0.646,1.051l-0.338,0.917l-0.611,0.774l-0.372,0.915l-0.104,0.886
				l0.745,0.231l0.683-0.372l0.746-0.745l0.403-0.775l0.61-0.914l0.065-0.815l0.271-0.812l0.813-0.341h1.188l0.136,0.604
				l0.406,0.916l1.188-0.229l0.715-0.273l0.231-0.981l0.684-0.542l1.354-0.402l1.563,0.231l1.085,0.608l-0.034,1.291l-0.135,1.188
				l0.019,0.85l0.831,0.104l1.085,0.311l1.321,0.604l1.256,0.916l0.338,1.255l0.509,1.228l0.311,2.063v1.866l-0.271,1.729
				l-0.372,1.261l-0.407,1.286l-0.74,0.85l-0.885,0.915l-0.979,0.609c0,0-1.188,0.137-1.356,0.137s-1.018-0.137-1.018-0.137
				l-0.949-0.141l-0.914-0.169l-0.606-0.372l-0.886-0.403l-0.606-0.513l-0.234-0.305v-0.608l-0.306-0.578l-0.544-0.511l-0.541-0.271
				l-0.479,0.306l-0.202,0.813v1.086l-0.232,0.773l-0.712,0.236l-0.681,0.438l-0.608,0.575l-0.61,0.513h-1.018h-1.155l-0.745-0.173
				l-0.813-0.742l-0.579-0.575l-0.423-0.646l-0.395-0.373l-0.713,0.373l-0.575-0.138l-0.438-0.677l-0.646-0.745l-0.476-0.685
				l0.205-0.307l0.542-0.574l0.203-1.188l-0.203-0.882l0.484-0.688l0.731-0.192c0,0,0.645-0.608,0.672-0.646
				c0.026-0.033,0.719-0.778,0.719-0.778l0.202-0.813l-0.202-0.796l-0.719-0.228l-0.672,0.228l-0.44-0.228v-0.577l0.203-0.911
				l0.439-1.355l0.47-1.149l0.403-0.883l0.552-1.118l0.543-0.943l0.372-0.916l0.542-0.913l0.646-0.578l0.982,0.237L283.3,289.032z
				 M290.895,293.679v-0.577l-0.509-0.232l-0.967,0.17l-0.832,0.271l-0.441,0.373v0.609l0.478,0.624l0.479,0.628h0.782l0.304-0.577
				l0.511-0.679L290.895,293.679z M289.096,296.83l-0.947,0.541l-0.849,0.494l-0.949,0.659v0.848l0.613,0.271l0.063,0.746
				l-0.373,0.608c0,0-0.401,0.681-0.305,0.781c0.103,0.101,0.407,0.678,0.407,0.678l0.646,0.781h0.746h1.372l0.357-0.578l0.23-1.051
				l-0.23-0.886l-0.357-0.271l-0.32-0.423l0.032-0.661l0.288-0.914v-0.883l-0.254-0.745 M283.435,299.406l-0.778-0.308l-0.68,0.513
				l-0.543,0.881v0.68l-0.407,0.511l-0.712,0.685l-0.543,0.677l-0.349,0.747v0.915v0.713l0.516,0.305l0.782-0.137l0.708,0.406
				l0.683,0.373l0.479,0.607l0.849,0.371l0.338-0.606l-0.019-1.253l-0.021-1.6v-1.86l0.032-1.458v-0.915L283.435,299.406z
				 M294.219,295.035l-0.407,0.507v0.544l-0.339,0.406h-0.608l-0.438,0.34l0.373,0.78l0.746,0.256l0.678,0.521l0.169,0.719v0.932
				v1.544v1.048l-0.135,0.612l-0.408,0.438h-0.712h-0.711l-0.309,0.203l-0.509,0.609v0.373h0.778l0.605,0.478l0.374,0.404
				l0.746,0.544l0.913-0.305l0.714-0.61l0.271-0.744l0.271-0.543l0.439-0.171c0,0-0.065-0.712,0-0.847c0.064-0.141,0-0.916,0-0.916
				l0.031-0.813l0.376-0.402l0.304-0.899l-0.202-0.391l-0.339-0.341l0.102-0.813l0.067-0.625l-0.104-1.035l-0.511-0.745
				l-0.646-0.546l-0.813-0.507L294.219,295.035L294.219,295.035L294.219,295.035z"/>
			<path fill="#3C4486" d="M312.052,286.184l0.17,0.917l-0.104,1.188l0.235,0.979l0.509,1.019l0.685,0.783l0.373,0.813l0.474,0.779
				l0.373,1.018c0,0,0.063,0.747,0.063,0.854c0,0.102,0.372,0.813,0.372,0.813l0.033,0.746l0.441,0.137l0.508-0.741l0.137-1.355
				l-0.034-1.695l0.034-1.085l-0.544-0.813l-0.605-0.479l-0.646-0.813l-0.408-1.355l-0.137-1.424l0.306-1.29l0.712-1.149
				l0.745-1.086l1.086-1.256l0.98-0.813l1.018-0.813l1.086-0.679l1.972-0.438l0.774-0.236h1.053l1.115,0.304l0.712,0.78
				l-0.104,1.146l-0.202,1.188l-0.234,1.561l-0.339,0.408l-0.17,0.881l0.104,1.601l-0.31,0.941l0.235,0.781l0.408,0.712l0.813,0.308
				h0.78l0.914,0.368l0.17,0.915c0,0-0.065,0.951-0.065,1.152c0,0.203,0.104,0.949,0.104,0.949l0.61,0.813l0.774,0.319l0.813-0.354
				c0,0,0.543,0.887,0.606,0.98c0.067,0.104,0,0.948,0,0.948l-0.308,0.979c0,0-0.744,0.169-0.88,0.271
				c-0.137,0.102-0.338,0.577-0.338,0.577l-0.609,0.57l-0.882,0.204l-0.916,0.685l-0.646,0.475l-0.882-0.475l-0.203-0.78v-0.679
				l-0.17-0.746v-0.544l-0.606-0.104l-1.021,0.168l-0.605,0.035l-0.544-0.477l-0.271-0.713l0.202-1.037l0.204-0.729l0.371-0.573
				l0.606-0.438l0.373-0.712l-0.203-0.684c0,0-0.645-0.438-0.742-0.438c-0.104,0-0.746-0.307-0.746-0.307l-0.646,0.371l-0.68,0.813
				l-0.746,1.117l-0.577,0.882l-0.438,1.049l-0.611,0.683l-0.578,0.776l-0.269,0.915l-0.104,1.085v1.054l0.407,0.513l0.169,0.944
				v1.055l-1.255,0.604h-0.813l-0.646-0.406l-0.168-0.713l-0.444-1.016l-0.271-0.981l-0.608-0.885l-0.982-0.881l-0.979-0.477h-0.948
				l-0.679-0.576l-0.612-0.646l-0.231-0.847l0.306-0.949l1.152-0.476h0.848l0.646-0.408v-0.678v-0.646l-0.234-0.51l-0.712-0.338
				l-0.968,0.271l-0.151,0.44l-0.271,0.542l-0.679-0.201l-0.34-0.407v-0.773l0.271-0.854l0.371-0.917v-0.712l-0.199-0.404
				l0.607-1.021c0,0,0.813-0.575,0.916-0.575c0.104,0,1.05,0.234,1.15,0.271L312.052,286.184z M322.751,281.233l-0.493,0.305
				l-0.609,0.646l0.339,0.813l0.746,0.646l0.83-0.542l0.287-0.646l-0.576-0.712L322.751,281.233z M319.51,283.436h-0.88
				l-0.682,0.407v0.917l0.479,0.743l0.711,0.51h0.916l0.543-0.477l0.203-0.678v-0.646l-0.203-0.575h-0.678L319.51,283.436z"/>
			<path fill="#3C4486" d="M335.243,270.519l-1.253,0.175l-0.979,0.438l-0.515,0.813l-0.402,1.286l0.508,0.607l0.578,0.778
				l0.949-0.2l0.914-0.578l0.979-0.169l0.982-0.746l0.509-0.712l0.576,0.135l0.271,0.646l0.372,0.849l0.406,0.778v0.915l0.374,1.188
				l0.134,1.32l0.204,1.085v0.916v1.15v1.46l0.51,0.942l0.544,0.646h1.083l0.711-0.478v-0.98l0.271-0.577l0.813-0.102l0.514,0.306
				l0.545,0.646l0.4,0.511l0.777,0.34l0.884-0.312v-1.146v-0.813l0.407-0.342l0.779-0.063l0.544-0.824l-0.142-0.498l-0.338-1.021
				l-0.478-0.401l-0.509-0.479l-0.068-0.915l0.238-0.747l0.645-0.197h0.712h0.854l0.577,0.401l0.542,0.685l0.74,0.511l0.544-0.137
				l0.684-0.236l0.438-0.713v-0.779l0.442-0.542l0.849,0.104l1.15-0.342c0,0,0.512-0.646,0.747-0.607
				c0.232,0.033,0.951-0.018,0.951-0.018l0.1-0.938l-0.136-0.915l-0.675-0.677l-0.684-0.745l-0.746-0.68l-0.916-0.646l-0.773-0.68
				l-0.237-0.479l0.136-0.848l0.169-0.95l-0.508-0.542l-0.682-0.646l-1.021,0.103l-0.881,0.202l-0.609-0.509l-0.438-0.917
				l-0.305-0.813h-0.479l-0.605,0.065l-0.683,0.232l-0.17,0.915l-0.089,1.072l-0.082,0.219l0.678,0.511l0.545,0.404l0.406,0.981
				v1.222l-0.338,0.854l-0.915-0.237l-0.68-0.947l-0.646-0.882l-0.645-1.15l-0.439-1.425l-0.271-1.354l0.271-1.084v-1.055
				l0.729-1.087l0.423-0.775l0.271-1.082l-0.69-0.881l-0.729-0.479l-0.579,0.235l-0.772,0.34l-0.781,0.271l0.034,0.813l0.17,0.778
				l0.102,0.881l-0.2,0.883l-0.2,0.949l-0.237,0.745l-0.609,0.774l-0.372,0.61l0.139,0.407l0.509,0.511l0.779,0.34l0.744,0.168
				l0.712,0.542l0.646,0.982l0.355,0.646l0.306,0.575l0.523,0.743l0.543,0.405l0.234,1.082l0.236,0.778l-0.576,0.442l-0.969,0.23
				l-0.729,0.066l-0.438,0.577l0.102,0.883l-0.231,1.016v0.684l-0.234,0.979l-0.609,0.341h-0.882l-0.755-0.568l-0.406-0.683
				l-0.477-1.05l-0.544-0.813l-0.133-0.981l-0.104-1.051l-0.063-1.34l0.137-1.203l0.338-1.288l-0.066-1.021l-0.574-1.188
				l-1.021-0.169l-1.187,0.204l-0.576,0.604l-0.271,0.984l-0.339,1.146l-0.477,0.515l-0.408,0.543L335.243,270.519z
				 M353.146,270.892l0.577,0.442l0.438,1.188l-0.915,0.476l-0.712-0.136l-0.271,0.979l-0.711-0.168l-0.684-0.373l-0.031-0.813
				l-0.479-0.646l0.202-0.645l0.78-0.881l0.745-0.271l0.646,0.543L353.146,270.892z M346.262,279.099l0.51,0.479l0.137,0.627
				l-0.681,0.391l-0.644,0.441l-0.204,0.478l-1.084-0.341v-0.848l0.645-0.747l0.646-0.678L346.262,279.099z"/>
			<path fill="#3C4486" d="M366.904,243.058l1.068,1.206l0.829,0.729l0.726,0.793l0.896,0.728l0.727,0.48h0.86l0.271,0.829
				l0.208,0.827v0.896l-0.208,0.932l-0.822,0.482h-0.897l-0.862-0.655l-0.966-0.83l-0.621-0.551l-0.585-0.479l-0.414,0.03
				l-0.649,0.313l-0.481,0.447l-0.653,0.207l-0.479-0.385l-0.483-0.931v-0.688l0.447-0.896l-0.447-0.865l-0.726-0.312l-0.862,0.104
				l-0.479,0.555l-0.403,0.546l0.161,0.438l-0.48,1.021l-0.794,0.55l-0.796,0.069l-0.343-1.069v-1.068l0.271-1.031l0.099-0.908
				l-0.23-0.605l0.275-0.896l0.688-0.765l0.446-1.312l-0.309-0.69h-0.829l-0.828,0.178L358.606,241l-0.829,0.794l-0.725,0.828
				l-0.447,0.796l-0.241,0.932l-0.207,0.83l-0.517-0.479l-0.521-0.521l-0.413-0.552l-0.173-0.828l0.104-0.688l-0.274-0.381
				l-0.479-0.142l-0.971,0.205l-0.208,0.896l-0.236,0.651l-0.655,0.586l-0.863,0.557l-0.551,0.55v0.934l0.619,0.446l0.656,0.207
				l0.896-0.313c0,0,0.586,0,0.69,0c0.104,0,1-0.38,1-0.38l-0.067-0.617h0.618h0.655l0.794,0.326l0.139,0.47l-0.447,0.408
				l-0.379,0.798l-0.346,0.825l-0.24,0.689l-0.727,0.688l-0.937,0.655l-1.029,0.345l-0.276,0.795l0.069,0.86l0.621,0.828
				c0,0,0.688,0.622,0.793,0.691c0.104,0.063,1.173,0.857,1.173,0.857l0.727,0.896c0,0,0.689,0.688,0.794,0.758
				c0.105,0.07,0.76,0.588,0.76,0.588l0.385-0.447c0,0,0.104-0.966,0-1c-0.104-0.037-0.207-1.038-0.207-1.038v-0.965l-0.208-0.934
				l-0.349-1.521l-0.039-0.965l-0.173-0.688l0.415-0.479l0.729-0.208c0,0,0.858,0.175,0.967,0.175c0.103,0,0.896,0.142,0.896,0.142
				l0.143,0.76l-0.068,0.896l0.033,1.035l0.272,1.206l0.445,1.066l0.241,0.688l0.448,0.896l0.563,0.584l0.632-0.242
				c0,0-0.023-0.651-0.023-0.758c0-0.104,0.035-0.617,0.035-0.617s0.171-0.555,0.271-0.555c0.104,0,0.97-0.272,0.97-0.272
				l0.763,0.272l-0.07,0.795l-0.034,0.762l-0.345,1l-0.034,0.967l0.145,0.793l-0.208,0.828l-0.35,0.796l-0.413,0.654l0.145,0.689
				l0.549,0.313h0.656l0.794-0.381l0.206-0.931l0.414-0.938c0,0,0.104-0.896,0.104-1.001c0-0.104-0.139-1.208-0.139-1.208
				l0.378-0.271l0.727,0.028h0.729l0.24,0.448l0.104,0.676v0.979l0.035,0.896l0.172,0.829l0.552,0.313l0.689,0.034l0.933-0.104
				l0.794-0.173l0.618-0.378l-0.034-0.69l-0.344-0.827l-0.655-0.877l-0.517-0.47l-0.52-0.968l-0.967-0.86l-0.896-0.727l-0.447-0.619
				l-0.066-0.896l0.173-0.858l0.688-0.447l0.69,0.035l0.551,0.518l0.449,0.83l0.479,0.729l0.655,0.725l0.759,0.068l1.036-0.379
				l0.759-0.896l0.896-1.242l0.518-1.348l0.52-1.274v-1.311v-0.861v-1.271l0.175-0.692l-0.313-0.86l-0.795,0.034l-0.76,0.208
				l-0.654,0.032l-0.793-0.414l-1.14-0.411l-0.862-0.381l-1.207-0.553l-0.86-0.142l-0.621-0.064h-0.45v-0.013h-0.012v-0.003h-0.008
				v-0.006L366.904,243.058L366.904,243.058z"/>
			<path fill="#3C4486" d="M384.81,219.644l-0.862,0.452l-0.45,0.939l-0.405,1.111v1.063l0.063,1.438l-0.055,1.166l-0.01,0.928
				l-0.183,1.293l-0.188,0.599c0,0-0.25,0.105-0.29-0.099c-0.041-0.203-0.26-1.313-0.26-1.313l-0.231-1.013l-0.328-1.229
				l-0.205-1.479l-0.163-1.766l0.247-1.271l-0.247-1.028l-0.572-0.488h-1.067l-0.984,0.165l-1.063-0.329l-1.067-0.329l-0.857-0.286
				h-0.82l-0.535,0.575l-0.862,0.69v0.821l0.492,0.577l0.493,0.902l0.616,1.021c0,0,0.618,0.37,0.734,0.37
				c0.125,0,1.108-0.042,1.108-0.042l1.109-0.245l0.652,0.371l0.736,0.983l0.329,1.021l-0.206,0.656l-0.574,0.574l-0.857,0.529
				l-0.862-0.201l-0.867-0.141l-1.098-0.01l-0.688,0.841l-0.472,0.904l0.493,0.533l0.886,0.021l0.723,0.128l0.683,0.524l0.303,0.635
				l-0.042,0.656h-1.026l-0.813,0.331l-0.699,0.53h-1.15l-1.146-0.243l-1.479-0.863l-0.938-0.904l-1.109-0.815l-1.147-0.737
				l-1.023-0.739l-0.983-0.613l-0.981,0.043l-0.866,0.288l-1.093,0.097l-1.056-0.313l-0.2-0.519l0.328-0.53l0.369-0.699l0.082-1.271
				l0.202-1.023l-0.077-0.97l-0.125-1.21l0.125-1.148l0.06-0.979l0.104-1.229l-0.203-1.441l-0.371-1.646l-0.201-1.479l0.244-0.861
				l0.532-0.371h1.023h0.781l0.49,0.82v0.693l-0.407,0.82l-0.043,1.109c0,0,0.082,1.063,0.123,1.188s0.125,1.396,0.125,1.396
				l0.159,1.104l0.125,1.151l0.16,0.492l0.247,0.816l-0.083,0.695l0.985,0.289l0.574-0.491l0.396-0.813l0.505-0.093h0.656
				l0.451,0.528c0,0,0.779,0.125,0.985,0c0.203-0.123,0.69-0.735,0.609-0.857c-0.082-0.124-0.244-1.067-0.244-1.067l-0.651-0.904
				l-0.656-0.445l-0.78-0.041l-0.541-0.314l-0.166-0.443l-0.036-0.518l0.417-0.814l0.448-0.61l0.617-0.534l0.78,0.124l0.587,0.046
				l0.604-0.046l0.737,0.038l0.207-0.818l-0.207-0.779l-0.04-0.818l0.083-0.49l0.779-0.246h1.313l0.329,0.246l0.409,0.613
				l-0.164,0.493l-0.042,0.939v0.984l0.45,0.493l0.823,0.733l0.814,0.123l1.026-0.123l1.229,0.286l1.025,0.125l0.983,0.37
				l0.897,0.041h0.903l0.739,0.162l0.162,0.618l0.333,0.135l0.28-0.095l0.616,0.287l0.204,0.529l0.205,0.409v0.534h0.01
				L384.81,219.644L384.81,219.644z M371.321,224.412l-0.771-0.239l-0.521-0.187l-0.479,0.426l-0.395,0.574l0.147,0.569l0.462,0.5
				l0.391,0.301l0.408,0.367l0.628,0.313l0.761-0.132l0.479-0.5l0.241-0.521l-0.354-0.38l-0.352-0.416l-0.443-0.438L371.321,224.412
				z"/>
		</g>
	</g>
</g>
<g>
	<path fill="#FFFFFF" stroke="#FFFFFF" stroke-miterlimit="10" d="M1343.469,162.96h39.354c2.913,2.921,2.913,5.104,0,6.563h-21.866
		c0,11.667-1.095,22.604-3.274,32.806h12.022c8.017,0,11.659,3.646,10.938,10.933v53.574c0.726,8.747-2.555,12.752-9.839,12.021
		h-10.938c-6.561,0.729-9.841-2.923-9.841-10.935v-44.826c-2.186,5.833-5.104,10.934-8.747,15.308
		c-3.646,0.733-5.466-0.729-5.466-4.374c12.387-16.758,18.587-38.266,18.587-64.506h-10.934
		C1341.277,167.333,1341.277,165.147,1343.469,162.96z M1367.517,208.88h-4.373c-4.375,0-6.563,2.188-6.563,6.563v50.293
		c0,5.104,1.818,7.286,5.473,6.563h6.561c4.374,0.729,6.192-1.828,5.469-7.653v-49.198
		C1374.803,211.067,1372.615,208.88,1367.517,208.88z M1391.572,162.96h69.979c2.913,2.188,2.913,4.374,0,6.563h-13.12v49.199
		h15.307c2.913,2.188,2.913,4.375,0,6.563h-15.307v57.939c-2.188,2.912-4.374,2.912-6.563,0v-57.941h-30.609
		c0,25.515-7.296,45.186-21.865,59.041c-4.374,0.725-5.469-1.1-3.28-5.473c13.121-14.566,19.313-32.435,18.587-53.568h-15.307
		c-2.922-1.451-2.922-3.644,0-6.563h15.307v-49.199h-13.121C1388.65,167.333,1388.65,165.147,1391.572,162.96z M1441.865,169.521
		h-30.612v49.199h30.611L1441.865,169.521L1441.865,169.521z"/>
	<path fill="#FFFFFF" stroke="#FFFFFF" stroke-miterlimit="10" d="M1528.238,203.412c2.913-3.644,5.104-3.644,6.563,0v15.309h26.238
		c10.935,0,16.029,4.375,15.31,13.12v37.173c0,5.104,2.544,7.287,7.651,6.563h5.468c6.561,0.727,9.474-7.294,8.746-24.059
		c2.188-3.64,4.375-3.64,6.561,0c0.729,21.865-4.373,32.064-15.307,30.612h-6.563c-8.746,0.728-13.119-3.279-13.119-12.024V231.84
		c0.729-4.374-1.825-6.563-7.648-6.563h-27.333c-2.188,30.611-19.685,50.293-52.479,59.039c-4.375-1.461-4.736-3.646-1.094-6.563
		c29.152-8.021,44.827-25.506,47.018-52.479h-39.357c-2.923-2.187-2.923-4.371,0-6.562h39.357V203.41L1528.238,203.412
		L1528.238,203.412z M1532.613,160.774c0-2.913,1.819-4.006,5.468-3.275c2.188,2.188,4.729,6.563,7.651,13.116h44.826
		c8.012,0,11.66,3.279,10.937,9.845c-1.464,6.562-3.646,11.668-6.563,15.309c-3.646,2.921-5.833,2.188-6.563-2.188
		c7.28-10.938,7.648-16.399,1.095-16.399h-95.121c-4.373,0-6.563,2.188-6.563,6.563v13.118c-2.187,2.924-4.373,2.924-6.56,0v-15.31
		c0-7.284,3.639-10.934,10.934-10.934h45.919C1535.891,166.24,1534.064,162.96,1532.613,160.774z M1519.49,182.64
		c5.104-1.452,6.563,0.366,4.375,5.468c-10.209,10.206-21.869,18.229-34.987,24.058c-5.104-0.729-5.834-2.912-2.188-6.563
		C1498.35,200.501,1509.283,192.849,1519.49,182.64z M1561.037,182.64c11.66,8.021,22.229,17.135,31.707,27.333
		c0.729,4.374-1.094,5.834-5.467,4.374c-8.748-9.476-18.953-18.223-30.613-26.24C1554.478,183.734,1555.93,181.914,1561.037,182.64z
		"/>
	<path fill="#FFFFFF" stroke="#FFFFFF" stroke-miterlimit="10" d="M1680.21,159.681c2.188-2.912,4.375-2.912,6.563,0v26.238h48.104
		c2.909,2.188,2.909,4.374,0,6.562h-48.104v37.175h45.921c2.912,2.188,2.912,4.372,0,6.563h-45.921v39.36h56.854
		c2.91,2.187,2.91,4.372,0,6.561h-124.644c-2.188-2.188-2.188-4.374,0-6.561h61.229v-39.36h-49.2c-2.922-2.188-2.922-4.373,0-6.561
		h49.2V192.48h-41.551c-3.646,10.208-8.391,20.047-14.215,29.521c-4.375,2.188-6.201,0.729-5.468-4.374
		c10.937-16.758,17.494-34.252,19.681-52.479c2.912-3.641,5.104-3.275,6.563,1.098c-0.733,4.375-2.188,10.934-4.373,19.68h39.358
		V159.681L1680.21,159.681z"/>
	<path fill="#FFFFFF" stroke="#FFFFFF" stroke-miterlimit="10" d="M1768.773,184.827c0.728-4.374,2.913-5.104,6.562-2.188
		c3.644,6.563,8.019,16.771,13.12,30.612h18.587c4.375-9.479,7.651-19.685,9.845-30.612c2.912-2.913,5.102-2.544,6.563,1.094
		c-2.188,10.938-5.104,20.771-8.748,29.521h18.588c2.912,2.188,2.912,4.373,0,6.563h-72.159c-2.926-1.447-2.926-3.641,0-6.563
		h19.683C1777.152,202.321,1773.145,192.849,1768.773,184.827z M1790.639,153.12c5.825,6.561,9.84,12.761,12.021,18.587h24.061
		c2.912,2.188,2.912,4.373,0,6.562h-63.412c-3.647-2.188-3.647-4.374,0-6.562h31.705c-1.459-3.644-4.739-8.748-9.841-15.312
		C1785.176,152.762,1786.992,151.668,1790.639,153.12z M1780.802,228.561h34.98c8.02,0,11.659,3.646,10.938,10.938v32.8
		c0.728,8.012-2.922,11.659-10.938,10.936h-34.98c-7.295,0.729-10.938-2.924-10.938-10.936v-32.8
		C1769.865,232.208,1773.508,228.561,1780.802,228.561z M1813.599,235.12h-30.613c-4.373,0-6.561,2.188-6.561,6.562v28.428
		c0,5.104,2.188,7.283,6.561,6.563h30.613c5.101,0.726,7.285-1.461,6.562-6.563v-28.428
		C1820.885,237.308,1818.698,235.12,1813.599,235.12z M1849.678,160.774h18.588c10.198,0.732,14.212,5.466,12.021,14.213
		c-2.922,13.121-6.561,24.058-10.933,32.805c-1.461,2.922-1.461,5.104,0,6.563c15.307,16.771,20.039,32.801,14.214,48.105
		c-6.562,13.847-18.954,15.307-37.173,4.373c-1.462-3.644-0.368-5.472,3.277-5.472c15.308,9.479,24.774,8.018,28.429-4.374
		c4.372-10.194-0.736-23.688-15.312-40.448c-2.188-2.913-2.188-6.563,0-10.938c4.373-8.015,8.017-18.586,10.937-31.707
		c0.729-4.373-1.461-6.562-6.563-6.562h-16.396c-4.372,0-6.563,2.188-6.563,6.562v111.521c-2.187,2.913-4.373,2.913-6.559,0V172.8
		C1837.654,164.787,1841.658,160.774,1849.678,160.774z"/>
</g>
<g>
	
		<circle opacity="0.1413" fill="none" stroke="#DDDDDD" stroke-width="14.1667" enable-background="new    " cx="2608.04" cy="-237.378" r="92.096"/>
	
		<circle opacity="0.1413" fill="none" stroke="#DDDDDD" stroke-width="14.1667" enable-background="new    " cx="3239.554" cy="-237.378" r="92.096"/>
	
		<circle opacity="0.1413" fill="none" stroke="#DDDDDD" stroke-width="14.1667" enable-background="new    " cx="2608.029" cy="394.133" r="92.097"/>
	
		<circle opacity="0.1413" fill="none" stroke="#DDDDDD" stroke-width="14.1667" enable-background="new    " cx="3239.554" cy="394.133" r="92.097"/>
	
		<circle opacity="0.1413" fill="none" stroke="#DDDDDD" stroke-width="14.1667" enable-background="new    " cx="2713.29" cy="-237.378" r="92.096"/>
	
		<circle opacity="0.1413" fill="none" stroke="#DDDDDD" stroke-width="14.1667" enable-background="new    " cx="2713.279" cy="394.133" r="92.097"/>
	
		<circle opacity="0.1153" fill="none" stroke="#222222" stroke-width="14.1667" enable-background="new    " cx="2818.544" cy="-237.378" r="92.096"/>
	
		<circle opacity="0.1153" fill="none" stroke="#222222" stroke-width="14.1667" enable-background="new    " cx="2818.533" cy="394.133" r="92.097"/>
	
		<circle opacity="0.0633" fill="none" stroke="#222222" stroke-width="14.1667" enable-background="new    " cx="2923.796" cy="-237.378" r="92.096"/>
	
		<circle opacity="0.0633" fill="none" stroke="#222222" stroke-width="14.1667" enable-background="new    " cx="2923.783" cy="394.133" r="92.097"/>
	<path opacity="0.0633" fill="none" stroke="#222222" stroke-width="14.1667" enable-background="new    " d="M3029.046-329.473
		c50.863,0,92.103,41.229,92.103,92.096c0,50.865-41.229,92.099-92.103,92.099c-50.854,0-92.095-41.229-92.095-92.099
		C2936.951-288.24,2978.186-329.473,3029.046-329.473z"/>
	<path opacity="0.0633" fill="none" stroke="#222222" stroke-width="14.1667" enable-background="new    " d="M3029.046,302.035
		c50.863,0,92.103,41.229,92.103,92.101c0,50.863-41.229,92.096-92.103,92.096c-50.854,0-92.095-41.229-92.095-92.096
		C2936.951,343.267,2978.186,302.035,3029.046,302.035z"/>
	
		<circle opacity="0.046" fill="none" stroke="#222222" stroke-width="14.1667" enable-background="new    " cx="3134.304" cy="-237.378" r="92.096"/>
	
		<circle opacity="0.046" fill="none" stroke="#222222" stroke-width="14.1667" enable-background="new    " cx="3134.304" cy="394.133" r="92.097"/>
	
		<circle opacity="0.0893" fill="none" stroke="#DDDDDD" stroke-width="14.1667" enable-background="new    " cx="2608.04" cy="-132.126" r="92.095"/>
	
		<circle opacity="0.0893" fill="none" stroke="#DDDDDD" stroke-width="14.1667" enable-background="new    " cx="3239.554" cy="-132.126" r="92.095"/>
	
		<circle opacity="0.02" fill="none" stroke="#DDDDDD" stroke-width="14.1667" enable-background="new    " cx="2713.29" cy="-132.126" r="92.095"/>
	
		<circle opacity="0.0893" fill="none" stroke="#DDDDDD" stroke-width="14.1667" enable-background="new    " cx="2818.544" cy="-132.126" r="92.095"/>
	
		<circle opacity="0.046" fill="none" stroke="#222222" stroke-width="14.1667" enable-background="new    " cx="2923.796" cy="-132.126" r="92.095"/>
	<path opacity="0.072" fill="none" stroke="#DDDDDD" stroke-width="14.1667" enable-background="new    " d="M3029.046-224.221
		c50.863,0,92.103,41.229,92.103,92.098c0,50.859-41.229,92.095-92.103,92.095c-50.854,0-92.095-41.229-92.095-92.095
		S2978.186-224.221,3029.046-224.221z"/>
	
		<circle opacity="0.1067" fill="none" stroke="#DDDDDD" stroke-width="14.1667" enable-background="new    " cx="3134.304" cy="-132.126" r="92.095"/>
	
		<circle opacity="0.0547" fill="none" stroke="#DDDDDD" stroke-width="14.1667" enable-background="new    " cx="2608.029" cy="-26.874" r="92.096"/>
	
		<circle opacity="0.0547" fill="none" stroke="#DDDDDD" stroke-width="14.1667" enable-background="new    " cx="3239.554" cy="-26.874" r="92.096"/>
	
		<circle opacity="0.0893" fill="none" stroke="#DDDDDD" stroke-width="14.1667" enable-background="new    " cx="2713.279" cy="-26.874" r="92.096"/>
	
		<circle opacity="0.0373" fill="none" stroke="#DDDDDD" stroke-width="14.1667" enable-background="new    " cx="2818.533" cy="-26.874" r="92.096"/>
	
		<circle opacity="0.02" fill="none" stroke="#DDDDDD" stroke-width="14.1667" enable-background="new    " cx="2923.783" cy="-26.874" r="92.096"/>
	<path opacity="0.0373" fill="none" stroke="#DDDDDD" stroke-width="14.1667" enable-background="new    " d="M3029.033-118.97
		c50.864,0,92.099,41.229,92.099,92.1c0,50.859-41.229,92.095-92.099,92.095c-50.858,0-92.094-41.229-92.094-92.095
		C2936.941-77.737,2978.174-118.97,3029.033-118.97z"/>
	
		<circle opacity="0.15" fill="none" stroke="#222222" stroke-width="14.1667" enable-background="new    " cx="3134.304" cy="-26.874" r="92.096"/>
	
		<circle opacity="0.0287" fill="none" stroke="#222222" stroke-width="14.1667" enable-background="new    " cx="2608.029" cy="78.379" r="92.096"/>
	
		<circle opacity="0.0287" fill="none" stroke="#222222" stroke-width="14.1667" enable-background="new    " cx="3239.554" cy="78.379" r="92.096"/>
	
		<circle opacity="0.0547" fill="none" stroke="#DDDDDD" stroke-width="14.1667" enable-background="new    " cx="2713.279" cy="78.379" r="92.096"/>
	
		<circle opacity="0.072" fill="none" stroke="#DDDDDD" stroke-width="14.1667" enable-background="new    " cx="2818.533" cy="78.379" r="92.096"/>
	
		<circle opacity="0.0547" fill="none" stroke="#DDDDDD" stroke-width="14.1667" enable-background="new    " cx="2923.783" cy="78.379" r="92.096"/>
	<path opacity="0.0893" fill="none" stroke="#DDDDDD" stroke-width="14.1667" enable-background="new    " d="M3029.033-13.717
		c50.864,0,92.099,41.229,92.099,92.097c0,50.862-41.229,92.097-92.099,92.097c-50.858,0-92.094-41.229-92.094-92.097
		C2936.941,27.516,2978.174-13.717,3029.033-13.717z"/>
	
		<circle opacity="0.0287" fill="none" stroke="#222222" stroke-width="14.1667" enable-background="new    " cx="3134.304" cy="78.379" r="92.096"/>
	
		<circle opacity="0.02" fill="none" stroke="#DDDDDD" stroke-width="14.1667" enable-background="new    " cx="2608.029" cy="183.63" r="92.094"/>
	
		<circle opacity="0.02" fill="none" stroke="#DDDDDD" stroke-width="14.1667" enable-background="new    " cx="3239.554" cy="183.63" r="92.094"/>
	
		<circle opacity="0.072" fill="none" stroke="#DDDDDD" stroke-width="14.1667" enable-background="new    " cx="2713.279" cy="183.63" r="92.094"/>
	
		<circle opacity="0.0287" fill="none" stroke="#222222" stroke-width="14.1667" enable-background="new    " cx="2818.533" cy="183.63" r="92.094"/>
	
		<circle opacity="0.072" fill="none" stroke="#DDDDDD" stroke-width="14.1667" enable-background="new    " cx="2923.783" cy="183.63" r="92.094"/>
	<path opacity="0.1413" fill="none" stroke="#DDDDDD" stroke-width="14.1667" enable-background="new    " d="M3029.033,91.536
		c50.864,0,92.099,41.229,92.099,92.097c0,50.861-41.229,92.097-92.099,92.097c-50.858,0-92.094-41.229-92.094-92.097
		C2936.941,132.767,2978.174,91.536,3029.033,91.536z"/>
	
		<circle opacity="0.0547" fill="none" stroke="#DDDDDD" stroke-width="14.1667" enable-background="new    " cx="3134.304" cy="183.63" r="92.094"/>
	
		<circle opacity="0.02" fill="none" stroke="#DDDDDD" stroke-width="14.1667" enable-background="new    " cx="2608.029" cy="288.881" r="92.095"/>
	
		<circle opacity="0.02" fill="none" stroke="#DDDDDD" stroke-width="14.1667" enable-background="new    " cx="3239.554" cy="288.881" r="92.095"/>
	
		<circle opacity="0.0547" fill="none" stroke="#DDDDDD" stroke-width="14.1667" enable-background="new    " cx="2713.279" cy="288.881" r="92.095"/>
	
		<circle opacity="0.0547" fill="none" stroke="#DDDDDD" stroke-width="14.1667" enable-background="new    " cx="2818.533" cy="288.881" r="92.095"/>
	
		<circle opacity="0.0633" fill="none" stroke="#222222" stroke-width="14.1667" enable-background="new    " cx="2923.783" cy="288.881" r="92.095"/>
	<path opacity="0.0287" fill="none" stroke="#222222" stroke-width="14.1667" enable-background="new    " d="M3029.033,196.786
		c50.864,0,92.099,41.229,92.099,92.098c0,50.858-41.229,92.094-92.099,92.094c-50.858,0-92.094-41.229-92.094-92.094
		C2936.941,238.017,2978.174,196.786,3029.033,196.786z"/>
	
		<circle opacity="0.1413" fill="none" stroke="#DDDDDD" stroke-width="14.1667" enable-background="new    " cx="3134.304" cy="288.881" r="92.095"/>
</g>
<g>
	<g>
		<g id="XMLID_2_">
			<g>
				<path fill="#FFFFFF" d="M729.799,136.131c0.605,15.57,1.855,31.688-0.975,47.021c-1.12,6.063-4.025,12.78-10.33,14.479
					c-6.979,1.891-10.76-1.659-15.96-3.119c0-0.972-0.188-1.771-0.54-2.421l2.73-0.96c4.08,5.409,17.31-3.396,18.188-8.146
					c0.49-2.67,0.86-5.38,1.16-8.1c0.48-4.32,0.78-8.67,1.146-12.971c0.54-6.46,2.354-16.63,2.01-25.71L729.799,136.131z"/>
				<path fill="#FFFFFF" d="M701.993,192.092c-2.694-5.039-14.75-1.221-18.42-0.609c-3.38,0.563-7.17,0.12-10.21-1.565
					c-7.22-4.029,3.15-8.88,4.79-12.17c3.33,0,1.67-17.854,1.551-20.229c0-0.37,9.104-4.28,10.279-6.21
					c3.271-5.33-4.319-5.2-7.6-5.479c-13.685-1.174-16.17,22.341-18.88,31.896c-1.021,3.59-2.385,8.608-5.62,10.909
					c-4.92,3.479-3-9.891-2.771-10.899c1.94-8.775,5.12-20.01,9.761-27.945c2.5-4.271,10.529-9.211,13.925-14.211l2.285,0.576
					c-1.365,2.45-2.525,4.939-2.5,5.563c0.08,1.721,21.305-6.354,19.79,2.04c-1.351,7.53-9.051,13.646-9,21.011
					c0.021,2.47,9.805-2.932,10.555-4.432c4-1,8.51-5.709,12.93-4.24c5.2,1.721-0.329,7.721-3.569,7.721
					c-2.986,1.803,9.094,6.604,10.24,7.63c1.59,1.423,2.229,2.475,2.229,3.212c0,2.922-9.934,1.263-12.67-0.342
					c0-0.158-8.939-10.58-8.939-5.486c-2.061,0-10.42,5.681-12.54,6.852c-4.76,2.642-9.229,4.591-9.229,11.221
					c9.407,2.171,18.367-4.026,26.052-7.276c11.931-5.053-0.83,9.271-0.25,10.566c0.159,0.354,0.34,0.67,0.55,0.949L701.993,192.092
					z"/>
				<path fill="#FFFFFF" d="M722.435,120.751c-9.19-10.21-34.69-2.104-37.313,9.971c0.136-0.601-1.18,0,0,0
					c-0.694,0-2.5,2.689-4.035,5.43l-2.29-0.58c0.945-1.396,1.54-2.8,1.54-4.195c3.221-1.609,4.438-7.45,6.535-10.25
					c2.636-3.49,8.03-5.145,11.976-6.515c6.93-2.42,16.29-4.68,23.065-0.85c7.329,4.149,7.521,11.38,7.765,18.909
					c0.039,1.146,0.079,2.301,0.118,3.46l-2.568,0.08C726.974,130.072,725.743,124.432,722.435,120.751z"/>
			</g>
			<g>
				<path fill="none" stroke="#FFFFFF" stroke-miterlimit="10" d="M701.993,192.092c-2.694-5.039-14.75-1.221-18.42-0.609
					c-3.38,0.563-7.17,0.12-10.21-1.565c-7.22-4.029,3.15-8.88,4.79-12.17c3.33,0,1.67-17.854,1.551-20.229
					c0-0.37,9.104-4.28,10.279-6.21c3.271-5.33-4.319-5.2-7.6-5.479c-13.685-1.174-16.17,22.341-18.88,31.896
					c-1.021,3.59-2.385,8.608-5.62,10.909c-4.92,3.479-3-9.891-2.771-10.899c1.94-8.775,5.12-20.01,9.761-27.945
					c2.5-4.271,10.529-9.211,13.925-14.211c0.944-1.399,1.535-2.804,1.535-4.199c3.225-1.609,4.439-7.45,6.54-10.25
					c2.634-3.49,8.029-5.145,11.975-6.512c6.93-2.423,16.29-4.683,23.065-0.853c7.329,4.149,7.521,11.38,7.765,18.909
					c0.04,1.146,0.078,2.301,0.119,3.46c0.605,15.57,1.855,31.688-0.975,47.021c-1.119,6.063-4.025,12.78-10.329,14.479
					c-6.979,1.891-10.761-1.659-15.96-3.119C702.533,193.541,702.345,192.741,701.993,192.092z"/>
				<path fill="none" stroke="#FFFFFF" stroke-miterlimit="10" d="M685.124,130.722C683.945,130.722,685.26,130.121,685.124,130.722
					L685.124,130.722z"/>
				<path fill="none" stroke="#FFFFFF" stroke-miterlimit="10" d="M709.09,174.312c0-0.16-8.94-10.58-8.94-5.49
					c-2.06,0-10.42,5.685-12.54,6.854c-4.76,2.641-9.229,4.591-9.229,11.221c9.405,2.17,18.365-4.028,26.051-7.278
					c11.93-5.052-0.83,9.271-0.25,10.568c0.16,0.354,0.34,0.67,0.55,0.949c4.08,5.409,17.311-3.391,18.19-8.141
					c0.484-2.675,0.854-5.385,1.154-8.104c0.48-4.32,0.78-8.67,1.146-12.971c0.54-6.46,2.354-16.63,2.01-25.71
					c-0.25-6.145-1.479-11.779-4.79-15.46c-9.188-10.21-34.688-2.104-37.311,9.971"/>
				<path fill="none" stroke="#FFFFFF" stroke-miterlimit="10" d="M685.124,130.722c-0.694,0-2.5,2.689-4.034,5.43
					c-1.37,2.45-2.53,4.939-2.5,5.563c0.075,1.721,21.3-6.354,19.784,2.04c-1.35,7.525-9.05,13.646-9,21.011
					c0.021,2.47,9.806-2.932,10.556-4.432c4-1,8.51-5.709,12.93-4.24c5.2,1.721-0.33,7.721-3.57,7.721
					c-2.984,1.8,9.096,6.604,10.24,7.63c1.59,1.42,2.23,2.475,2.23,3.21c0,2.922-9.936,1.265-12.67-0.34h-0.016"/>
			</g>
		</g>
	</g>
	<g>
		<g id="XMLID_1_">
			<g>
				<path fill="#FFFFFF" d="M584.395,111.822c0.51,1.66,1.6,2.75,3.27,3.265c2.426,3.235,2.08,6.59,0.87,10.229
					c-1.5,4.489,0.4,4.473,3.79,3.319c4.37-1.47,11.766-6.93,16.33-6.51c19.9,1.855-11.62,23.985-10.54,27.58
					c0,10.352-9.979,8.46-13.159,16.54c-3.721,9.438-3.391,19.565-3.391,29.605c-1.688,0-1.17,7.771-4.64,0.199
					c-1.226-2.681-2.552-4.359-3.104-7.604c-0.81-4.775,1.25-15.311-1.158-18.855c-1.316-1.931-6.986-0.645-6.986-4.221
					c-4.74-2.358,2.83-5.174,2.83-6.75c10.656,0,7.12-15.225,0.55-10.87c-3.21,2.141-5.38,4.311-8.09,7.196
					c-2.44,2.604-4.305,9.063-7.87,6.975c-7.8-4.563-9.82-22.3-2.32-27.871c4.25-3.149,3.68,13.25,4.01,13.25
					c0,10.729,12.5-2.739,16.61-6.313c5.979-5.195,4.31-10.64,8.06-16.3c2.136-3.239-1.72-14.141,4.896-12.88
					C583.945,111.812,584.395,112.982,584.395,111.822z M588.743,142.732c3.936,1,5.7,6.104,7.936,0.09
					c1.59-4.26,6.979-5.05,7.814-10.3c0.813-5.065-17.814,1.645-15.79,10.04C588.719,142.612,588.724,142.671,588.743,142.732z"/>
			</g>
			<g>
				<path fill="none" stroke="#FFFFFF" stroke-miterlimit="10" d="M584.395,111.822c0.51,1.66,1.6,2.75,3.27,3.265
					c2.426,3.235,2.08,6.59,0.87,10.229c-1.5,4.489,0.4,4.473,3.79,3.319c4.37-1.47,11.766-6.93,16.33-6.51
					c19.9,1.855-11.62,23.985-10.54,27.58c0,10.352-9.979,8.46-13.159,16.54c-3.721,9.438-3.391,19.565-3.391,29.605
					c-1.688,0-1.17,7.771-4.64,0.199c-1.226-2.681-2.552-4.359-3.104-7.604c-0.81-4.775,1.25-15.311-1.158-18.855
					c-1.316-1.931-6.986-0.645-6.986-4.221c-4.74-2.358,2.83-5.174,2.83-6.75c10.656,0,7.12-15.225,0.55-10.87
					c-3.21,2.141-5.38,4.311-8.09,7.196c-2.44,2.604-4.305,9.063-7.87,6.975c-7.8-4.563-9.82-22.3-2.32-27.871
					c4.25-3.149,3.68,13.25,4.01,13.25c0,10.729,12.5-2.739,16.61-6.313c5.979-5.195,4.31-10.64,8.06-16.3
					c2.136-3.239-1.72-14.141,4.896-12.88C584.355,111.812,584.374,111.822,584.395,111.822c0,1.16-0.45-0.01-0.05-0.01"/>
				<path fill="none" stroke="#FFFFFF" stroke-miterlimit="10" d="M588.743,142.732c3.936,1,5.7,6.104,7.936,0.09
					c1.59-4.26,6.979-5.05,7.814-10.3c0.813-5.065-17.814,1.645-15.79,10.04C588.719,142.612,588.724,142.671,588.743,142.732
					c0.57,0.149-0.146-0.815-0.04-0.17"/>
			</g>
		</g>
	</g>
	<g>
		<path fill="#FFFFFF" stroke="#FFFFFF" stroke-miterlimit="10" d="M741.071,260.563c-0.538,2,1.693,5.26,1.604,7.491
			c-0.11,2.724-1.604,5.775-1.604,8.681c1.578,1.267,13.729-0.716,13.813,0.944c-4.83,0-7.354,2.328-9.03,6.17
			c-0.233,0.535-4.587,8.822-4.587,8.3c-1.588,0-16.819-7.123-17.022-8.134c4.003,0,24.739,7.711,17.401-3.309
			c-4.313,0-8.652,0.11-12.948,0.506c-1.073,0.099-13.828,1.701-11.968-0.729c3.974-5.194,17.479,3.795,20.563-3.683
			c1.389-3.354,3.575-9.104-1.203-10.35c-5.615-1.474,6.436-9.158,7.607-11.095c1.227-2.004,4.313-6.715-0.143-6.953
			c-5.023-0.268-7.844,4.316-11.252,7.701c-2.669,2.646-2.748,7.808-5.946,9.455c-4.161,2.147-2.327-7.147-0.527-9.123
			c1.923-2.104,13.644-15.813,9.283-16.183c-3.724-0.315-7.667,0.572-7.745-4.861c-0.093-6.453,7.125,1.618,10.087,1.563
			c1.71-0.035,8.046-8.914,9.265-4.397c0.712,2.646-7.488,8.241-3.082,9.168C753.635,243.83,747.948,258.729,741.071,260.563
			C740.974,260.926,741.393,260.476,741.071,260.563z"/>
	</g>
	<g>
		<path fill="#FFFFFF" stroke="#FFFFFF" stroke-miterlimit="10" d="M1076.395,233.235c-0.546,1.938-8.178,1.695-9.835,1.703
			c-2.421-4.558,6.359-5.013,8.821-4.929C1080.26,230.174,1081.143,231.994,1076.395,233.235
			C1075.849,235.17,1076.608,233.18,1076.395,233.235z"/>
		<path fill="#FFFFFF" stroke="#FFFFFF" stroke-miterlimit="10" d="M1088.783,244.11c0,3.44-6.511,8.136-9.056,9.646
			c-7.232,4.312,2.625-6.149,2.625-7.28c-2.106-1.584-9.293,1.084-11.919,1.604c-5.092,1.01-9.881,2.625-14.611,4.254
			c-3.715,1.281-11.17,8.244-13.334,4.19c-1.688-3.17,5.063-7.812,7.438-10.09c1.854-1.785,3.727-3.592,5.729-5.211
			c1.49-1.201,1.231-3.479,3.584-3.771c10.087-1.246-1.357,10.205,1.167,10.719C1069.733,250.067,1079.726,241.653,1088.783,244.11
			C1088.783,246.155,1088.573,244.053,1088.783,244.11z"/>
		<path fill="#FFFFFF" stroke="#FFFFFF" stroke-miterlimit="10" d="M1069.018,256.026c1.08,0.308,9.269,3.978,9.269,1.606
			c7.148,0-4.173,3.879-5.188,4.342c-5.267,2.396-1.688,6.771-0.063,10.021c0.967,1.926,2.118,4.27,1.956,6.485
			c-0.213,2.935-3.754,4.563-3.04,8.096c1.727,0,4.271-0.362,5.756-1.265c1.948-1.176,6.024-4.131,8.435-4.131
			c0-0.905,3.792-2.889,2.587-4.416c-0.408-0.52-3.297-5.145-0.979-5.229c0,1.885,7.123,9.489,6.144,10.521
			c-0.959,1.009-7.085-0.741-7.085,0.822c-4.798,1.598-9.466,5.701-14.611,5.185c-3.716-0.371-0.611-6.328-0.271-8.345
			c0.396-2.348,0.157-4.748-1.19-6.771c-2.932,0-3.809,3.98-4.396,6.146c-0.97,3.561-2.767,5.459-5.542,7.943
			c-2.059,1.836-6.714,5.193-6.805,0.092c2.369-1.771,5.229-2.826,7.354-4.948c0.781-0.783,3.082-4.25,2.682-4.739
			c-3.025-3.7-7.786,1.609-10.146,3.813c-1.213,1.127-5.083,3.123-5.083,5.023c-2.354,0.938-5.091-0.919-2.281-2.742
			c5.578-3.628,12.146-6.835,17.082-11.408c4.846-4.49,0.051-3.246-2.244-5.877c-1.109-1.274-3.504-6.379,0.201-7.104
			c-0.128,0.025,2.51,2.533,2.813,2.705c2.317,1.307,0.775-1.177,0.813-1.929C1065.264,257.899,1068.101,252.535,1069.018,256.026
			C1069.384,256.127,1068.876,255.487,1069.018,256.026z"/>
	</g>
	<g>
		<g id="XMLID_6_">
			<g>
				<path fill="#FFFFFF" d="M843.235,247.461c6.65,3.065,13.9,16.091,9.37,23.631c-5.021,8.38-3.979,17.688-16.36,16.84
					c0-0.989-18.06-8.949-20.25-10.521c-3.814-2.75-4.774,0.896-5.828,5.229l-0.979-0.229c2.1-8.92-0.271-23.96-0.95-25.305v-0.01
					c0.05-0.04,0.04-0.09-0.08-0.09c-4.31,3.539-12.79,5.188-17.56,9.81l-0.65-0.71c2.74-2.525,5.84-4.729,8.7-6.771
					c3.26-2.319,7.72-3.159,11.21-5.271c5.8-3.52,0.46-6.51-4.25-4.63c0-1.188,6.99-8.09,8.36-9.521
					c5.234-5.489,4.188,2.92,3.77,5.881c-0.814,5.77,7.15,3.229,8.73-0.07c3.438-7.16-3.33-2.851-6.21-2.63
					c-0.48-1.271,3.564-5.12,4.365-5.91c2.435-2.355,5.104-0.188,7.725,0.435c-0.08,0-0.08,0.155-0.051,0.34
					c-0.659,1.815-5.819,8.83-1.924,8.83C830.374,246.842,842.014,246.902,843.235,247.461z M851.155,267.562
					c1.69-11.24-6.688-20.24-17.67-18.729c-14.188,1.938-7.37,11.391-4.896,20.261c0,0.01,0,0.01,0,0.021
					c0.616,0.16,3.024,2.854,2.17,3.685c-2.7,2.605-6.96-2.104-10.48,3.431c-2.47,3.87,9.15,7.38,11.521,7.935
					c0,2.931,12.55,2.211,13.43-1.329C848.605,281.132,850.624,271.121,851.155,267.562z M822.177,254.232
					c0.56-2.438-3.9-3.01-3.9-2.605c-5.08,0-6.34,8.971-6.13,12.688c1.31,22.75,17.521,0.479,7.569-1.815
					c0.235,0,0.091-1.03,0.021-0.689C819.985,259.152,821.605,256.762,822.177,254.232z"/>
				<path fill="#FFFFFF" d="M809.185,282.411l0.979,0.229c-0.824,3.399-1.72,7.221-4.115,8.681
					c-4.104,2.49-25.229-9.575-22.975-15.641c1.4-3.739,3.936-6.851,6.87-9.569l0.65,0.71c-1.59,1.54-2.771,3.41-3.25,5.79
					c-3.33,0,0.99,8.895,2.16,9.819c3.55,2.801,7.75,4.899,12.17,6.229C805.895,289.922,808.124,286.971,809.185,282.411z"/>
				<path fill="#FFFFFF" d="M800.985,234.411c3.71-3.225,5.182,0.471,3.01,0.471c-0.024,0.119-0.05,0.21-0.064,0.271
					c-2.4,8.37-17.014,18.813,0.92,14.67c0,7.885-22.69,6.07-11.96-4.21C796.203,242.432,797.323,237.602,800.985,234.411z"/>
			</g>
			<g>
				<path fill="none" stroke="#FFFFFF" stroke-miterlimit="10" d="M803.927,235.152c-0.08,0.345,0.119-0.271,0.064-0.271"/>
				<path fill="none" stroke="#FFFFFF" stroke-miterlimit="10" d="M803.993,234.882c-0.024,0.119-0.05,0.21-0.064,0.271
					c-2.4,8.37-17.016,18.813,0.92,14.67c0,7.885-22.69,6.07-11.96-4.21c3.315-3.18,4.438-8.01,8.1-11.195
					C804.695,231.192,806.164,234.882,803.993,234.882"/>
				<path fill="none" stroke="#FFFFFF" stroke-miterlimit="10" d="M832.365,237.621c0.021,0.065-0.01,0.188-0.064,0.34
					c-0.66,1.815-5.82,8.83-1.923,8.83c0,0.051,11.643,0.105,12.857,0.67c6.65,3.065,13.9,16.091,9.37,23.631
					c-5.021,8.38-3.979,17.688-16.36,16.84c0-0.989-18.06-8.949-20.25-10.521c-3.814-2.75-4.774,0.896-5.826,5.229
					c-0.828,3.399-1.724,7.221-4.118,8.681c-4.104,2.49-25.23-9.575-22.976-15.641c1.4-3.739,3.936-6.851,6.87-9.569
					c2.74-2.525,5.84-4.729,8.7-6.771c3.26-2.319,7.72-3.159,11.21-5.271c5.8-3.521,0.46-6.51-4.25-4.63
					c0-1.188,6.99-8.09,8.36-9.521c5.234-5.489,4.188,2.92,3.77,5.88c-0.814,5.771,7.15,3.229,8.73-0.069
					c3.438-7.16-3.33-2.851-6.21-2.63c-0.48-1.271,3.564-5.12,4.365-5.91c2.435-2.355,5.104-0.188,7.725,0.435
					C832.355,237.621,832.355,237.621,832.365,237.621c0.29,1.396,0.011,0.801-0.064,0.34c-0.03-0.185-0.03-0.34,0.05-0.34"/>
				<path fill="none" stroke="#FFFFFF" stroke-miterlimit="10" d="M828.59,269.112c0.614,0.16,3.024,2.854,2.17,3.685
					c-2.7,2.605-6.96-2.104-10.48,3.431c-2.47,3.87,9.15,7.38,11.521,7.933c0,2.933,12.55,2.211,13.43-1.327
					c3.38-1.689,5.4-11.7,5.93-15.266c1.69-11.234-6.688-20.234-17.67-18.729c-14.188,1.938-7.37,11.391-4.896,20.261
					C828.59,269.101,828.59,269.101,828.59,269.112c1.1,0.279,0-0.21,0-0.021"/>
				<path fill="none" stroke="#FFFFFF" stroke-miterlimit="10" d="M819.735,261.801c0.07-0.341,0.22,0.688-0.02,0.688"/>
				<path fill="none" stroke="#FFFFFF" stroke-miterlimit="10" d="M819.695,262.491c0-0.185,0.01-0.359,0.021-0.54
					c0-0.055,0.01-0.095,0.01-0.135c0.01-0.011,0.01-0.021,0.01-0.021c0.25-2.649,1.87-5.039,2.44-7.569
					c0.56-2.438-3.9-3.01-3.9-2.605c-5.08,0-6.34,8.971-6.13,12.688c1.31,22.75,17.521,0.479,7.569-1.82
					C819.703,262.491,819.703,262.491,819.695,262.491c0-0.25,0.01-0.425,0.021-0.54c0-0.055,0.01-0.104,0.01-0.135"/>
				<path fill="none" stroke="#FFFFFF" stroke-miterlimit="10" d="M808.235,257.102c0.05-0.04,0.04-0.09-0.08-0.09
					c-4.31,3.539-12.79,5.188-17.56,9.81c-1.59,1.54-2.771,3.41-3.25,5.79c-3.33,0,0.989,8.895,2.16,9.819
					c3.55,2.801,7.75,4.899,12.17,6.229c4.22,1.261,6.444-1.689,7.51-6.25c2.1-8.925-0.271-23.96-0.95-25.305V257.102
					c-0.03-0.062-0.06-0.09-0.08-0.09c-0.479,0.39-0.04,0.22,0.08,0.1"/>
			</g>
		</g>
	</g>
	<g>
		<g id="XMLID_9_">
			<g>
				<path fill="#FFFFFF" d="M1144.474,269.301c0-0.471-3.92,0.021,0,0.021c-3.98,0,3.02,9.109,3.02,6.725
					C1152.544,276.041,1145.605,265.121,1144.474,269.301z M1145.605,239.822c0,1.79,10.87-1.445,12-1.729
					c3.021-0.729,15.71-10.359,13.062-1.131c0-0.318-3.142,0.021,0,0.021c-2.979,0-3.562,7-3.396,7c0,5.685-3.29,7.359-5.55,12.21
					c-5.5,11.779,3.72,4.813,10.47,4.813c0-0.01,3.59-0.579,2.1,3.355c-1.6,4.265-0.67,7.395-0.438,11.449
					c0.197,3.341,6.58,10.396,0.488,10.604c-4.729,0.17-8.068,1.525-12.698,2.79c-12.271,3.351,6.8-7.399,7.79-9.17
					c4.33-7.726,0.197-15.07-7.24-13.03c-5.47,1.5-3.99-0.354-6.68-3.771c-2.62-3.341-3.86-1.271-3.976,1.979
					c-0.1,2.79,2.091,21.511-0.909,22.271c-2.011,0.515-6.235-10.171-7.171-11.921c-4.76-8.96-4.646,3.36-7.485,1.33
					c0-1.896-4.239-8.396-6.609-7.146c-3.45,1.84-1.4,8.896-6.813,4.04c-4.537-4.08,1.91-16.66,4.149-20.925
					c0.3-0.565,3.7,6.439,1.229,6.439c0.275,7.439,5.381,3.33,8.315,0.061c2.24-2.485,13.104-14.315,16.49-9.865
					c1.563,2.05-2.78,3.729-0.25,6.235c3.063,3.029,4.53-3.896,7.03-3.896c0-2.159,5.525-4.96,5.21-6.313
					c-0.53-2.315-4.94-4.96-7.186-4.855c-4.409,0.21-10.485,4.735-16.485,2.891c-7.521-2.318-2.094-11.856,3.985-13.38
					C1145.044,232.862,1140.345,239.161,1145.605,239.822z M1140.51,266.592c5.42-0.939,9.71-10.771,1.14-8.439
					c-0.021,0-0.05,0-0.1,0.021C1141.544,258.781,1134.445,267.641,1140.51,266.592z"/>
			</g>
			<g>
				<path fill="none" stroke="#FFFFFF" stroke-miterlimit="10" d="M1170.664,236.982c-2.979,0-3.56,7-3.396,7
					c0,5.685-3.29,7.359-5.552,12.21c-5.5,11.779,3.722,4.813,10.472,4.813c0-0.01,3.59-0.579,2.1,3.355
					c-1.6,4.265-0.67,7.395-0.438,11.449c0.198,3.341,6.58,10.396,0.488,10.604c-4.729,0.17-8.068,1.525-12.698,2.79
					c-12.271,3.351,6.8-7.399,7.79-9.171c4.33-7.725,0.198-15.069-7.24-13.029c-5.47,1.5-3.99-0.354-6.68-3.771
					c-2.62-3.341-3.86-1.271-3.976,1.979c-0.1,2.79,2.091,21.511-0.909,22.271c-2.011,0.515-6.235-10.171-7.171-11.921
					c-4.76-8.96-4.646,3.36-7.485,1.33c0-1.896-4.239-8.396-6.609-7.146c-3.45,1.84-1.4,8.896-6.813,4.04
					c-4.538-4.08,1.908-16.66,4.148-20.925c0.301-0.565,3.7,6.439,1.229,6.439c0.275,7.439,5.381,3.33,8.315,0.061
					c2.24-2.485,13.104-14.315,16.49-9.865c1.562,2.05-2.78,3.729-0.25,6.235c3.062,3.029,4.53-3.896,7.03-3.896
					c0-2.159,5.524-4.96,5.21-6.313c-0.53-2.315-4.94-4.96-7.186-4.855c-4.408,0.21-10.485,4.735-16.485,2.891
					c-7.521-2.318-2.093-11.856,3.987-13.38c0,2.688-4.696,8.989,0.563,9.649c0,1.788,10.87-1.45,12-1.729
					c3.02-0.729,15.71-10.358,13.061-1.131C1170.664,236.972,1170.664,236.972,1170.664,236.982c-3.14,0,0-0.34,0-0.021"/>
				<path fill="none" stroke="#FFFFFF" stroke-miterlimit="10" d="M1141.544,258.172c0,0.604-7.1,9.47-1.034,8.42
					c5.42-0.939,9.709-10.771,1.14-8.439C1141.624,258.152,1141.595,258.152,1141.544,258.172c0,0.051,0.146-0.021,0.104-0.021"/>
				<path fill="none" stroke="#FFFFFF" stroke-miterlimit="10" d="M1144.474,269.322c-3.98,0,3.02,9.109,3.02,6.725
					c5.056,0-1.89-10.92-3.02-6.739C1144.474,269.312,1144.474,269.312,1144.474,269.322c-3.92,0,0-0.485,0-0.021"/>
			</g>
		</g>
	</g>
	<g>
		<g id="XMLID_7_">
			<g>
				<path fill="#FFFFFF" d="M908.719,272.001c0.88-3.475-0.13-7.609-4.48-5.079c-4.37,2.539,0.78,6.688,4.38,5.489
					c0.04-0.149,0.07-0.25,0.08-0.319C908.719,272.062,908.719,272.031,908.719,272.001z M914.573,270.721
					c2.17-1.811,0.24-3.931-1.71-4.359c-0.55,0.185-0.78,0.271-0.83,0.313c0.03,0,0.146-0.03,0.271-0.063
					C909.26,268.322,910.073,274.482,914.573,270.721z M912.164,251.142c6.885-0.261,7.75-15.63,0.73-11.91
					c-1.58,0.83-8.59,3.62-7.87,5.41c0.95,2.34,5.14,4.71,5.57,6.3C914.624,252.031,913.51,251.522,912.164,251.142z
					 M924.304,244.612c3.854,0,1.5-7.1-1.42-7.1c-0.24,0.198-0.476,0.409-0.69,0.608c-0.105,0.102-0.188,0.181-0.25,0.235
					c-0.03,0.021-0.06,0.055-0.08,0.08c-0.93,0.91-1.59,1.899-1.729,3.37C919.914,244.072,921.799,247.932,924.304,244.612z
					 M927.993,239.602c1.24,0,0.056,4.949-0.13,5.46c-0.75,2.12-3.75,3.725-5.62,4.8c-2.896,1.675-12.43,6.54-9.76,11.189
					c1.93,3.34,8.83,6.449,4.22,10.25c-1.26,1.029-6.88,4.25-6.694,5.58c0.146,1.13,3.14,3.659,3.14,3.47
					c1.4,0,8.97,0.78,8.061,2.899c-0.791,1.851-4.945,1.601-6.525,1.671c-2.86,0.119-2.271,1.76-4.86,2.84
					c-2.24,0.939-4.92,1.391-7.35,1.391c0-1.025-0.21-2.391,1.17-2.37c2.38,0.029,2.56-0.354,4.55-1.431c4.66-2.5,0-2.59-1.96-3.08
					c-3.74-0.938,0.646-6.369-2.8-8.489c-1.313-0.8-8.063-5.229-4.75-6.729c7.25-3.279,12.479-6.13,7.525-14.109
					c-0.721-1.155-1.616-2.29-2.229-3.51c-2.42-0.801-2.75,1.229-4.82,1.229c-0.06,0.79,0.5,9.851-1.13,9.221
					c-1.13-0.431-1.438-6.141-3.029-4.351c-1.721,1.93-2.96,4.195-4.341,6.354c-0.1,0.149-0.198,0.301-0.3,0.46
					c1.979-3.811,2.852-9.989,3.45-12.188c1.37-5.055,5.5-8.859,10.45-10h0.01C904.264,235.301,926.224,232.482,927.993,239.602z"/>
				<path fill="#FFFFFF" d="M889.09,242.842c0.104-1.841,0.31-6.96-2.74-5.011c-0.82,0.521-4.01,4.562-4.65,4.5
					c-0.68-0.063,0.62-3.84,0.73-4.239c0.405-1.479,3.484-3.399,4.869-3.931c4.188-1.595,3.229,4.812,3.041,6.771
					c-0.266,2.521-0.726,5.068-1.24,7.648l-0.76-0.148C888.719,246.572,888.974,244.711,889.09,242.842z"/>
				<path fill="#FFFFFF" d="M881.224,269.291c-0.396-5.989-4.23-8.46-5.63-13.895c-1.75-6.87,2.68-3.42,4.64,0.63
					c0.26,0.54,1.771,3.71,0.19,3.71c0,3.805,2.62,6.2,4.06,1.859c1.41-4.279,2.95-8.699,3.854-13.169l0.761,0.148
					c-1.13,5.646-2.521,11.391-2.521,16.931c1.03,0,1.91-0.54,2.65-1.431c-2.53,3.825-5.33,8.141-5.76,12.146
					c-0.17,1.551-2.24,3.181-2.17,1.021C881.395,274.601,881.405,271.942,881.224,269.291z"/>
			</g>
			<g>
				<path fill="none" stroke="#FFFFFF" stroke-miterlimit="10" d="M904.264,240.161c0-4.858,21.96-7.685,23.729-0.563
					c1.24,0,0.056,4.95-0.13,5.46c-0.75,2.12-3.75,3.72-5.62,4.8c-2.896,1.67-12.43,6.54-9.76,11.189
					c1.93,3.34,8.83,6.449,4.22,10.25c-1.26,1.029-6.88,4.25-6.7,5.58c0.15,1.13,3.146,3.659,3.146,3.47
					c1.396,0,8.97,0.78,8.06,2.899c-0.789,1.851-4.944,1.601-6.524,1.671c-2.86,0.119-2.271,1.76-4.86,2.84
					c-2.24,0.938-4.92,1.391-7.35,1.391c0-1.025-0.21-2.391,1.17-2.37c2.38,0.029,2.56-0.354,4.55-1.431c4.66-2.5,0-2.59-1.96-3.079
					c-3.74-0.938,0.648-6.37-2.8-8.49c-1.313-0.8-8.063-5.229-4.75-6.729c7.25-3.279,12.479-6.13,7.525-14.109
					c-0.721-1.158-1.616-2.29-2.229-3.51c-2.42-0.801-2.75,1.229-4.82,1.229c-0.06,0.788,0.5,9.851-1.13,9.221
					c-1.13-0.433-1.438-6.144-3.03-4.354c-1.72,1.934-2.959,4.199-4.34,6.358c-0.1,0.148-0.199,0.301-0.3,0.46
					c-0.36,0.563-0.74,1.142-1.13,1.729c-2.53,3.828-5.33,8.143-5.76,12.147c-0.17,1.55-2.24,3.181-2.17,1.021
					c0.1-2.648,0.104-5.313-0.07-7.961c-0.395-5.987-4.23-8.46-5.63-13.893c-1.75-6.87,2.68-3.42,4.64,0.63
					c0.26,0.54,1.771,3.71,0.19,3.71c0,3.803,2.62,6.2,4.06,1.859c1.41-4.279,2.95-8.699,3.854-13.169
					c0.381-1.86,0.641-3.724,0.75-5.591c0.105-1.844,0.311-6.961-2.739-5.015c-0.82,0.521-4.011,4.563-4.65,4.5
					c-0.68-0.061,0.62-3.841,0.73-4.235c0.405-1.479,3.484-3.399,4.868-3.936c4.188-1.59,3.229,4.813,3.037,6.771
					c-0.261,2.52-0.721,5.064-1.235,7.646c-1.13,5.649-2.521,11.395-2.521,16.934c1.03,0,1.91-0.539,2.65-1.434
					c0.42-0.479,0.79-1.066,1.13-1.729c1.979-3.813,2.852-9.989,3.45-12.189c1.37-5.05,5.5-8.854,10.45-10V240.161
					c0-3.451-0.33-0.001-0.011-0.001"/>
				<path fill="none" stroke="#FFFFFF" stroke-miterlimit="10" d="M921.865,238.442c-0.396,0.479,1.57-0.93,1.021-0.93"/>
				<path fill="none" stroke="#FFFFFF" stroke-miterlimit="10" d="M922.195,238.121c-0.104,0.102-0.188,0.182-0.25,0.235"/>
				<path fill="none" stroke="#FFFFFF" stroke-miterlimit="10" d="M922.885,237.512c-0.24,0.198-0.475,0.409-0.69,0.608
					c-0.09,0.08-0.17,0.155-0.25,0.235c-0.028,0.021-0.06,0.055-0.08,0.08c-0.93,0.91-1.59,1.899-1.729,3.37
					c-0.22,2.26,1.66,6.12,4.17,2.8C928.164,244.612,925.804,237.512,922.885,237.512"/>
				<path fill="none" stroke="#FFFFFF" stroke-miterlimit="10" d="M910.595,250.942c0.55,0.149,1.08,0.21,1.564,0.2
					c6.884-0.261,7.75-15.63,0.73-11.91c-1.58,0.83-8.59,3.62-7.87,5.41C905.974,246.982,910.164,249.352,910.595,250.942
					c4.024,1.095,2.91,0.58,1.564,0.2C911.385,250.911,910.533,250.732,910.595,250.942z"/>
				<path fill="none" stroke="#FFFFFF" stroke-miterlimit="10" d="M908.719,271.991v0.01c-0.021-0.01-0.171,0.431-0.104,0.41"/>
				<path fill="none" stroke="#FFFFFF" stroke-miterlimit="10" d="M908.615,272.411c0.04-0.149,0.07-0.25,0.08-0.319
					c0.021-0.029,0.021-0.063,0.021-0.091c0.88-3.475-0.13-7.609-4.48-5.079C899.865,269.461,905.014,273.612,908.615,272.411"/>
				<path fill="none" stroke="#FFFFFF" stroke-miterlimit="10" d="M912.025,266.672c0,0,0,0,0.01,0c0.03,0,0.146-0.03,0.271-0.063
					c0.29-0.08,0.688-0.221,0.56-0.25c-0.194,0.069-0.38,0.149-0.56,0.25c-3.05,1.71-2.23,7.87,2.27,4.109
					c2.171-1.811,0.24-3.931-1.71-4.359c-0.55,0.185-0.774,0.271-0.83,0.313"/>
			</g>
		</g>
	</g>
	<g>
		<path fill="#FFFFFF" stroke="#FFFFFF" stroke-miterlimit="10" d="M914.01,139.856c-1.119,4.188-2.283-1.104-2.396,4.789
			c5.326,2.457,22.626-19.229,27.438-1.261c2.263,8.457-14.25,16.248-15.896,22.813c-1.709,0-1.438,14.22,0.521,15.773
			c2.976,2.364,18.652-4.265,12.543,4.907c-9.048,0-9.3,8.174-14.957,13.063c-4.048,3.502-20.964,5.854-20.964-3.271
			c5.054-1.899,10.96,4.91,15.966,1.676c2.121-1.371,7.396-9.832,1.42-9.199c-4.032,0.432-14.354,3.292-17.271-0.827
			c-2.851-4.021,10.871-3.322,12.567-3.645c4.672-0.871,5.179-4.095,4.104-8.3c-1.76-6.891-1.372-5.81-6.911-3.979
			c-5.554,1.834,0.397-6.86,3.389-8.042c5.765-2.271,9.894-2.604,13.96-7.688c3.475-4.342,7.154-7.771,4.491-13.735
			c-1.202-2.688-10.293,0.091-11.381,1.075c-3.562,3.216-8.826,4.213-12.203,7.671c-3.687,3.771-6.104,8.76-9.329,12.903
			c-2.438,3.123-4.438,5.082-6.385,1.072c-1.37-2.813,5.964-10.411,7.573-12.354c3.639-4.379,6.802-9.38,10.104-14.015
			c3.438-4.819,12.04-14.736,12.107-20.772c-5.729-2.994-9.975,16.024-15.133,14.793c-4.054-0.967-6.979-5.315-1.271-6.133
			c4.63-0.661,8.084-4.686,11.2-8.231c3.185-3.622,6.834-9.564,13.126-6.286c5.71,2.979-2.265,8.78-3.392,11.259
			C924.971,128.444,917.997,138.692,914.01,139.856C912.691,144.772,914.781,139.629,914.01,139.856z"/>
	</g>
	<g>
		<path fill="#FFFFFF" stroke="#FFFFFF" stroke-miterlimit="10" d="M487.552,262.506c3.873,0,9.308-0.416,12.771-2.242
			c2.349-1.235,5.586-5.983,7.654-5.983c1.604,6.47-10.951,9.194-15.521,10.084c-11.501,2.233-9.803,10.854-18.472,16.313
			c-2.542,1.603-6.304,6.826-9.285,6.66c-5.538-0.313,1.703-5.478,2.578-5.926c6.581-3.404,7.597-8.105,3.136-12.951
			c-0.464-0.504-7.646-8.187-4.221-9.063c4.755-1.228,9.013,9.313,14.082,2.372c4.045-5.538,5.422-13.555,6.396-20.188
			c1.165-7.935,3.521-10.112,4.266-0.578C491.487,248.158,485.993,256.561,487.552,262.506
			C489.218,262.506,487.489,262.285,487.552,262.506z"/>
		<path fill="#FFFFFF" stroke="#FFFFFF" stroke-miterlimit="10" d="M491.235,274.612c4.396,0,10.412,3.19,12.398,9.563
			c1.479,4.746-9.479,9.205-12.896,6.658c-1.596-1.189,8.966-2.402,8.908-5.646C499.533,278.793,492.427,278.728,491.235,274.612
			C491.031,274.612,491.346,274.996,491.235,274.612z"/>
	</g>
	<g>
		<path fill="#FFFFFF" stroke="#FFFFFF" stroke-miterlimit="10" d="M1050.613,130.837c-6.622-1.316-15.467,14.368-22.854,14.368
			c0-3.749,8.691-6.998,8.437-11.437c-0.217-3.676-3.301-7.502-3.396-11.428c-0.118-4.822,7.587-16.771,7.587-6.748
			c0.931,3.234-5.077,14.618,1.68,14.559c5.015-0.046,10.923-9.438,15.749-2.362c2.87,4.205-0.316,11.189-3.456,14.342
			c-2.472,2.479-12.938,6.271-8.541,2.346C1048.615,141.975,1051.399,133.99,1050.613,130.837
			C1049.83,130.682,1050.685,131.127,1050.613,130.837z"/>
		<path fill="#FFFFFF" stroke="#FFFFFF" stroke-miterlimit="10" d="M1013.387,129.531c1.099,4.276-7.958,22.634,0.798,18.319
			c5.698-2.806,8.659-14.396,15.094-14.396c0.668,4.711-5.935,7.588-2.177,11.973c-4.53,0,6.086,5.433,5.505,5.075
			c3.676,2.253-10.229,14.859-8.335-0.286c-2.415,0-3.966,2.854-5.421,4.295c-2.595,2.57-5.957,0.749-8.462,3.117
			c-1.558,1.472-2.414,3.479-3.923,4.992c-1.799,1.797-5.942,0.94-4.138-2.146c3.923-6.718,2.146-15.108,5.88-23.07
			c3.021-6.438-4.773-2.963-6.814-0.215c-1.012,1.362-9.202,10.222-10.493,4.021C989.892,136.362,1010.508,128.749,1013.387,129.531
			C1014.84,135.165,1012.896,129.398,1013.387,129.531z"/>
		<path fill="#FFFFFF" stroke="#FFFFFF" stroke-miterlimit="10" d="M988.569,193.751c-3.042-11.06,1.37-25.005,1.613-36.634
			c0.02-0.947-0.521-10.063,1.1-9.555c2.996,0.946,4.528,4.014,5.356,6.656c2.438,7.806,1.911,14.068-0.25,21.832
			C994.76,181.914,1000.113,196.688,988.569,193.751C986.205,185.164,989.09,193.883,988.569,193.751z"/>
		<path fill="#FFFFFF" stroke="#FFFFFF" stroke-miterlimit="10" d="M1063.677,165.884c0.553,2.944,5.571,21.638,2.785,22.423
			c-3.298,0.926-4.992,0.967-7.886,2.132c-9.048,3.648-25.426,10.271-24.482-5.424c0.061-1.015,1.365-13.304-2.421-10.741
			c-4.063,2.748-6.765,7.912-11.056,10.113c-2.271,1.166-3.926,2.816-6.728,2.424c-1.833-0.259-4.386-1.791-1.159-2.854
			c0.232-0.293,16.7-16.109,11.32-16.109c0,2.521-9.631-1.259-8.243-3.205c2.353-3.303,11.924-0.864,15.317-2.479
			c3.641-1.734,9.026-5.271,12.231-0.911c1.243,1.688-3.146,4.243-4.012,4.794c-3.188,2.024-1.854,3.8-0.193,6.885
			c2.209,4.105-0.948,7.806-0.063,12.271c0.936,4.716,10.78,2.563,13.601,1.655C1061.542,184.006,1058.566,166.045,1063.677,165.884
			C1064.602,170.826,1062.229,165.931,1063.677,165.884z"/>
	</g>
	<g>
		<g id="XMLID_5_">
			<g>
				<path fill="#FFFFFF" d="M834.719,131.281c0.34,5.33,5.39,10.595,3.904,16.104c-1.35,5.021-4.774,9.811-6.534,14.83
					c-3.28,9.396-3.063,17.711-1.87,27.602c0.18,1.5,0.17,17.99-3.266,10.725c-1.72-3.66-0.27-9.384-2.774-12.54
					c-2.32-2.938-5.83-11.21-5.476-15.25c0.61-7-0.09-6.25-6.13-8.229c-5.3-1.729-5.39-10.931-0.04-8.396
					c2.146,1.011,6.015,4.091,7.563,4.921c0.06,0.105,0.21,0.197,0.526,0.22c0.804-2.8,2.278-8.76,0.014-11.199
					c-3.45-3.71-10.07-4.96-6.86-11.449c1.932-3.892,4.25-9.789,9.681-9.789c4.399-1.472,3.145-9.868,4.345-13.107
					c3.51-9.5,4.93,0.92,7.194,0.92C834.993,121.512,834.405,126.381,834.719,131.281z M819.105,141.871
					c6.36,4.25,8.33-7.62,3.479-7.62c-0.104,0.105-0.189,0.21-0.279,0.311C819.845,137.201,819.105,137.631,819.105,141.871z"/>
				<path fill="#FFFFFF" d="M792.323,149.112c0.24,2.645-0.896,8.939,1.53,10.71c2.7,1.975,8.79-10.325,11.75-10.325
					c-2.12,9.89-11.92,15.22-11.21,25.42c0.27,3.931,1.02,11.471-0.91,15.021c-1.27,2.318-1.9,5.229-5.2,3.438
					c-0.854-0.46-7.188-3.12-6.438-4.67c1.438-3.015,9.54,0.525,8.85-5.229c-0.26-2.271-2.064-4.812-2.064-6.99
					c-4-2.38-4.44,3.71-7.62,3.71c-4.16,8.04-7.11,6.83-9.49-0.565c-2.41-7.489,9.32-10.935,11.01-17.725c1.971,0,1.09-4-0.06-4.59
					c-1.4-0.699-7.99,2.685-7.99,4.148c-10.188,0,0.79-9.563,3.85-11.33c2.712-1.569,5.54-2.949,8.344-4.34
					c2.132-1.063,2.5-8,4.366-10.21c4.134-4.895,2.54-15.04,11.306-15.04c0,3.565-16.896,28.51-10.016,28.51
					C790.573,149.051,792.323,149.911,792.323,149.112z M781.224,173.001c3.74,1.41,10.63-7.435,6.31-10.01
					C787.533,164.951,781.435,169.172,781.224,173.001z"/>
			</g>
			<g>
				<path fill="none" stroke="#FFFFFF" stroke-miterlimit="10" d="M820.624,161.251c0.806-2.8,2.28-8.76,0.016-11.2
					c-3.45-3.71-10.07-4.96-6.86-11.449c1.933-3.891,4.25-9.79,9.683-9.79c4.397-1.471,3.143-9.87,4.343-13.105
					c3.51-9.5,4.93,0.92,7.195,0.92c0,4.891-0.591,9.76-0.275,14.66c0.34,5.325,5.39,10.59,3.909,16.1
					c-1.354,5.021-4.779,9.811-6.539,14.83c-3.28,9.396-3.063,17.711-1.87,27.602c0.18,1.5,0.17,17.99-3.263,10.725
					c-1.723-3.66-0.271-9.382-2.777-12.54c-2.32-2.938-5.83-11.21-5.473-15.25c0.607-7-0.093-6.25-6.133-8.229
					c-5.3-1.729-5.39-10.931-0.039-8.396c2.145,1.01,6.014,4.09,7.563,4.92C820.323,161.161,820.514,161.241,820.624,161.251
					c0.386-1.318-0.76-0.645-0.524-0.225C820.155,161.142,820.304,161.232,820.624,161.251z"/>
				<path fill="none" stroke="#FFFFFF" stroke-miterlimit="10" d="M792.323,149.112c0,0.805-1.75-0.061,0-0.061"/>
				<path fill="none" stroke="#FFFFFF" stroke-miterlimit="10" d="M792.323,149.051c0,0.021,0,0.04,0,0.061
					c0.24,2.645-0.896,8.939,1.53,10.71c2.7,1.975,8.79-10.325,11.75-10.325c-2.12,9.89-11.92,15.22-11.21,25.42
					c0.27,3.931,1.02,11.471-0.91,15.021c-1.27,2.318-1.9,5.229-5.2,3.438c-0.854-0.46-7.188-3.12-6.438-4.67
					c1.438-3.015,9.54,0.525,8.85-5.229c-0.26-2.271-2.064-4.812-2.064-6.99c-4-2.38-4.44,3.71-7.62,3.71
					c-4.16,8.04-7.11,6.83-9.49-0.565c-2.41-7.489,9.32-10.935,11.01-17.725c1.971,0,1.09-4-0.06-4.59
					c-1.4-0.699-7.99,2.685-7.99,4.148c-10.188,0,0.79-9.563,3.85-11.33c2.712-1.569,5.54-2.949,8.344-4.34
					c2.132-1.063,2.5-8,4.366-10.21c4.134-4.895,2.54-15.04,11.306-15.04C802.34,124.112,785.445,149.051,792.323,149.051"/>
				<path fill="none" stroke="#FFFFFF" stroke-miterlimit="10" d="M822.304,134.562c-2.16,2.395,0.77-0.311,0.278-0.311"/>
				<path fill="none" stroke="#FFFFFF" stroke-miterlimit="10" d="M822.59,134.251c-0.104,0.105-0.19,0.21-0.28,0.311
					c-2.46,2.645-3.2,3.069-3.2,7.313C825.469,146.121,827.435,134.251,822.59,134.251"/>
				<path fill="none" stroke="#FFFFFF" stroke-miterlimit="10" d="M787.533,162.991
					C787.533,164.951,787.895,163.201,787.533,162.991L787.533,162.991z"/>
				<path fill="none" stroke="#FFFFFF" stroke-miterlimit="10" d="M787.533,162.991c0,1.96-6.1,6.181-6.31,10.01
					C784.969,174.411,791.855,165.572,787.533,162.991z"/>
			</g>
		</g>
	</g>
	<g>
		<g id="XMLID_3_">
			<g>
				<path fill="#FFFFFF" d="M576.605,255.352c-0.021,0.029-0.05,0.13-0.09,0.239c0.815-4.75-4.49-8.159-3.87-5.729
					c0.62,2.46-1.03,8.015,3.71,6.425C576.55,255.632,576.605,255.382,576.605,255.352z M573.895,268.721
					c5.82,0.75,3.95-6.899,3.31-9.601c-5.154-1.725-4.59,6.83-3.688,9.54c0,0,0,0,0,0.011c0.05,0.01,0.1,0.021,0.14,0.021
					c0.104,0.021,0.17,0.029,0.224,0.029C573.885,268.732,573.885,268.732,573.895,268.721z M576.804,249.362
					c1.74,7.04,5.854,0.145,5.14-3.146c0-0.01-0.01-0.028-0.01-0.05C579.453,246.161,575.914,245.732,576.804,249.362z
					 M562.275,254.722c4.62,3.17,11.271-10.921,6.51-10.921C568.783,245.722,556.135,250.522,562.275,254.722z M573.323,282.701
					c-4.54,2.25,0.67-11.265-4.979-8.609c-3.95,1.851-9.23,5.08-13.563,5.08c-1.09-2.971,6.99-8.313,8.38-10.399
					c2.771-4.188-2.85-8.565-4.56-12.025c-1.82-3.675,2.18-8.569,5.15-10.83c5.604-4.265-1.03-7.265,1.116-8.95
					c0.813-0.648,4.438,3.78,6.021,1.7c0.78-1.021-0.521-8.265,3.18-7.148c-0.104,0,0.29,1.04,0.29,0.92
					c1.936,6.88-2.62,6.145,5.58,5.979c0.33,0.979-12.83,8.66-3.88,7.66c0-1.58,10.13-3.49,5.84,5.34
					c-0.31,0.642-3.99,8.09-2.525,8.09c0,3.646,3.825,3.852,1.141,6.896c-1.74,1.975-5.521,3.354-6.41,5.54
					C573.615,273.132,573.993,282.371,573.323,282.701z M569.065,271.511c4.74-1.939-0.95-8.04-1.979-4.181
					c0-0.359-2.211,0.021,0,0.021c-2.75,0-6.32,5.08-6.726,7.471C561.115,274.842,569.065,272.491,569.065,271.511z
					 M567.385,260.531c7.524-0.285-2.62-11.67-0.313-0.061c0,0.021,0,0.04,0.016,0.069
					C567.185,260.541,567.3,260.541,567.385,260.531z"/>
				<path fill="#FFFFFF" d="M563.865,286.871c13.186,0.471,28.021,3.71,41.24,1.09c-2.09,8.891-26.33,2.065-31.79,1.141
					c-0.53-0.09-27.29-2.271-34.88-4.47l0.18-0.641C546.34,283.991,555.677,286.581,563.865,286.871z"/>
				<path fill="#FFFFFF" d="M549.76,277.422c3.05,5.641-8.104,5.75-11.521,5.72l0.38,0.854l-0.18,0.641
					c-1.51-0.439-2.271-0.881-1.9-1.301l0.646-0.659l1.06-0.591l0.761-0.17c21.609,0-5.855-13.859,4.384-21.345
					c4.146-3.025,2.811,8.37,2.811,9.33C546.105,269.902,549.445,276.862,549.76,277.422z"/>
			</g>
			<g>
				<path fill="none" stroke="#FFFFFF" stroke-miterlimit="10" d="M574.155,231.732c0.16,0.46,0.21,0.66,0.21,0.7
					c0,0.119-0.396-0.92-0.29-0.92"/>
				<path fill="none" stroke="#FFFFFF" stroke-miterlimit="10" d="M574.073,231.512c0.01,0,0.01,0,0.01,0
					c0.03,0.079,0.056,0.148,0.07,0.22c0.08,0.24,0.15,0.475,0.21,0.7c1.936,6.88-2.62,6.14,5.58,5.979
					c0.33,0.979-12.83,8.655-3.88,7.655c0-1.575,10.13-3.485,5.84,5.345c-0.31,0.641-3.99,8.09-2.524,8.09
					c0,3.646,3.825,3.851,1.14,6.896c-1.74,1.975-5.521,3.354-6.41,5.54c-0.49,1.189-0.105,10.435-0.78,10.765
					c-4.538,2.25,0.673-11.265-4.979-8.609c-3.95,1.851-9.23,5.08-13.563,5.08c-1.09-2.971,6.99-8.313,8.384-10.399
					c2.771-4.188-2.854-8.565-4.563-12.025c-1.82-3.67,2.18-8.569,5.15-10.83c5.604-4.265-1.03-7.265,1.12-8.95
					c0.81-0.648,4.438,3.78,6.02,1.7C571.677,237.642,570.374,230.402,574.073,231.512"/>
				<path fill="none" stroke="#FFFFFF" stroke-miterlimit="10" d="M568.783,243.801
					C568.783,244.642,569.065,243.801,568.783,243.801L568.783,243.801z"/>
				<path fill="none" stroke="#FFFFFF" stroke-miterlimit="10" d="M568.783,243.801c0,1.921-12.646,6.721-6.51,10.921
					C566.895,257.892,573.55,243.801,568.783,243.801z"/>
				<path fill="none" stroke="#FFFFFF" stroke-miterlimit="10" d="M581.935,246.161c-2.48,0-6.021-0.435-5.13,3.195
					c1.74,7.04,5.854,0.145,5.14-3.146C581.945,246.201,581.935,246.182,581.935,246.161c-0.4,0-0.01,0.235,0.01,0.05"/>
				<path fill="none" stroke="#FFFFFF" stroke-miterlimit="10" d="M576.51,255.621c-0.08,0.275-0.19,0.67-0.15,0.655
					C576.427,256.062,576.474,255.842,576.51,255.621"/>
				<path fill="none" stroke="#FFFFFF" stroke-miterlimit="10" d="M576.605,255.342c0,0,0,0,0,0.011
					c-0.021,0.029-0.05,0.13-0.09,0.239"/>
				<path fill="none" stroke="#FFFFFF" stroke-miterlimit="10" d="M576.514,255.592c0.814-4.75-4.49-8.159-3.87-5.729
					c0.62,2.46-1.03,8.015,3.71,6.425c0.19-0.649,0.25-0.899,0.25-0.935"/>
				<path fill="none" stroke="#FFFFFF" stroke-miterlimit="10" d="M576.514,255.592c0,0.011,0,0.021-0.01,0.029"/>
				<path fill="none" stroke="#FFFFFF" stroke-miterlimit="10" d="M567.385,260.531c0.88-0.075-0.313-0.535-0.313-0.061"/>
				<path fill="none" stroke="#FFFFFF" stroke-miterlimit="10" d="M567.073,260.471c0,0.021,0,0.04,0.01,0.069
					c0.104,0,0.216,0,0.306-0.015C574.914,260.241,564.764,248.862,567.073,260.471"/>
				<path fill="none" stroke="#FFFFFF" stroke-miterlimit="10" d="M573.895,268.721c0.21,0-0.38-0.188-0.38-0.061"/>
				<path fill="none" stroke="#FFFFFF" stroke-miterlimit="10" d="M573.655,268.692c0.104,0.021,0.17,0.029,0.225,0.029"/>
				<path fill="none" stroke="#FFFFFF" stroke-miterlimit="10" d="M573.514,268.661c0,0,0,0,0,0.011c0.05,0.01,0.1,0.021,0.14,0.021
					c0.08,0.015,0.15,0.029,0.22,0.029c0.016,0.011,0.016,0.011,0.021,0c5.82,0.75,3.95-6.899,3.31-9.601
					C572.05,257.402,572.615,265.951,573.514,268.661"/>
				<path fill="none" stroke="#FFFFFF" stroke-miterlimit="10" d="M538.993,281.911c21.61,0-5.854-13.859,4.38-21.345
					c4.15-3.025,2.813,8.37,2.813,9.33c-0.08,0,3.26,6.96,3.57,7.521c3.05,5.641-8.104,5.75-11.521,5.72"/>
				<path fill="none" stroke="#FFFFFF" stroke-miterlimit="10" d="M567.09,267.351c-2.75,0-6.32,5.08-6.726,7.471
					c0.75,0.021,8.7-2.325,8.7-3.311c4.74-1.939-0.95-8.04-1.979-4.181C567.09,267.342,567.09,267.342,567.09,267.351
					c-2.216,0,0-0.38,0-0.021"/>
				<path fill="none" stroke="#FFFFFF" stroke-miterlimit="10" d="M538.615,283.991c7.726,0,17.063,2.59,25.25,2.88
					c13.186,0.471,28.021,3.71,41.24,1.09c-2.09,8.891-26.33,2.065-31.79,1.141c-0.53-0.09-27.29-2.271-34.88-4.47
					c-1.51-0.439-2.271-0.881-1.9-1.301"/>
				<line fill="none" stroke="#FFFFFF" stroke-miterlimit="10" x1="536.533" y1="283.331" x2="537.177" y2="282.672"/>
				<line fill="none" stroke="#FFFFFF" stroke-miterlimit="10" x1="537.177" y1="282.672" x2="538.235" y2="282.081"/>
				<line fill="none" stroke="#FFFFFF" stroke-miterlimit="10" x1="538.235" y1="282.081" x2="538.993" y2="281.911"/>
				<line fill="none" stroke="#FFFFFF" stroke-miterlimit="10" x1="538.235" y1="283.141" x2="538.615" y2="283.991"/>
			</g>
		</g>
	</g>
	<g>
		<g id="XMLID_4_">
			<g>
				<path fill="#FFFFFF" d="M680.573,274.092c2.03-1.29,6.21-5.16,8.686-5.16c0-1.479,2.46-1.329,3.25-0.71
					c0.944,0.75-3.15,2.771-3.71,3.063c-7.266,3.79-12.521,10.47-21.771,8.146c0,0.341-3.63-1.699-3.938-1.869
					c-2.016-1.16-1.926-6.229-1.936-8.25c-0.01-5.521,0.58-9.735,2.17-14.896c0.99-3.225,1.725-6.148,1.725-9.59
					c-2.5,0,1.271-9.75,2.931-3.225c2.607,0,1.79,7.12,3.979,8.41c4.25,2.51,7.859,3.25,12.739,4.43
					c4.75,1.149,0.12,3.54-2.39,3.395c-3.08-0.199-6.063-1.42-8.87-1.854c-9.13-1.396-8.813,10.899-7.931,16.725
					C666.533,279.531,676.59,276.641,680.573,274.092z"/>
				<path fill="#FFFFFF" d="M646.605,282.442v0.021l-2.25,4.2l-2.479,3.17c-2.275,0-6.479-0.649-8.051-2.38
					c-1.08-1.189-1.274-8.685-2.92-8.685c-0.26-1.29-1.97-4.065-3.5-4.065c-2.66-1.805-0.646-4.563,0.46-6.595
					c1.62-2.971,3.99-5.896,5.12-9.105l3.646-6.67l2.694-7.79l0.476-4.645c0.29-0.22,3.396-1.13,3.396-0.565l3.78,0.565
					c4.26,0-0.97,10.32-1.67,11.189c-3.04,3.771-5.22,8.108-8.57,11.449c-2.25,2.25-7.27,8.011-5.39,11.229
					c2.188,3.76,6.26,5.67,9.104,8.779c0,0.13,1.056,0.229,2.354,0.229l2.85-2.21c0.063-0.025,0.19-0.101,0.19-0.101
					c0.54-0.939,1.896-5.489,3.5-5.011C649.365,276.442,647.775,282.132,646.605,282.442z"/>
			</g>
			<g>
				<path fill="none" stroke="#FFFFFF" stroke-miterlimit="10" d="M641.874,289.831c-2.274,0-6.479-0.649-8.05-2.38
					c-1.08-1.189-1.274-8.685-2.92-8.685c-0.26-1.29-1.97-4.065-3.5-4.065c-2.66-1.805-0.646-4.563,0.46-6.595
					c1.62-2.971,3.99-5.896,5.12-9.105"/>
				<path fill="none" stroke="#FFFFFF" stroke-miterlimit="10" d="M646.974,239.902c4.26,0-0.97,10.32-1.67,11.189
					c-3.04,3.771-5.22,8.109-8.57,11.449c-2.25,2.25-7.27,8.011-5.39,11.229c2.188,3.76,6.26,5.67,9.104,8.779"/>
				<path fill="none" stroke="#FFFFFF" stroke-miterlimit="10" d="M639.8,239.902c0.289-0.22,3.396-1.13,3.396-0.565"/>
				<line fill="none" stroke="#FFFFFF" stroke-miterlimit="10" x1="643.195" y1="239.331" x2="646.974" y2="239.902"/>
				<path fill="none" stroke="#FFFFFF" stroke-miterlimit="10" d="M671.953,250.012c4.25,2.51,7.86,3.25,12.74,4.43
					c4.75,1.149,0.12,3.54-2.39,3.395c-3.08-0.199-6.063-1.42-8.87-1.854c-9.13-1.396-8.813,10.899-7.93,16.725
					c1.024,6.825,11.074,3.938,15.064,1.391c2.03-1.29,6.21-5.16,8.686-5.16c0-1.479,2.46-1.33,3.25-0.71
					c0.944,0.75-3.15,2.771-3.71,3.063c-7.266,3.79-12.521,10.47-21.771,8.146c0,0.341-3.63-1.699-3.939-1.87
					c-2.011-1.159-1.921-6.229-1.931-8.25c-0.01-5.521,0.58-9.735,2.17-14.896c0.99-3.225,1.722-6.148,1.722-9.59
					c-2.5,0,1.271-9.75,2.934-3.225C670.59,241.602,669.764,248.722,671.953,250.012z"/>
				<path fill="none" stroke="#FFFFFF" stroke-miterlimit="10" d="M645.845,280.471c0.54-0.938,1.896-5.489,3.5-5.011
					c0.02,0.979-1.57,6.671-2.74,6.979c-0.03,0.021-0.07,0.021-0.1,0.021"/>
				<path fill="none" stroke="#FFFFFF" stroke-miterlimit="10" d="M645.655,280.572c0.063-0.025,0.19-0.101,0.19-0.101"/>
				<line fill="none" stroke="#FFFFFF" stroke-miterlimit="10" x1="644.355" y1="286.661" x2="646.605" y2="282.461"/>
				<line fill="none" stroke="#FFFFFF" stroke-miterlimit="10" x1="639.8" y1="239.902" x2="639.323" y2="244.541"/>
				<line fill="none" stroke="#FFFFFF" stroke-miterlimit="10" x1="632.985" y1="259.001" x2="636.624" y2="252.331"/>
				<line fill="none" stroke="#FFFFFF" stroke-miterlimit="10" x1="636.624" y1="252.331" x2="639.323" y2="244.541"/>
				<path fill="none" stroke="#FFFFFF" stroke-miterlimit="10" d="M640.453,282.551c0,0.13,1.056,0.229,2.354,0.229"/>
				<line fill="none" stroke="#FFFFFF" stroke-miterlimit="10" x1="642.804" y1="282.781" x2="645.655" y2="280.572"/>
				<line fill="none" stroke="#FFFFFF" stroke-miterlimit="10" x1="641.874" y1="289.831" x2="644.355" y2="286.661"/>
			</g>
		</g>
	</g>
	<g>
		<g id="XMLID_8_">
			<g>
				<path fill="#FFFFFF" d="M1004.845,244.232c-1.313,0-2.436,1.645-3.33,3.66l-1.03-0.341c0.24-0.739,0.39-1.439,0.39-2.091
					c-2.074-1.104-7.14,1.932-8.63,3.25c-2.01,1.802-0.09,7.025-3.62,4.438c-0.88-0.646-5.85-4.355-5.14-5.479
					c0.24-0.381,4.71-0.649,5.63-1.029c5.71-2.341,10.92-5.67,16.45-8.38c1.54-0.75,4.13-2.36,5.04-3.602
					c0.85-1.16,6.09,0.21,5.72,1.181c-0.27,0.681-4.67,2.75-5.43,3.21c-1.88,1.171-5.49,3.08-6.05,5.171
					C1004.845,244.022,1001.474,244.232,1004.845,244.232z"/>
				<path fill="#FFFFFF" d="M1002.743,282.551c3.86-1.41,3.82-8.521,2.95-11.721c0-0.015,0-0.015,0-0.021
					c-0.1-0.029-0.2-0.05-0.3-0.069c-0.021-0.01-0.04-0.01-0.05-0.01c-3-0.71-6.011,0.239-8.46,1.529
					c-1.631,0.859-7.79,6.521-3.12,7.09C996.405,279.681,1000.764,283.272,1002.743,282.551z M1009.914,265.232
					c-0.024-0.021,10.45,5.25,4.676,4.563c-5.176-0.609-5.99,3.341-6.62,8.261c-0.313,2.479-0.436,4.971-0.46,7.46
					c-0.03,2.471-1.136,1.739-3.21,0.91c-1.885-0.75-4.563-1.721-5.87-3.37c-0.936-1.17-5.095-0.811-6.67-1.051
					c-3.976-0.604-4.17-5.829-7.87-5.739c-4.771,0.109-10.03-3-9.87,4.189c0.05,2-3.59,2.05-3.59,2.646
					c-2.36,0-0.521,1.79-1.24,2.75c-1,1.359-4.36-4.08-4.7-4.646c-1.438-2.425-2.01-3.29,0.69-5.25c1.06-0.771,2.81-2.5,4.08-2.345
					c2.02,0.265,4.96,1.225,6.85,0.055c1.729-1.063,1.88-3.015,4.9-1.5c1.39,0.695,3.146,0.271,4.76-0.2
					c3.52-1.01,3.38-1.539,4.67-4.51c1.58-3.635,2.95-7.029,4.83-10.54c1.28-2.395,4.18-6.185,5.22-9.359l1.03,0.341
					c-1.15,2.59-1.95,5.8-2.34,6.949c-0.19,0.569-3.38,10.101-3.88,10.101c0,3.725,0.479,4.939,4.354,4.094
					c1.271-0.279,4.354-1.159,5.22-2.271c1.961-2.489,1.2-11.607,0.674-14.521c-1.438-7.869,2.892-2.304,2.771,2.682
					C1008.203,259.391,1006.275,261.531,1009.914,265.232z M970.719,279.382v-1.83l-2.82,1.011l0.95,1.449L970.719,279.382z"/>
				<path fill="#FFFFFF" d="M966.927,264.181c0,4.71-3.646,10.189-6.2,13.899c-0.97,1.396-2.67,2.729-3.23,4.261
					c-0.42,1.146-2.17,5.3-3.71,5.3c-2.854-3.34,0.61-10.681,4.063-11.63c1.104-4.689,10.21-13.149,7.74-18.46
					c-0.845-1.813-3.636-0.551-4.74-2.109c-1.11-1.55-4-5.646-3.471-7.8c3.921-0.45,3.905,7.104,8.445,4.84
					c2.24-1.105,3.5-1.97,5.12-3.75c1.66-1.83,0.49-4.12,3.83-4.12C974.775,247.241,969.695,264.181,966.927,264.181z"/>
			</g>
			<g>
				<path fill="none" stroke="#FFFFFF" stroke-miterlimit="10" d="M1004.845,244.232c-1.313,0-2.436,1.645-3.33,3.66
					c-1.15,2.59-1.95,5.8-2.34,6.949c-0.19,0.569-3.38,10.101-3.88,10.101c0,3.725,0.479,4.939,4.354,4.095
					c1.271-0.28,4.354-1.16,5.22-2.271c1.961-2.489,1.2-11.608,0.672-14.521c-1.438-7.87,2.894-2.305,2.771,2.681
					c-0.11,4.47-2.04,6.604,1.601,10.311c-0.025-0.021,10.449,5.25,4.672,4.563c-5.172-0.609-5.987,3.341-6.617,8.261
					c-0.313,2.479-0.436,4.971-0.46,7.46c-0.03,2.472-1.135,1.739-3.214,0.91c-1.881-0.75-4.562-1.721-5.866-3.37
					c-0.935-1.17-5.093-0.811-6.67-1.051c-3.976-0.604-4.173-5.829-7.87-5.739c-4.771,0.109-10.03-3-9.87,4.189
					c0.05,2-3.59,2.05-3.59,2.646c-2.36,0-0.521,1.79-1.24,2.75c-1,1.359-4.359-4.079-4.7-4.646c-1.438-2.421-2.01-3.29,0.69-5.25
					c1.06-0.771,2.81-2.5,4.08-2.345c2.02,0.265,4.96,1.225,6.85,0.055c1.729-1.063,1.88-3.015,4.9-1.5
					c1.39,0.695,3.146,0.271,4.76-0.2c3.52-1.01,3.38-1.539,4.67-4.51c1.58-3.632,2.95-7.029,4.83-10.54
					c1.28-2.395,4.18-6.185,5.22-9.359c0.24-0.739,0.394-1.438,0.394-2.091c-2.078-1.104-7.144,1.932-8.633,3.25
					c-2.011,1.801-0.091,7.03-3.617,4.438c-0.883-0.646-5.854-4.355-5.144-5.479c0.24-0.381,4.71-0.649,5.63-1.029
					c5.71-2.341,10.92-5.67,16.45-8.381c1.54-0.75,4.13-2.357,5.04-3.601c0.85-1.16,6.09,0.21,5.72,1.181
					c-0.27,0.681-4.67,2.75-5.43,3.21c-1.88,1.171-5.49,3.08-6.05,5.171L1004.845,244.232c-3.369,0,0.001-0.21,0.001-0.01"/>
				<path fill="none" stroke="#FFFFFF" stroke-miterlimit="10" d="M958.224,274.232c0,0-0.01,0,0,0.015
					c-0.104,0.155-0.53,1.811-0.38,1.771"/>
				<path fill="none" stroke="#FFFFFF" stroke-miterlimit="10" d="M957.845,276.011c0.274-1.2,0.38-1.681,0.38-1.771"/>
				<path fill="none" stroke="#FFFFFF" stroke-miterlimit="10" d="M957.845,276.011c1.104-4.689,10.21-13.149,7.739-18.46
					c-0.845-1.813-3.635-0.551-4.739-2.109c-1.11-1.55-4-5.646-3.476-7.8c3.926-0.45,3.91,7.104,8.45,4.84
					c2.24-1.105,3.5-1.97,5.12-3.75c1.66-1.83,0.49-4.12,3.83-4.12c0,2.635-5.08,19.569-7.85,19.569c0,4.71-3.646,10.189-6.2,13.899
					c-0.97,1.396-2.67,2.729-3.23,4.261c-0.42,1.146-2.17,5.3-3.71,5.3C950.927,284.301,954.395,276.961,957.845,276.011z"/>
				<path fill="none" stroke="#FFFFFF" stroke-miterlimit="10" d="M1005.345,270.732c-0.313-0.051,0.35,0.25,0.35,0.104"/>
				<path fill="none" stroke="#FFFFFF" stroke-miterlimit="10" d="M1005.695,270.831c0-0.015,0-0.015,0-0.021
					c-0.1-0.03-0.2-0.051-0.3-0.065c-0.021-0.015-0.04-0.015-0.05-0.015c-3-0.71-6.011,0.239-8.46,1.529
					c-1.63,0.859-7.79,6.521-3.12,7.09c2.64,0.33,7,3.921,8.979,3.2C1006.605,281.141,1006.565,274.031,1005.695,270.831"/>
				<line fill="none" stroke="#FFFFFF" stroke-miterlimit="10" x1="970.719" y1="279.382" x2="968.845" y2="280.011"/>
				<line fill="none" stroke="#FFFFFF" stroke-miterlimit="10" x1="970.719" y1="279.382" x2="970.719" y2="277.551"/>
				<line fill="none" stroke="#FFFFFF" stroke-miterlimit="10" x1="970.719" y1="277.551" x2="967.895" y2="278.562"/>
				<line fill="none" stroke="#FFFFFF" stroke-miterlimit="10" x1="967.895" y1="278.562" x2="968.845" y2="280.011"/>
			</g>
		</g>
	</g>
</g>
</svg>
